ISO-10303-21;
HEADER;
FILE_DESCRIPTION(('FreeCAD Model'),'2;1');
FILE_NAME('Open CASCADE Shape Model','2025-06-18T20:10:02',(''),(''),
  'Open CASCADE STEP processor 7.7','FreeCAD','Unknown');
FILE_SCHEMA(('AUTOMOTIVE_DESIGN { 1 0 10303 214 1 1 1 1 }'));
ENDSEC;
DATA;
#1 = APPLICATION_PROTOCOL_DEFINITION('international standard',
  'automotive_design',2000,#2);
#2 = APPLICATION_CONTEXT(
  'core data for automotive mechanical design processes');
#3 = SHAPE_DEFINITION_REPRESENTATION(#4,#10);
#4 = PRODUCT_DEFINITION_SHAPE('','',#5);
#5 = PRODUCT_DEFINITION('design','',#6,#9);
#6 = PRODUCT_DEFINITION_FORMATION('','',#7);
#7 = PRODUCT('side','side','',(#8));
#8 = PRODUCT_CONTEXT('',#2,'mechanical');
#9 = PRODUCT_DEFINITION_CONTEXT('part definition',#2,'design');
#10 = ADVANCED_BREP_SHAPE_REPRESENTATION('',(#11,#15),#1319);
#11 = AXIS2_PLACEMENT_3D('',#12,#13,#14);
#12 = CARTESIAN_POINT('',(0.,0.,0.));
#13 = DIRECTION('',(0.,0.,1.));
#14 = DIRECTION('',(1.,0.,-0.));
#15 = MANIFOLD_SOLID_BREP('',#16);
#16 = CLOSED_SHELL('',(#17,#156,#187,#225,#250,#274,#298,#357,#382,#406,
    #437,#469,#493,#517,#535,#568,#609,#634,#661,#685,#733,#760,#787,
    #819,#851,#875,#899,#917,#948,#986,#1011,#1035,#1059,#1118,#1143,
    #1167,#1198,#1230,#1254,#1278,#1296));
#17 = ADVANCED_FACE('',(#18,#115),#151,.F.);
#18 = FACE_BOUND('',#19,.F.);
#19 = EDGE_LOOP('',(#20,#30,#42,#51,#70,#79,#91,#100,#108));
#20 = ORIENTED_EDGE('',*,*,#21,.F.);
#21 = EDGE_CURVE('',#22,#24,#26,.T.);
#22 = VERTEX_POINT('',#23);
#23 = CARTESIAN_POINT('',(53.320079710936,12.710733072437,
    -4.274358644807E-15));
#24 = VERTEX_POINT('',#25);
#25 = CARTESIAN_POINT('',(59.594375239808,-4.767682764944,
    8.881784197001E-16));
#26 = LINE('',#27,#28);
#27 = CARTESIAN_POINT('',(53.320079710936,12.710733072437,0.));
#28 = VECTOR('',#29,1.);
#29 = DIRECTION('',(0.337864391442,-0.94119480077,0.));
#30 = ORIENTED_EDGE('',*,*,#31,.F.);
#31 = EDGE_CURVE('',#32,#22,#34,.T.);
#32 = VERTEX_POINT('',#33);
#33 = CARTESIAN_POINT('',(27.544816685676,35.902572333188,
    -7.771561172376E-16));
#34 = B_SPLINE_CURVE_WITH_KNOTS('',6,(#35,#36,#37,#38,#39,#40,#41),
  .UNSPECIFIED.,.F.,.F.,(7,7),(281.99400239571,318.51009561345),
  .PIECEWISE_BEZIER_KNOTS.);
#35 = CARTESIAN_POINT('',(27.544816685676,35.902572333188,0.));
#36 = CARTESIAN_POINT('',(33.393387848488,34.476114131311,0.));
#37 = CARTESIAN_POINT('',(38.960667669899,31.895218363194,0.));
#38 = CARTESIAN_POINT('',(43.961740028431,28.229124861797,0.));
#39 = CARTESIAN_POINT('',(48.133798717725,23.64146508513,0.));
#40 = CARTESIAN_POINT('',(51.28613156586,18.376738332743,0.));
#41 = CARTESIAN_POINT('',(53.320079710936,12.710733072437,0.));
#42 = ORIENTED_EDGE('',*,*,#43,.F.);
#43 = EDGE_CURVE('',#44,#32,#46,.T.);
#44 = VERTEX_POINT('',#45);
#45 = CARTESIAN_POINT('',(-57.41371725984,39.340069233002,0.));
#46 = CIRCLE('',#47,215.28);
#47 = AXIS2_PLACEMENT_3D('',#48,#49,#50);
#48 = CARTESIAN_POINT('',(-23.466348,-173.246512,0.));
#49 = DIRECTION('',(0.,0.,-1.));
#50 = DIRECTION('',(-0.157689377833,0.987488764553,0.));
#51 = ORIENTED_EDGE('',*,*,#52,.F.);
#52 = EDGE_CURVE('',#53,#44,#55,.T.);
#53 = VERTEX_POINT('',#54);
#54 = CARTESIAN_POINT('',(-65.11035490607,27.153240395102,
    -7.771561172376E-16));
#55 = B_SPLINE_CURVE_WITH_KNOTS('',13,(#56,#57,#58,#59,#60,#61,#62,#63,
    #64,#65,#66,#67,#68,#69),.UNSPECIFIED.,.F.,.F.,(14,14),(179.26136526
    ,196.24432026407),.PIECEWISE_BEZIER_KNOTS.);
#56 = CARTESIAN_POINT('',(-65.11035490607,27.153240395102,0.));
#57 = CARTESIAN_POINT('',(-65.46380761828,28.355876770277,0.));
#58 = CARTESIAN_POINT('',(-65.64741913817,29.608874551884,0.));
#59 = CARTESIAN_POINT('',(-65.6517855111,30.8865471249,0.));
#60 = CARTESIAN_POINT('',(-65.47968761278,32.156844999659,0.));
#61 = CARTESIAN_POINT('',(-65.11709222387,33.404908829085,0.));
#62 = CARTESIAN_POINT('',(-64.59421544433,34.58054715365,0.));
#63 = CARTESIAN_POINT('',(-63.90163499436,35.677168055921,0.));
#64 = CARTESIAN_POINT('',(-63.05422352512,36.66960802414,0.));
#65 = CARTESIAN_POINT('',(-62.09610492861,37.516433733724,0.));
#66 = CARTESIAN_POINT('',(-61.01515846599,38.227094034894,0.));
#67 = CARTESIAN_POINT('',(-59.8621512321,38.769392953748,0.));
#68 = CARTESIAN_POINT('',(-58.65153471637,39.142405551558,0.));
#69 = CARTESIAN_POINT('',(-57.41371725984,39.340069233002,0.));
#70 = ORIENTED_EDGE('',*,*,#71,.F.);
#71 = EDGE_CURVE('',#72,#53,#74,.T.);
#72 = VERTEX_POINT('',#73);
#73 = CARTESIAN_POINT('',(-48.20033425091,-6.456944362872,0.));
#74 = CIRCLE('',#75,104.91);
#75 = AXIS2_PLACEMENT_3D('',#76,#77,#78);
#76 = CARTESIAN_POINT('',(35.542656,56.734983,0.));
#77 = DIRECTION('',(-0.,0.,-1.));
#78 = DIRECTION('',(-0.79823649081,-0.602344174653,0.));
#79 = ORIENTED_EDGE('',*,*,#80,.F.);
#80 = EDGE_CURVE('',#81,#72,#83,.T.);
#81 = VERTEX_POINT('',#82);
#82 = CARTESIAN_POINT('',(-29.76822812615,-16.88670616354,
    -7.771561172376E-16));
#83 = B_SPLINE_CURVE_WITH_KNOTS('',6,(#84,#85,#86,#87,#88,#89,#90),
  .UNSPECIFIED.,.F.,.F.,(7,7),(119.1787690843,141.28815172396),
  .PIECEWISE_BEZIER_KNOTS.);
#84 = CARTESIAN_POINT('',(-29.76822812615,-16.88670616354,0.));
#85 = CARTESIAN_POINT('',(-33.37813429511,-16.50445731005,0.));
#86 = CARTESIAN_POINT('',(-36.92568846923,-15.53100796754,0.));
#87 = CARTESIAN_POINT('',(-40.2898971129,-13.9790070772,0.));
#88 = CARTESIAN_POINT('',(-43.35248002665,-11.89440368232,0.));
#89 = CARTESIAN_POINT('',(-46.01377020538,-9.354615302651,0.));
#90 = CARTESIAN_POINT('',(-48.20033425091,-6.456944362872,0.));
#91 = ORIENTED_EDGE('',*,*,#92,.F.);
#92 = EDGE_CURVE('',#93,#81,#95,.T.);
#93 = VERTEX_POINT('',#94);
#94 = CARTESIAN_POINT('',(46.117216773517,-19.12363560526,
    -6.106226635438E-16));
#95 = CIRCLE('',#96,499.77);
#96 = AXIS2_PLACEMENT_3D('',#97,#98,#99);
#97 = CARTESIAN_POINT('',(22.857638,480.104814,0.));
#98 = DIRECTION('',(0.,-0.,-1.));
#99 = DIRECTION('',(4.654056620749E-02,-0.998916400755,0.));
#100 = ORIENTED_EDGE('',*,*,#101,.F.);
#101 = EDGE_CURVE('',#102,#93,#104,.T.);
#102 = VERTEX_POINT('',#103);
#103 = CARTESIAN_POINT('',(50.111040353451,-18.93755916223,
    -7.771561172376E-16));
#104 = LINE('',#105,#106);
#105 = CARTESIAN_POINT('',(50.111040353451,-18.93755916223,0.));
#106 = VECTOR('',#107,1.);
#107 = DIRECTION('',(-0.998916400755,-4.654056620749E-02,-0.));
#108 = ORIENTED_EDGE('',*,*,#109,.F.);
#109 = EDGE_CURVE('',#24,#102,#110,.T.);
#110 = CIRCLE('',#111,10.6);
#111 = AXIS2_PLACEMENT_3D('',#112,#113,#114);
#112 = CARTESIAN_POINT('',(49.617710351651,-8.349045314229,0.));
#113 = DIRECTION('',(0.,0.,-1.));
#114 = DIRECTION('',(0.94119480077,0.337864391442,0.));
#115 = FACE_BOUND('',#116,.F.);
#116 = EDGE_LOOP('',(#117,#128,#136,#145));
#117 = ORIENTED_EDGE('',*,*,#118,.F.);
#118 = EDGE_CURVE('',#119,#121,#123,.T.);
#119 = VERTEX_POINT('',#120);
#120 = CARTESIAN_POINT('',(4.4,5.392120686179E-16,0.));
#121 = VERTEX_POINT('',#122);
#122 = CARTESIAN_POINT('',(-4.4,-3.674769930691E-19,0.));
#123 = CIRCLE('',#124,4.4);
#124 = AXIS2_PLACEMENT_3D('',#125,#126,#127);
#125 = CARTESIAN_POINT('',(0.,0.,0.));
#126 = DIRECTION('',(0.,-0.,1.));
#127 = DIRECTION('',(1.,1.225481974132E-16,0.));
#128 = ORIENTED_EDGE('',*,*,#129,.F.);
#129 = EDGE_CURVE('',#130,#119,#132,.T.);
#130 = VERTEX_POINT('',#131);
#131 = CARTESIAN_POINT('',(4.4,-9.5,0.));
#132 = LINE('',#133,#134);
#133 = CARTESIAN_POINT('',(4.400000000001,-9.5,0.));
#134 = VECTOR('',#135,1.);
#135 = DIRECTION('',(0.,1.,0.));
#136 = ORIENTED_EDGE('',*,*,#137,.F.);
#137 = EDGE_CURVE('',#138,#130,#140,.T.);
#138 = VERTEX_POINT('',#139);
#139 = CARTESIAN_POINT('',(-4.4,-9.5,-1.110223024625E-16));
#140 = CIRCLE('',#141,4.4);
#141 = AXIS2_PLACEMENT_3D('',#142,#143,#144);
#142 = CARTESIAN_POINT('',(0.,-9.5,0.));
#143 = DIRECTION('',(0.,0.,1.));
#144 = DIRECTION('',(-1.,0.,0.));
#145 = ORIENTED_EDGE('',*,*,#146,.F.);
#146 = EDGE_CURVE('',#121,#138,#147,.T.);
#147 = LINE('',#148,#149);
#148 = CARTESIAN_POINT('',(-4.4,8.881784197001E-16,0.));
#149 = VECTOR('',#150,1.);
#150 = DIRECTION('',(0.,-1.,0.));
#151 = PLANE('',#152);
#152 = AXIS2_PLACEMENT_3D('',#153,#154,#155);
#153 = CARTESIAN_POINT('',(-1.439077244982,10.348514126428,0.));
#154 = DIRECTION('',(0.,0.,1.));
#155 = DIRECTION('',(1.,0.,0.));
#156 = ADVANCED_FACE('',(#157),#182,.F.);
#157 = FACE_BOUND('',#158,.F.);
#158 = EDGE_LOOP('',(#159,#167,#168,#176));
#159 = ORIENTED_EDGE('',*,*,#160,.F.);
#160 = EDGE_CURVE('',#22,#161,#163,.T.);
#161 = VERTEX_POINT('',#162);
#162 = CARTESIAN_POINT('',(53.696557631243,12.845878829013,0.4));
#163 = LINE('',#164,#165);
#164 = CARTESIAN_POINT('',(53.50831867109,12.778305950725,0.2));
#165 = VECTOR('',#166,1.);
#166 = DIRECTION('',(0.665525226042,0.23890620231,0.707106781187));
#167 = ORIENTED_EDGE('',*,*,#21,.T.);
#168 = ORIENTED_EDGE('',*,*,#169,.T.);
#169 = EDGE_CURVE('',#24,#170,#172,.T.);
#170 = VERTEX_POINT('',#171);
#171 = CARTESIAN_POINT('',(59.970853160116,-4.632537008368,0.4));
#172 = LINE('',#173,#174);
#173 = CARTESIAN_POINT('',(59.782614199962,-4.700109886656,0.2));
#174 = VECTOR('',#175,1.);
#175 = DIRECTION('',(0.665525226042,0.23890620231,0.707106781187));
#176 = ORIENTED_EDGE('',*,*,#177,.F.);
#177 = EDGE_CURVE('',#161,#170,#178,.T.);
#178 = LINE('',#179,#180);
#179 = CARTESIAN_POINT('',(53.696557631243,12.845878829013,0.4));
#180 = VECTOR('',#181,1.);
#181 = DIRECTION('',(0.337864391442,-0.94119480077,0.));
#182 = PLANE('',#183);
#183 = AXIS2_PLACEMENT_3D('',#184,#185,#186);
#184 = CARTESIAN_POINT('',(53.50831867109,12.778305950725,0.2));
#185 = DIRECTION('',(-0.665525226042,-0.23890620231,0.707106781187));
#186 = DIRECTION('',(0.337864391442,-0.94119480077,2.775557561563E-16));
#187 = ADVANCED_FACE('',(#188),#210,.T.);
#188 = FACE_BOUND('',#189,.T.);
#189 = EDGE_LOOP('',(#190,#198,#208,#209));
#190 = ORIENTED_EDGE('',*,*,#191,.T.);
#191 = EDGE_CURVE('',#32,#192,#194,.T.);
#192 = VERTEX_POINT('',#193);
#193 = CARTESIAN_POINT('',(27.63959774232,36.291180813926,0.4));
#194 = LINE('',#195,#196);
#195 = CARTESIAN_POINT('',(27.63959774232,36.291180813926,0.4));
#196 = VECTOR('',#197,1.);
#197 = DIRECTION('',(0.167550819702,0.686969229891,0.707106781187));
#198 = ORIENTED_EDGE('',*,*,#199,.T.);
#199 = EDGE_CURVE('',#192,#161,#200,.T.);
#200 = B_SPLINE_CURVE_WITH_KNOTS('',6,(#201,#202,#203,#204,#205,#206,
    #207),.UNSPECIFIED.,.F.,.F.,(7,7),(281.99400239571,318.51009561345),
  .PIECEWISE_BEZIER_KNOTS.);
#201 = CARTESIAN_POINT('',(27.63959774232,36.291180813926,0.4));
#202 = CARTESIAN_POINT('',(33.552087718309,34.849132904277,0.4));
#203 = CARTESIAN_POINT('',(39.180214342225,32.240031674324,
    0.399999999999));
#204 = CARTESIAN_POINT('',(44.235934230408,28.53386719484,0.400000000005
    ));
#205 = CARTESIAN_POINT('',(48.453603499161,23.89607603617,0.399999999989
    ));
#206 = CARTESIAN_POINT('',(51.640380345712,18.573808198378,0.4));
#207 = CARTESIAN_POINT('',(53.696557631243,12.845878829013,0.4));
#208 = ORIENTED_EDGE('',*,*,#160,.F.);
#209 = ORIENTED_EDGE('',*,*,#31,.F.);
#210 = B_SPLINE_SURFACE_WITH_KNOTS('',1,6,(
    (#211,#212,#213,#214,#215,#216,#217)
    ,(#218,#219,#220,#221,#222,#223,#224
    )),.UNSPECIFIED.,.F.,.F.,.F.,(2,2),(7,7),(0.,36.516093217738),(
    281.99400239571,318.51009561345),.PIECEWISE_BEZIER_KNOTS.);
#211 = CARTESIAN_POINT('',(27.544816685676,35.902572333188,0.));
#212 = CARTESIAN_POINT('',(33.393387848488,34.476114131311,0.));
#213 = CARTESIAN_POINT('',(38.960667669899,31.895218363194,0.));
#214 = CARTESIAN_POINT('',(43.961740028431,28.229124861797,0.));
#215 = CARTESIAN_POINT('',(48.133798717725,23.64146508513,0.));
#216 = CARTESIAN_POINT('',(51.28613156586,18.376738332743,0.));
#217 = CARTESIAN_POINT('',(53.320079710936,12.710733072437,0.));
#218 = CARTESIAN_POINT('',(27.63959774232,36.291180813926,0.4));
#219 = CARTESIAN_POINT('',(33.552087718309,34.849132904277,0.4));
#220 = CARTESIAN_POINT('',(39.180214342225,32.240031674324,
    0.399999999999));
#221 = CARTESIAN_POINT('',(44.235934230408,28.53386719484,0.400000000005
    ));
#222 = CARTESIAN_POINT('',(48.453603499161,23.89607603617,0.399999999989
    ));
#223 = CARTESIAN_POINT('',(51.640380345712,18.573808198378,0.4));
#224 = CARTESIAN_POINT('',(53.696557631243,12.845878829013,0.4));
#225 = ADVANCED_FACE('',(#226),#245,.T.);
#226 = FACE_BOUND('',#227,.F.);
#227 = EDGE_LOOP('',(#228,#229,#230,#238));
#228 = ORIENTED_EDGE('',*,*,#169,.F.);
#229 = ORIENTED_EDGE('',*,*,#109,.T.);
#230 = ORIENTED_EDGE('',*,*,#231,.T.);
#231 = EDGE_CURVE('',#102,#232,#234,.T.);
#232 = VERTEX_POINT('',#233);
#233 = CARTESIAN_POINT('',(50.129656579934,-19.33712572253,0.4));
#234 = LINE('',#235,#236);
#235 = CARTESIAN_POINT('',(50.129656579934,-19.33712572253,0.4));
#236 = VECTOR('',#237,1.);
#237 = DIRECTION('',(3.290914996558E-02,-0.706340560812,0.707106781187)
  );
#238 = ORIENTED_EDGE('',*,*,#239,.F.);
#239 = EDGE_CURVE('',#170,#232,#240,.T.);
#240 = CIRCLE('',#241,11.);
#241 = AXIS2_PLACEMENT_3D('',#242,#243,#244);
#242 = CARTESIAN_POINT('',(49.617710351651,-8.349045314229,0.4));
#243 = DIRECTION('',(0.,0.,-1.));
#244 = DIRECTION('',(0.94119480077,0.337864391442,0.));
#245 = CONICAL_SURFACE('',#246,11.,0.785398163397);
#246 = AXIS2_PLACEMENT_3D('',#247,#248,#249);
#247 = CARTESIAN_POINT('',(49.617710351651,-8.349045314229,0.4));
#248 = DIRECTION('',(0.,0.,1.));
#249 = DIRECTION('',(0.94119480077,0.337864391442,0.));
#250 = ADVANCED_FACE('',(#251),#269,.T.);
#251 = FACE_BOUND('',#252,.F.);
#252 = EDGE_LOOP('',(#253,#260,#261,#262));
#253 = ORIENTED_EDGE('',*,*,#254,.F.);
#254 = EDGE_CURVE('',#44,#255,#257,.T.);
#255 = VERTEX_POINT('',#256);
#256 = CARTESIAN_POINT('',(-57.47679301098,39.735064738823,0.4));
#257 = B_SPLINE_CURVE_WITH_KNOTS('',1,(#258,#259),.UNSPECIFIED.,.F.,.F.,
  (2,2),(0.,16.98295500407),.PIECEWISE_BEZIER_KNOTS.);
#258 = CARTESIAN_POINT('',(-57.41371725984,39.340069233002,0.));
#259 = CARTESIAN_POINT('',(-57.47679301098,39.735064738823,0.4));
#260 = ORIENTED_EDGE('',*,*,#43,.T.);
#261 = ORIENTED_EDGE('',*,*,#191,.T.);
#262 = ORIENTED_EDGE('',*,*,#263,.F.);
#263 = EDGE_CURVE('',#255,#192,#264,.T.);
#264 = CIRCLE('',#265,215.68);
#265 = AXIS2_PLACEMENT_3D('',#266,#267,#268);
#266 = CARTESIAN_POINT('',(-23.466348,-173.246512,0.4));
#267 = DIRECTION('',(0.,0.,-1.));
#268 = DIRECTION('',(-0.157689377833,0.987488764553,0.));
#269 = CONICAL_SURFACE('',#270,215.68,0.785398163397);
#270 = AXIS2_PLACEMENT_3D('',#271,#272,#273);
#271 = CARTESIAN_POINT('',(-23.466348,-173.246512,0.4));
#272 = DIRECTION('',(0.,0.,1.));
#273 = DIRECTION('',(-0.157689377833,0.987488764553,0.));
#274 = ADVANCED_FACE('',(#275),#293,.T.);
#275 = FACE_BOUND('',#276,.F.);
#276 = EDGE_LOOP('',(#277,#278,#279,#287));
#277 = ORIENTED_EDGE('',*,*,#231,.F.);
#278 = ORIENTED_EDGE('',*,*,#101,.T.);
#279 = ORIENTED_EDGE('',*,*,#280,.T.);
#280 = EDGE_CURVE('',#93,#281,#283,.T.);
#281 = VERTEX_POINT('',#282);
#282 = CARTESIAN_POINT('',(46.135833,-19.52320216556,0.4));
#283 = LINE('',#284,#285);
#284 = CARTESIAN_POINT('',(46.126524886759,-19.32341888541,0.2));
#285 = VECTOR('',#286,1.);
#286 = DIRECTION('',(3.290914996558E-02,-0.706340560812,0.707106781187)
  );
#287 = ORIENTED_EDGE('',*,*,#288,.F.);
#288 = EDGE_CURVE('',#232,#281,#289,.T.);
#289 = LINE('',#290,#291);
#290 = CARTESIAN_POINT('',(50.129656579934,-19.33712572253,0.4));
#291 = VECTOR('',#292,1.);
#292 = DIRECTION('',(-0.998916400755,-4.654056620749E-02,-0.));
#293 = PLANE('',#294);
#294 = AXIS2_PLACEMENT_3D('',#295,#296,#297);
#295 = CARTESIAN_POINT('',(50.120348466692,-19.13734244238,0.2));
#296 = DIRECTION('',(3.290914996558E-02,-0.706340560812,-0.707106781187)
  );
#297 = DIRECTION('',(0.998916400755,4.654056620749E-02,
    -5.551115123126E-17));
#298 = ADVANCED_FACE('',(#299),#328,.T.);
#299 = FACE_BOUND('',#300,.T.);
#300 = EDGE_LOOP('',(#301,#309,#326,#327));
#301 = ORIENTED_EDGE('',*,*,#302,.T.);
#302 = EDGE_CURVE('',#53,#303,#305,.T.);
#303 = VERTEX_POINT('',#304);
#304 = CARTESIAN_POINT('',(-65.49412389246,27.040451366011,0.4));
#305 = LINE('',#306,#307);
#306 = CARTESIAN_POINT('',(-65.49412389246,27.040451366011,0.4));
#307 = VECTOR('',#308,1.);
#308 = DIRECTION('',(-0.678414131718,-0.199384718285,0.707106781187));
#309 = ORIENTED_EDGE('',*,*,#310,.T.);
#310 = EDGE_CURVE('',#303,#255,#311,.T.);
#311 = B_SPLINE_CURVE_WITH_KNOTS('',13,(#312,#313,#314,#315,#316,#317,
    #318,#319,#320,#321,#322,#323,#324,#325),.UNSPECIFIED.,.F.,.F.,(14,
    14),(179.26136526,196.24432026407),.PIECEWISE_BEZIER_KNOTS.);
#312 = CARTESIAN_POINT('',(-65.49412389246,27.040451366011,0.4));
#313 = CARTESIAN_POINT('',(-65.86230381589,28.293197640803,0.4));
#314 = CARTESIAN_POINT('',(-66.05348517556,29.598361429284,0.39999999883
    ));
#315 = CARTESIAN_POINT('',(-66.05869759529,30.929666564369,
    0.400000008098));
#316 = CARTESIAN_POINT('',(-65.87682007139,32.251065458091,
    0.399999971963));
#317 = CARTESIAN_POINT('',(-65.50529189785,33.556344150249,
    0.400000061313));
#318 = CARTESIAN_POINT('',(-64.95112831073,34.771055154207,
    0.399999909048));
#319 = CARTESIAN_POINT('',(-64.23942560119,35.926375040135,0.400000092)
  );
#320 = CARTESIAN_POINT('',(-63.35018577795,36.948288013137,
    0.399999938624));
#321 = CARTESIAN_POINT('',(-62.35470429101,37.837808071533,
    0.400000024798));
#322 = CARTESIAN_POINT('',(-61.22837107529,38.575064863696,
    0.399999994436));
#323 = CARTESIAN_POINT('',(-60.02719057647,39.140672539531,0.40000000037
    ));
#324 = CARTESIAN_POINT('',(-58.76618624453,39.529165062722,0.4));
#325 = CARTESIAN_POINT('',(-57.47679301098,39.735064738823,0.4));
#326 = ORIENTED_EDGE('',*,*,#254,.F.);
#327 = ORIENTED_EDGE('',*,*,#52,.F.);
#328 = B_SPLINE_SURFACE_WITH_KNOTS('',1,13,(
    (#329,#330,#331,#332,#333,#334,#335,#336,#337,#338,#339,#340,#341
      ,#342)
    ,(#343,#344,#345,#346,#347,#348,#349,#350,#351,#352,#353,#354,#355
      ,#356
    )),.UNSPECIFIED.,.F.,.F.,.F.,(2,2),(14,14),(0.,16.98295500407),(
    179.26136526,196.24432026407),.PIECEWISE_BEZIER_KNOTS.);
#329 = CARTESIAN_POINT('',(-65.11035490607,27.153240395102,0.));
#330 = CARTESIAN_POINT('',(-65.46380761828,28.355876770277,0.));
#331 = CARTESIAN_POINT('',(-65.64741913817,29.608874551884,0.));
#332 = CARTESIAN_POINT('',(-65.6517855111,30.8865471249,0.));
#333 = CARTESIAN_POINT('',(-65.47968761278,32.156844999659,0.));
#334 = CARTESIAN_POINT('',(-65.11709222387,33.404908829085,0.));
#335 = CARTESIAN_POINT('',(-64.59421544433,34.58054715365,0.));
#336 = CARTESIAN_POINT('',(-63.90163499436,35.677168055921,0.));
#337 = CARTESIAN_POINT('',(-63.05422352512,36.66960802414,0.));
#338 = CARTESIAN_POINT('',(-62.09610492861,37.516433733724,0.));
#339 = CARTESIAN_POINT('',(-61.01515846599,38.227094034894,0.));
#340 = CARTESIAN_POINT('',(-59.8621512321,38.769392953748,0.));
#341 = CARTESIAN_POINT('',(-58.65153471637,39.142405551558,0.));
#342 = CARTESIAN_POINT('',(-57.41371725984,39.340069233002,0.));
#343 = CARTESIAN_POINT('',(-65.49412389246,27.040451366011,0.4));
#344 = CARTESIAN_POINT('',(-65.86230381589,28.293197640803,0.4));
#345 = CARTESIAN_POINT('',(-66.05348517556,29.598361429284,0.39999999883
    ));
#346 = CARTESIAN_POINT('',(-66.05869759529,30.929666564369,
    0.400000008098));
#347 = CARTESIAN_POINT('',(-65.87682007139,32.251065458091,
    0.399999971963));
#348 = CARTESIAN_POINT('',(-65.50529189785,33.556344150249,
    0.400000061313));
#349 = CARTESIAN_POINT('',(-64.95112831073,34.771055154207,
    0.399999909048));
#350 = CARTESIAN_POINT('',(-64.23942560119,35.926375040135,0.400000092)
  );
#351 = CARTESIAN_POINT('',(-63.35018577795,36.948288013137,
    0.399999938624));
#352 = CARTESIAN_POINT('',(-62.35470429101,37.837808071533,
    0.400000024798));
#353 = CARTESIAN_POINT('',(-61.22837107529,38.575064863696,
    0.399999994436));
#354 = CARTESIAN_POINT('',(-60.02719057647,39.140672539531,0.40000000037
    ));
#355 = CARTESIAN_POINT('',(-58.76618624453,39.529165062722,0.4));
#356 = CARTESIAN_POINT('',(-57.47679301098,39.735064738823,0.4));
#357 = ADVANCED_FACE('',(#358),#377,.T.);
#358 = FACE_BOUND('',#359,.F.);
#359 = EDGE_LOOP('',(#360,#361,#362,#370));
#360 = ORIENTED_EDGE('',*,*,#280,.F.);
#361 = ORIENTED_EDGE('',*,*,#92,.T.);
#362 = ORIENTED_EDGE('',*,*,#363,.T.);
#363 = EDGE_CURVE('',#81,#364,#366,.T.);
#364 = VERTEX_POINT('',#365);
#365 = CARTESIAN_POINT('',(-29.81034819429,-17.28448235672,0.4));
#366 = LINE('',#367,#368);
#367 = CARTESIAN_POINT('',(-29.81034819429,-17.28448235672,0.4));
#368 = VECTOR('',#369,1.);
#369 = DIRECTION('',(-7.445846450091E-02,-0.70317560898,0.707106781187)
  );
#370 = ORIENTED_EDGE('',*,*,#371,.F.);
#371 = EDGE_CURVE('',#281,#364,#372,.T.);
#372 = CIRCLE('',#373,500.17);
#373 = AXIS2_PLACEMENT_3D('',#374,#375,#376);
#374 = CARTESIAN_POINT('',(22.857638,480.104814,0.4));
#375 = DIRECTION('',(0.,-0.,-1.));
#376 = DIRECTION('',(4.654056620749E-02,-0.998916400755,0.));
#377 = CONICAL_SURFACE('',#378,500.17,0.785398163397);
#378 = AXIS2_PLACEMENT_3D('',#379,#380,#381);
#379 = CARTESIAN_POINT('',(22.857638,480.104814,0.4));
#380 = DIRECTION('',(0.,0.,1.));
#381 = DIRECTION('',(4.654056620749E-02,-0.998916400755,0.));
#382 = ADVANCED_FACE('',(#383),#401,.T.);
#383 = FACE_BOUND('',#384,.F.);
#384 = EDGE_LOOP('',(#385,#392,#393,#394));
#385 = ORIENTED_EDGE('',*,*,#386,.F.);
#386 = EDGE_CURVE('',#72,#387,#389,.T.);
#387 = VERTEX_POINT('',#388);
#388 = CARTESIAN_POINT('',(-48.51962884724,-6.697882032733,0.4));
#389 = B_SPLINE_CURVE_WITH_KNOTS('',1,(#390,#391),.UNSPECIFIED.,.F.,.F.,
  (2,2),(0.,22.109382639656),.PIECEWISE_BEZIER_KNOTS.);
#390 = CARTESIAN_POINT('',(-48.20033425091,-6.456944362872,0.));
#391 = CARTESIAN_POINT('',(-48.51962884724,-6.697882032733,0.4));
#392 = ORIENTED_EDGE('',*,*,#71,.T.);
#393 = ORIENTED_EDGE('',*,*,#302,.T.);
#394 = ORIENTED_EDGE('',*,*,#395,.F.);
#395 = EDGE_CURVE('',#387,#303,#396,.T.);
#396 = CIRCLE('',#397,105.31);
#397 = AXIS2_PLACEMENT_3D('',#398,#399,#400);
#398 = CARTESIAN_POINT('',(35.542656,56.734983,0.4));
#399 = DIRECTION('',(-0.,0.,-1.));
#400 = DIRECTION('',(-0.79823649081,-0.602344174653,0.));
#401 = CONICAL_SURFACE('',#402,105.31,0.785398163397);
#402 = AXIS2_PLACEMENT_3D('',#403,#404,#405);
#403 = CARTESIAN_POINT('',(35.542656,56.734983,0.4));
#404 = DIRECTION('',(0.,0.,1.));
#405 = DIRECTION('',(-0.79823649081,-0.602344174653,0.));
#406 = ADVANCED_FACE('',(#407),#422,.T.);
#407 = FACE_BOUND('',#408,.T.);
#408 = EDGE_LOOP('',(#409,#410,#420,#421));
#409 = ORIENTED_EDGE('',*,*,#363,.T.);
#410 = ORIENTED_EDGE('',*,*,#411,.T.);
#411 = EDGE_CURVE('',#364,#387,#412,.T.);
#412 = B_SPLINE_CURVE_WITH_KNOTS('',6,(#413,#414,#415,#416,#417,#418,
    #419),.UNSPECIFIED.,.F.,.F.,(7,7),(119.1787690843,141.28815172396),
  .PIECEWISE_BEZIER_KNOTS.);
#413 = CARTESIAN_POINT('',(-29.81034819429,-17.28448235672,0.4));
#414 = CARTESIAN_POINT('',(-33.47453897582,-16.89648536742,0.4));
#415 = CARTESIAN_POINT('',(-37.07544581841,-15.9084149658,0.400000000014
    ));
#416 = CARTESIAN_POINT('',(-40.49021918958,-14.33301797202,
    0.399999999971));
#417 = CARTESIAN_POINT('',(-43.59888632079,-12.21713323107,
    0.399999999974));
#418 = CARTESIAN_POINT('',(-46.30018584492,-9.639124711374,0.4));
#419 = CARTESIAN_POINT('',(-48.51962884724,-6.697882032733,0.4));
#420 = ORIENTED_EDGE('',*,*,#386,.F.);
#421 = ORIENTED_EDGE('',*,*,#80,.F.);
#422 = B_SPLINE_SURFACE_WITH_KNOTS('',1,6,(
    (#423,#424,#425,#426,#427,#428,#429)
    ,(#430,#431,#432,#433,#434,#435,#436
    )),.UNSPECIFIED.,.F.,.F.,.F.,(2,2),(7,7),(0.,22.109382639656),(
    119.1787690843,141.28815172396),.PIECEWISE_BEZIER_KNOTS.);
#423 = CARTESIAN_POINT('',(-29.76822812615,-16.88670616354,0.));
#424 = CARTESIAN_POINT('',(-33.37813429511,-16.50445731005,0.));
#425 = CARTESIAN_POINT('',(-36.92568846923,-15.53100796754,0.));
#426 = CARTESIAN_POINT('',(-40.2898971129,-13.9790070772,0.));
#427 = CARTESIAN_POINT('',(-43.35248002665,-11.89440368232,0.));
#428 = CARTESIAN_POINT('',(-46.01377020538,-9.354615302651,0.));
#429 = CARTESIAN_POINT('',(-48.20033425091,-6.456944362872,0.));
#430 = CARTESIAN_POINT('',(-29.81034819429,-17.28448235672,0.4));
#431 = CARTESIAN_POINT('',(-33.47453897582,-16.89648536742,0.4));
#432 = CARTESIAN_POINT('',(-37.07544581841,-15.9084149658,0.400000000014
    ));
#433 = CARTESIAN_POINT('',(-40.49021918958,-14.33301797202,
    0.399999999971));
#434 = CARTESIAN_POINT('',(-43.59888632079,-12.21713323107,
    0.399999999974));
#435 = CARTESIAN_POINT('',(-46.30018584492,-9.639124711374,0.4));
#436 = CARTESIAN_POINT('',(-48.51962884724,-6.697882032733,0.4));
#437 = ADVANCED_FACE('',(#438),#464,.F.);
#438 = FACE_BOUND('',#439,.F.);
#439 = EDGE_LOOP('',(#440,#448,#449,#457));
#440 = ORIENTED_EDGE('',*,*,#441,.F.);
#441 = EDGE_CURVE('',#119,#442,#444,.T.);
#442 = VERTEX_POINT('',#443);
#443 = CARTESIAN_POINT('',(4.,4.901927896526E-16,0.4));
#444 = LINE('',#445,#446);
#445 = CARTESIAN_POINT('',(4.,4.901927896526E-16,0.4));
#446 = VECTOR('',#447,1.);
#447 = DIRECTION('',(-0.707106781187,-8.665466141303E-17,0.707106781187)
  );
#448 = ORIENTED_EDGE('',*,*,#118,.T.);
#449 = ORIENTED_EDGE('',*,*,#450,.T.);
#450 = EDGE_CURVE('',#121,#451,#453,.T.);
#451 = VERTEX_POINT('',#452);
#452 = CARTESIAN_POINT('',(-4.,-3.340699936993E-19,0.4));
#453 = LINE('',#454,#455);
#454 = CARTESIAN_POINT('',(-4.,-3.340699936993E-19,0.4));
#455 = VECTOR('',#456,1.);
#456 = DIRECTION('',(0.707106781187,5.905578948393E-20,0.707106781187));
#457 = ORIENTED_EDGE('',*,*,#458,.F.);
#458 = EDGE_CURVE('',#442,#451,#459,.T.);
#459 = CIRCLE('',#460,4.);
#460 = AXIS2_PLACEMENT_3D('',#461,#462,#463);
#461 = CARTESIAN_POINT('',(0.,0.,0.4));
#462 = DIRECTION('',(0.,-0.,1.));
#463 = DIRECTION('',(1.,1.225481974132E-16,0.));
#464 = CONICAL_SURFACE('',#465,4.,0.785398163397);
#465 = AXIS2_PLACEMENT_3D('',#466,#467,#468);
#466 = CARTESIAN_POINT('',(0.,0.,0.4));
#467 = DIRECTION('',(-0.,-0.,-1.));
#468 = DIRECTION('',(1.,1.225481974132E-16,0.));
#469 = ADVANCED_FACE('',(#470),#488,.F.);
#470 = FACE_BOUND('',#471,.F.);
#471 = EDGE_LOOP('',(#472,#480,#481,#482));
#472 = ORIENTED_EDGE('',*,*,#473,.F.);
#473 = EDGE_CURVE('',#130,#474,#476,.T.);
#474 = VERTEX_POINT('',#475);
#475 = CARTESIAN_POINT('',(4.,-9.5,0.4));
#476 = LINE('',#477,#478);
#477 = CARTESIAN_POINT('',(4.,-9.5,0.4));
#478 = VECTOR('',#479,1.);
#479 = DIRECTION('',(-0.707106781187,-5.4144137785E-16,0.707106781187));
#480 = ORIENTED_EDGE('',*,*,#129,.T.);
#481 = ORIENTED_EDGE('',*,*,#441,.T.);
#482 = ORIENTED_EDGE('',*,*,#483,.F.);
#483 = EDGE_CURVE('',#474,#442,#484,.T.);
#484 = LINE('',#485,#486);
#485 = CARTESIAN_POINT('',(4.000000000001,-9.5,0.4));
#486 = VECTOR('',#487,1.);
#487 = DIRECTION('',(0.,1.,0.));
#488 = PLANE('',#489);
#489 = AXIS2_PLACEMENT_3D('',#490,#491,#492);
#490 = CARTESIAN_POINT('',(4.200000000001,-9.5,0.2));
#491 = DIRECTION('',(0.707106781187,0.,0.707106781187));
#492 = DIRECTION('',(0.,1.,0.));
#493 = ADVANCED_FACE('',(#494),#512,.T.);
#494 = FACE_BOUND('',#495,.F.);
#495 = EDGE_LOOP('',(#496,#497,#498,#506));
#496 = ORIENTED_EDGE('',*,*,#450,.F.);
#497 = ORIENTED_EDGE('',*,*,#146,.T.);
#498 = ORIENTED_EDGE('',*,*,#499,.T.);
#499 = EDGE_CURVE('',#138,#500,#502,.T.);
#500 = VERTEX_POINT('',#501);
#501 = CARTESIAN_POINT('',(-4.,-9.5,0.4));
#502 = LINE('',#503,#504);
#503 = CARTESIAN_POINT('',(-4.2,-9.5,0.2));
#504 = VECTOR('',#505,1.);
#505 = DIRECTION('',(0.707106781187,0.,0.707106781187));
#506 = ORIENTED_EDGE('',*,*,#507,.F.);
#507 = EDGE_CURVE('',#451,#500,#508,.T.);
#508 = LINE('',#509,#510);
#509 = CARTESIAN_POINT('',(-4.,8.881784197001E-16,0.4));
#510 = VECTOR('',#511,1.);
#511 = DIRECTION('',(0.,-1.,0.));
#512 = PLANE('',#513);
#513 = AXIS2_PLACEMENT_3D('',#514,#515,#516);
#514 = CARTESIAN_POINT('',(-4.2,8.881784197001E-16,0.2));
#515 = DIRECTION('',(0.707106781187,-3.474993633276E-18,-0.707106781187)
  );
#516 = DIRECTION('',(2.457191562669E-18,1.,-2.457191562669E-18));
#517 = ADVANCED_FACE('',(#518),#530,.F.);
#518 = FACE_BOUND('',#519,.F.);
#519 = EDGE_LOOP('',(#520,#521,#522,#523));
#520 = ORIENTED_EDGE('',*,*,#499,.F.);
#521 = ORIENTED_EDGE('',*,*,#137,.T.);
#522 = ORIENTED_EDGE('',*,*,#473,.T.);
#523 = ORIENTED_EDGE('',*,*,#524,.F.);
#524 = EDGE_CURVE('',#500,#474,#525,.T.);
#525 = CIRCLE('',#526,4.);
#526 = AXIS2_PLACEMENT_3D('',#527,#528,#529);
#527 = CARTESIAN_POINT('',(0.,-9.5,0.4));
#528 = DIRECTION('',(0.,0.,1.));
#529 = DIRECTION('',(-1.,0.,0.));
#530 = CONICAL_SURFACE('',#531,4.,0.785398163397);
#531 = AXIS2_PLACEMENT_3D('',#532,#533,#534);
#532 = CARTESIAN_POINT('',(0.,-9.5,0.4));
#533 = DIRECTION('',(-0.,-0.,-1.));
#534 = DIRECTION('',(-1.,0.,0.));
#535 = ADVANCED_FACE('',(#536),#563,.T.);
#536 = FACE_BOUND('',#537,.T.);
#537 = EDGE_LOOP('',(#538,#546,#547,#557));
#538 = ORIENTED_EDGE('',*,*,#539,.F.);
#539 = EDGE_CURVE('',#170,#540,#542,.T.);
#540 = VERTEX_POINT('',#541);
#541 = CARTESIAN_POINT('',(59.970853160116,-4.632537008368,0.6));
#542 = LINE('',#543,#544);
#543 = CARTESIAN_POINT('',(59.970853160116,-4.632537008368,0.));
#544 = VECTOR('',#545,1.);
#545 = DIRECTION('',(0.,0.,1.));
#546 = ORIENTED_EDGE('',*,*,#177,.F.);
#547 = ORIENTED_EDGE('',*,*,#548,.T.);
#548 = EDGE_CURVE('',#161,#549,#551,.T.);
#549 = VERTEX_POINT('',#550);
#550 = CARTESIAN_POINT('',(53.696557631243,12.845878829013,0.6));
#551 = B_SPLINE_CURVE_WITH_KNOTS('',2,(#552,#553,#554,#555,#556),
  .UNSPECIFIED.,.F.,.F.,(3,1,1,3),(-6.120000000004E-02,
    -3.978984737379E-14,1.,1.0612),.UNSPECIFIED.);
#552 = CARTESIAN_POINT('',(53.696557631243,12.845878829013,
    -6.120000000007E-02));
#553 = CARTESIAN_POINT('',(53.696557631243,12.845878829013,
    -3.060000000007E-02));
#554 = CARTESIAN_POINT('',(53.696557631243,12.845878829013,0.5));
#555 = CARTESIAN_POINT('',(53.696557631243,12.845878829013,1.0306));
#556 = CARTESIAN_POINT('',(53.696557631243,12.845878829013,1.0612));
#557 = ORIENTED_EDGE('',*,*,#558,.T.);
#558 = EDGE_CURVE('',#549,#540,#559,.T.);
#559 = LINE('',#560,#561);
#560 = CARTESIAN_POINT('',(53.696557631243,12.845878829013,0.6));
#561 = VECTOR('',#562,1.);
#562 = DIRECTION('',(0.337864391442,-0.94119480077,0.));
#563 = PLANE('',#564);
#564 = AXIS2_PLACEMENT_3D('',#565,#566,#567);
#565 = CARTESIAN_POINT('',(56.101240888617,6.147110220466,0.5));
#566 = DIRECTION('',(0.94119480077,0.337864391442,0.));
#567 = DIRECTION('',(-0.337864391442,0.94119480077,0.));
#568 = ADVANCED_FACE('',(#569),#593,.F.);
#569 = FACE_BOUND('',#570,.F.);
#570 = EDGE_LOOP('',(#571,#581,#582,#583));
#571 = ORIENTED_EDGE('',*,*,#572,.F.);
#572 = EDGE_CURVE('',#192,#573,#575,.T.);
#573 = VERTEX_POINT('',#574);
#574 = CARTESIAN_POINT('',(27.63959774232,36.291180813926,0.6));
#575 = B_SPLINE_CURVE_WITH_KNOTS('',2,(#576,#577,#578,#579,#580),
  .UNSPECIFIED.,.F.,.F.,(3,1,1,3),(-6.120000000004E-02,
    -3.978984737379E-14,1.,1.0612),.UNSPECIFIED.);
#576 = CARTESIAN_POINT('',(27.63959774232,36.291180813926,
    -6.119999999995E-02));
#577 = CARTESIAN_POINT('',(27.63959774232,36.291180813926,
    -3.059999999995E-02));
#578 = CARTESIAN_POINT('',(27.63959774232,36.291180813926,0.5));
#579 = CARTESIAN_POINT('',(27.63959774232,36.291180813926,1.0306));
#580 = CARTESIAN_POINT('',(27.63959774232,36.291180813926,1.0612));
#581 = ORIENTED_EDGE('',*,*,#199,.T.);
#582 = ORIENTED_EDGE('',*,*,#548,.T.);
#583 = ORIENTED_EDGE('',*,*,#584,.F.);
#584 = EDGE_CURVE('',#573,#549,#585,.T.);
#585 = B_SPLINE_CURVE_WITH_KNOTS('',6,(#586,#587,#588,#589,#590,#591,
    #592),.UNSPECIFIED.,.F.,.F.,(7,7),(281.99400239571,318.51009561345),
  .PIECEWISE_BEZIER_KNOTS.);
#586 = CARTESIAN_POINT('',(27.63959774232,36.291180813926,0.6));
#587 = CARTESIAN_POINT('',(33.552087718315,34.849132904276,0.6));
#588 = CARTESIAN_POINT('',(39.180214342232,32.240031674319,
    0.600000000001));
#589 = CARTESIAN_POINT('',(44.235934230404,28.533867194853,
    0.599999999995));
#590 = CARTESIAN_POINT('',(48.453603499193,23.896076036124,
    0.600000000011));
#591 = CARTESIAN_POINT('',(51.640380345713,18.573808198373,0.6));
#592 = CARTESIAN_POINT('',(53.696557631243,12.845878829013,0.6));
#593 = ( BOUNDED_SURFACE() B_SPLINE_SURFACE(2,2,(
    (#594,#595,#596,#597,#598)
    ,(#599,#600,#601,#602,#603)
    ,(#604,#605,#606,#607,#608
)),.UNSPECIFIED.,.F.,.F.,.F.) B_SPLINE_SURFACE_WITH_KNOTS((3,3),(3,1,1,3
    ),(0.,1.),(-6.120000000004E-02,-3.978984737379E-14,1.,1.0612),
.UNSPECIFIED.) GEOMETRIC_REPRESENTATION_ITEM() RATIONAL_B_SPLINE_SURFACE
((
    (1.,1.,1.,1.,1.)
    ,(0.880698874175,0.880698874175,0.880698874175,0.880698874175
      ,0.880698874175)
,(1.,1.,1.,1.,1.))) REPRESENTATION_ITEM('') SURFACE() );
#594 = CARTESIAN_POINT('',(27.63959774232,36.291180813926,
    -6.119999999995E-02));
#595 = CARTESIAN_POINT('',(27.63959774232,36.291180813926,
    -3.059999999995E-02));
#596 = CARTESIAN_POINT('',(27.63959774232,36.291180813926,0.5));
#597 = CARTESIAN_POINT('',(27.63959774232,36.291180813926,1.0306));
#598 = CARTESIAN_POINT('',(27.63959774232,36.291180813926,1.0612));
#599 = CARTESIAN_POINT('',(46.973008097146,31.575789481039,
    -6.120000000004E-02));
#600 = CARTESIAN_POINT('',(46.973008097146,31.575789481039,
    -3.060000000004E-02));
#601 = CARTESIAN_POINT('',(46.973008097146,31.575789481039,0.5));
#602 = CARTESIAN_POINT('',(46.973008097146,31.575789481039,1.0306));
#603 = CARTESIAN_POINT('',(46.973008097146,31.575789481039,1.0612));
#604 = CARTESIAN_POINT('',(53.696557631243,12.845878829013,
    -6.120000000007E-02));
#605 = CARTESIAN_POINT('',(53.696557631243,12.845878829013,
    -3.060000000007E-02));
#606 = CARTESIAN_POINT('',(53.696557631243,12.845878829013,0.5));
#607 = CARTESIAN_POINT('',(53.696557631243,12.845878829013,1.0306));
#608 = CARTESIAN_POINT('',(53.696557631243,12.845878829013,1.0612));
#609 = ADVANCED_FACE('',(#610),#629,.T.);
#610 = FACE_BOUND('',#611,.F.);
#611 = EDGE_LOOP('',(#612,#613,#614,#622));
#612 = ORIENTED_EDGE('',*,*,#539,.F.);
#613 = ORIENTED_EDGE('',*,*,#239,.T.);
#614 = ORIENTED_EDGE('',*,*,#615,.T.);
#615 = EDGE_CURVE('',#232,#616,#618,.T.);
#616 = VERTEX_POINT('',#617);
#617 = CARTESIAN_POINT('',(50.129656579934,-19.33712572253,0.6));
#618 = LINE('',#619,#620);
#619 = CARTESIAN_POINT('',(50.129656579934,-19.33712572253,0.));
#620 = VECTOR('',#621,1.);
#621 = DIRECTION('',(0.,0.,1.));
#622 = ORIENTED_EDGE('',*,*,#623,.F.);
#623 = EDGE_CURVE('',#540,#616,#624,.T.);
#624 = CIRCLE('',#625,11.);
#625 = AXIS2_PLACEMENT_3D('',#626,#627,#628);
#626 = CARTESIAN_POINT('',(49.617710351651,-8.349045314229,0.6));
#627 = DIRECTION('',(0.,0.,-1.));
#628 = DIRECTION('',(0.94119480077,0.337864391442,0.));
#629 = CYLINDRICAL_SURFACE('',#630,11.);
#630 = AXIS2_PLACEMENT_3D('',#631,#632,#633);
#631 = CARTESIAN_POINT('',(49.617710351651,-8.349045314229,0.));
#632 = DIRECTION('',(0.,0.,1.));
#633 = DIRECTION('',(0.94119480077,0.337864391442,0.));
#634 = ADVANCED_FACE('',(#635),#656,.T.);
#635 = FACE_BOUND('',#636,.F.);
#636 = EDGE_LOOP('',(#637,#638,#647,#655));
#637 = ORIENTED_EDGE('',*,*,#572,.T.);
#638 = ORIENTED_EDGE('',*,*,#639,.F.);
#639 = EDGE_CURVE('',#640,#573,#642,.T.);
#640 = VERTEX_POINT('',#641);
#641 = CARTESIAN_POINT('',(-57.47679301098,39.735064738823,0.6));
#642 = CIRCLE('',#643,215.68);
#643 = AXIS2_PLACEMENT_3D('',#644,#645,#646);
#644 = CARTESIAN_POINT('',(-23.466348,-173.246512,0.6));
#645 = DIRECTION('',(0.,0.,-1.));
#646 = DIRECTION('',(-0.157689377833,0.987488764553,0.));
#647 = ORIENTED_EDGE('',*,*,#648,.F.);
#648 = EDGE_CURVE('',#255,#640,#649,.T.);
#649 = B_SPLINE_CURVE_WITH_KNOTS('',2,(#650,#651,#652,#653,#654),
  .UNSPECIFIED.,.F.,.F.,(3,1,1,3),(-6.119999999999E-02,
    -9.358589207406E-15,1.,1.0612),.UNSPECIFIED.);
#650 = CARTESIAN_POINT('',(-57.47679301098,39.735064738823,
    -6.120000000003E-02));
#651 = CARTESIAN_POINT('',(-57.47679301098,39.735064738823,
    -3.060000000003E-02));
#652 = CARTESIAN_POINT('',(-57.47679301098,39.735064738823,0.5));
#653 = CARTESIAN_POINT('',(-57.47679301098,39.735064738823,1.0306));
#654 = CARTESIAN_POINT('',(-57.47679301098,39.735064738823,1.0612));
#655 = ORIENTED_EDGE('',*,*,#263,.T.);
#656 = CYLINDRICAL_SURFACE('',#657,215.68);
#657 = AXIS2_PLACEMENT_3D('',#658,#659,#660);
#658 = CARTESIAN_POINT('',(-23.466348,-173.246512,0.));
#659 = DIRECTION('',(-0.,-0.,-1.));
#660 = DIRECTION('',(1.,0.,0.));
#661 = ADVANCED_FACE('',(#662),#680,.F.);
#662 = FACE_BOUND('',#663,.F.);
#663 = EDGE_LOOP('',(#664,#665,#666,#674));
#664 = ORIENTED_EDGE('',*,*,#615,.F.);
#665 = ORIENTED_EDGE('',*,*,#288,.T.);
#666 = ORIENTED_EDGE('',*,*,#667,.T.);
#667 = EDGE_CURVE('',#281,#668,#670,.T.);
#668 = VERTEX_POINT('',#669);
#669 = CARTESIAN_POINT('',(46.135833,-19.52320216556,0.6));
#670 = LINE('',#671,#672);
#671 = CARTESIAN_POINT('',(46.135833,-19.52320216556,0.));
#672 = VECTOR('',#673,1.);
#673 = DIRECTION('',(0.,0.,1.));
#674 = ORIENTED_EDGE('',*,*,#675,.F.);
#675 = EDGE_CURVE('',#616,#668,#676,.T.);
#676 = LINE('',#677,#678);
#677 = CARTESIAN_POINT('',(50.129656579934,-19.33712572253,0.6));
#678 = VECTOR('',#679,1.);
#679 = DIRECTION('',(-0.998916400755,-4.654056620749E-02,-0.));
#680 = PLANE('',#681);
#681 = AXIS2_PLACEMENT_3D('',#682,#683,#684);
#682 = CARTESIAN_POINT('',(46.135833,-19.52320216556,0.));
#683 = DIRECTION('',(-4.654056620749E-02,0.998916400755,0.));
#684 = DIRECTION('',(0.998916400755,4.654056620749E-02,0.));
#685 = ADVANCED_FACE('',(#686),#717,.T.);
#686 = FACE_BOUND('',#687,.T.);
#687 = EDGE_LOOP('',(#688,#689,#690,#700));
#688 = ORIENTED_EDGE('',*,*,#648,.F.);
#689 = ORIENTED_EDGE('',*,*,#310,.F.);
#690 = ORIENTED_EDGE('',*,*,#691,.T.);
#691 = EDGE_CURVE('',#303,#692,#694,.T.);
#692 = VERTEX_POINT('',#693);
#693 = CARTESIAN_POINT('',(-65.49412389246,27.040451366011,0.6));
#694 = B_SPLINE_CURVE_WITH_KNOTS('',2,(#695,#696,#697,#698,#699),
  .UNSPECIFIED.,.F.,.F.,(3,1,1,3),(-6.119999999999E-02,
    -9.358589207406E-15,1.,1.0612),.UNSPECIFIED.);
#695 = CARTESIAN_POINT('',(-65.49412389246,27.040451366011,
    -6.120000000002E-02));
#696 = CARTESIAN_POINT('',(-65.49412389246,27.040451366011,
    -3.060000000001E-02));
#697 = CARTESIAN_POINT('',(-65.49412389246,27.040451366011,0.5));
#698 = CARTESIAN_POINT('',(-65.49412389246,27.040451366011,1.0306));
#699 = CARTESIAN_POINT('',(-65.49412389246,27.040451366011,1.0612));
#700 = ORIENTED_EDGE('',*,*,#701,.T.);
#701 = EDGE_CURVE('',#692,#640,#702,.T.);
#702 = B_SPLINE_CURVE_WITH_KNOTS('',13,(#703,#704,#705,#706,#707,#708,
    #709,#710,#711,#712,#713,#714,#715,#716),.UNSPECIFIED.,.F.,.F.,(14,
    14),(179.26136526,196.24432026407),.PIECEWISE_BEZIER_KNOTS.);
#703 = CARTESIAN_POINT('',(-65.49412389246,27.040451366011,0.6));
#704 = CARTESIAN_POINT('',(-65.8623038159,28.293197640801,0.6));
#705 = CARTESIAN_POINT('',(-66.05348517552,29.598361429295,
    0.600000001171));
#706 = CARTESIAN_POINT('',(-66.05869759539,30.929666564339,0.5999999919)
  );
#707 = CARTESIAN_POINT('',(-65.87682007119,32.251065458152,0.60000002804
    ));
#708 = CARTESIAN_POINT('',(-65.50529189815,33.556344150151,
    0.599999938682));
#709 = CARTESIAN_POINT('',(-64.95112831037,34.77105515433,0.600000090958
    ));
#710 = CARTESIAN_POINT('',(-64.23942560155,35.926375040008,
    0.599999907994));
#711 = CARTESIAN_POINT('',(-63.35018577768,36.948288013239,
    0.600000061381));
#712 = CARTESIAN_POINT('',(-62.35470429117,37.837808071467,0.5999999752)
  );
#713 = CARTESIAN_POINT('',(-61.22837107521,38.575064863728,
    0.600000005566));
#714 = CARTESIAN_POINT('',(-60.0271905765,39.140672539518,0.59999999963)
  );
#715 = CARTESIAN_POINT('',(-58.76618624453,39.529165062725,0.6));
#716 = CARTESIAN_POINT('',(-57.47679301098,39.735064738823,0.6));
#717 = ( BOUNDED_SURFACE() B_SPLINE_SURFACE(2,2,(
    (#718,#719,#720,#721,#722)
    ,(#723,#724,#725,#726,#727)
    ,(#728,#729,#730,#731,#732
)),.UNSPECIFIED.,.F.,.F.,.F.) B_SPLINE_SURFACE_WITH_KNOTS((3,3),(3,1,1,3
    ),(0.,1.),(-6.119999999999E-02,-9.358589207406E-15,1.,1.0612),
.UNSPECIFIED.) GEOMETRIC_REPRESENTATION_ITEM() RATIONAL_B_SPLINE_SURFACE
((
    (1.,1.,1.,1.,1.)
    ,(0.660623184674,0.660623184674,0.660623184674,0.660623184674
      ,0.660623184674)
,(1.,1.,1.,1.,1.))) REPRESENTATION_ITEM('') SURFACE() );
#718 = CARTESIAN_POINT('',(-57.47679301098,39.735064738823,
    -6.120000000003E-02));
#719 = CARTESIAN_POINT('',(-57.47679301098,39.735064738823,
    -3.060000000003E-02));
#720 = CARTESIAN_POINT('',(-57.47679301098,39.735064738823,0.5));
#721 = CARTESIAN_POINT('',(-57.47679301098,39.735064738823,1.0306));
#722 = CARTESIAN_POINT('',(-57.47679301098,39.735064738823,1.0612));
#723 = CARTESIAN_POINT('',(-68.6983982114,37.943117320422,
    -6.120000000001E-02));
#724 = CARTESIAN_POINT('',(-68.6983982114,37.943117320422,-3.06E-02));
#725 = CARTESIAN_POINT('',(-68.6983982114,37.943117320422,0.5));
#726 = CARTESIAN_POINT('',(-68.6983982114,37.943117320422,1.0306));
#727 = CARTESIAN_POINT('',(-68.6983982114,37.943117320422,1.0612));
#728 = CARTESIAN_POINT('',(-65.49412389246,27.040451366011,
    -6.120000000002E-02));
#729 = CARTESIAN_POINT('',(-65.49412389246,27.040451366011,
    -3.060000000001E-02));
#730 = CARTESIAN_POINT('',(-65.49412389246,27.040451366011,0.5));
#731 = CARTESIAN_POINT('',(-65.49412389246,27.040451366011,1.0306));
#732 = CARTESIAN_POINT('',(-65.49412389246,27.040451366011,1.0612));
#733 = ADVANCED_FACE('',(#734),#755,.T.);
#734 = FACE_BOUND('',#735,.F.);
#735 = EDGE_LOOP('',(#736,#746,#753,#754));
#736 = ORIENTED_EDGE('',*,*,#737,.T.);
#737 = EDGE_CURVE('',#364,#738,#740,.T.);
#738 = VERTEX_POINT('',#739);
#739 = CARTESIAN_POINT('',(-29.81034819429,-17.28448235672,0.6));
#740 = B_SPLINE_CURVE_WITH_KNOTS('',2,(#741,#742,#743,#744,#745),
  .UNSPECIFIED.,.F.,.F.,(3,1,1,3),(-6.120000000001E-02,
    -1.23744113055E-14,1.,1.0612),.UNSPECIFIED.);
#741 = CARTESIAN_POINT('',(-29.81034819429,-17.28448235672,
    -6.119999999992E-02));
#742 = CARTESIAN_POINT('',(-29.81034819429,-17.28448235672,
    -3.059999999992E-02));
#743 = CARTESIAN_POINT('',(-29.81034819429,-17.28448235672,0.5));
#744 = CARTESIAN_POINT('',(-29.81034819429,-17.28448235672,1.0306));
#745 = CARTESIAN_POINT('',(-29.81034819429,-17.28448235672,1.0612));
#746 = ORIENTED_EDGE('',*,*,#747,.F.);
#747 = EDGE_CURVE('',#668,#738,#748,.T.);
#748 = CIRCLE('',#749,500.17);
#749 = AXIS2_PLACEMENT_3D('',#750,#751,#752);
#750 = CARTESIAN_POINT('',(22.857638,480.104814,0.6));
#751 = DIRECTION('',(0.,-0.,-1.));
#752 = DIRECTION('',(4.654056620749E-02,-0.998916400755,0.));
#753 = ORIENTED_EDGE('',*,*,#667,.F.);
#754 = ORIENTED_EDGE('',*,*,#371,.T.);
#755 = CYLINDRICAL_SURFACE('',#756,500.17);
#756 = AXIS2_PLACEMENT_3D('',#757,#758,#759);
#757 = CARTESIAN_POINT('',(22.857638,480.104814,0.));
#758 = DIRECTION('',(-0.,-0.,-1.));
#759 = DIRECTION('',(1.,0.,0.));
#760 = ADVANCED_FACE('',(#761),#782,.T.);
#761 = FACE_BOUND('',#762,.F.);
#762 = EDGE_LOOP('',(#763,#773,#774,#775));
#763 = ORIENTED_EDGE('',*,*,#764,.F.);
#764 = EDGE_CURVE('',#387,#765,#767,.T.);
#765 = VERTEX_POINT('',#766);
#766 = CARTESIAN_POINT('',(-48.51962884724,-6.697882032733,0.6));
#767 = B_SPLINE_CURVE_WITH_KNOTS('',2,(#768,#769,#770,#771,#772),
  .UNSPECIFIED.,.F.,.F.,(3,1,1,3),(-6.120000000001E-02,
    -1.23744113055E-14,1.,1.0612),.UNSPECIFIED.);
#768 = CARTESIAN_POINT('',(-48.51962884724,-6.697882032733,
    -6.120000000008E-02));
#769 = CARTESIAN_POINT('',(-48.51962884724,-6.697882032733,
    -3.060000000008E-02));
#770 = CARTESIAN_POINT('',(-48.51962884724,-6.697882032733,0.5));
#771 = CARTESIAN_POINT('',(-48.51962884724,-6.697882032733,1.0306));
#772 = CARTESIAN_POINT('',(-48.51962884724,-6.697882032733,1.0612));
#773 = ORIENTED_EDGE('',*,*,#395,.T.);
#774 = ORIENTED_EDGE('',*,*,#691,.T.);
#775 = ORIENTED_EDGE('',*,*,#776,.F.);
#776 = EDGE_CURVE('',#765,#692,#777,.T.);
#777 = CIRCLE('',#778,105.31);
#778 = AXIS2_PLACEMENT_3D('',#779,#780,#781);
#779 = CARTESIAN_POINT('',(35.542656,56.734983,0.6));
#780 = DIRECTION('',(-0.,0.,-1.));
#781 = DIRECTION('',(-0.79823649081,-0.602344174653,0.));
#782 = CYLINDRICAL_SURFACE('',#783,105.31);
#783 = AXIS2_PLACEMENT_3D('',#784,#785,#786);
#784 = CARTESIAN_POINT('',(35.542656,56.734983,0.));
#785 = DIRECTION('',(-0.,-0.,-1.));
#786 = DIRECTION('',(1.,0.,0.));
#787 = ADVANCED_FACE('',(#788),#803,.T.);
#788 = FACE_BOUND('',#789,.T.);
#789 = EDGE_LOOP('',(#790,#791,#792,#793));
#790 = ORIENTED_EDGE('',*,*,#764,.F.);
#791 = ORIENTED_EDGE('',*,*,#411,.F.);
#792 = ORIENTED_EDGE('',*,*,#737,.T.);
#793 = ORIENTED_EDGE('',*,*,#794,.T.);
#794 = EDGE_CURVE('',#738,#765,#795,.T.);
#795 = B_SPLINE_CURVE_WITH_KNOTS('',6,(#796,#797,#798,#799,#800,#801,
    #802),.UNSPECIFIED.,.F.,.F.,(7,7),(119.1787690843,141.28815172396),
  .PIECEWISE_BEZIER_KNOTS.);
#796 = CARTESIAN_POINT('',(-29.81034819429,-17.28448235672,0.6));
#797 = CARTESIAN_POINT('',(-33.47453897582,-16.89648536742,0.6));
#798 = CARTESIAN_POINT('',(-37.07544581841,-15.9084149658,0.599999999986
    ));
#799 = CARTESIAN_POINT('',(-40.49021918958,-14.33301797202,
    0.600000000029));
#800 = CARTESIAN_POINT('',(-43.59888632079,-12.21713323107,
    0.600000000026));
#801 = CARTESIAN_POINT('',(-46.30018584492,-9.639124711374,0.6));
#802 = CARTESIAN_POINT('',(-48.51962884724,-6.697882032733,0.6));
#803 = ( BOUNDED_SURFACE() B_SPLINE_SURFACE(2,2,(
    (#804,#805,#806,#807,#808)
    ,(#809,#810,#811,#812,#813)
    ,(#814,#815,#816,#817,#818
)),.UNSPECIFIED.,.F.,.F.,.F.) B_SPLINE_SURFACE_WITH_KNOTS((3,3),(3,1,1,3
    ),(0.,1.),(-6.120000000001E-02,-1.23744113055E-14,1.,1.0612),
.UNSPECIFIED.) GEOMETRIC_REPRESENTATION_ITEM() RATIONAL_B_SPLINE_SURFACE
((
    (1.,1.,1.,1.,1.)
    ,(0.917346682119,0.917346682119,0.917346682119,0.917346682119
      ,0.917346682119)
,(1.,1.,1.,1.,1.))) REPRESENTATION_ITEM('') SURFACE() );
#804 = CARTESIAN_POINT('',(-48.51962884724,-6.697882032733,
    -6.120000000008E-02));
#805 = CARTESIAN_POINT('',(-48.51962884724,-6.697882032733,
    -3.060000000008E-02));
#806 = CARTESIAN_POINT('',(-48.51962884724,-6.697882032733,0.5));
#807 = CARTESIAN_POINT('',(-48.51962884724,-6.697882032733,1.0306));
#808 = CARTESIAN_POINT('',(-48.51962884724,-6.697882032733,1.0612));
#809 = CARTESIAN_POINT('',(-41.46205464047,-16.05069642939,
    -6.120000000002E-02));
#810 = CARTESIAN_POINT('',(-41.46205464047,-16.05069642939,
    -3.060000000002E-02));
#811 = CARTESIAN_POINT('',(-41.46205464047,-16.05069642939,0.5));
#812 = CARTESIAN_POINT('',(-41.46205464047,-16.05069642939,1.0306));
#813 = CARTESIAN_POINT('',(-41.46205464047,-16.05069642939,1.0612));
#814 = CARTESIAN_POINT('',(-29.81034819429,-17.28448235672,
    -6.119999999992E-02));
#815 = CARTESIAN_POINT('',(-29.81034819429,-17.28448235672,
    -3.059999999992E-02));
#816 = CARTESIAN_POINT('',(-29.81034819429,-17.28448235672,0.5));
#817 = CARTESIAN_POINT('',(-29.81034819429,-17.28448235672,1.0306));
#818 = CARTESIAN_POINT('',(-29.81034819429,-17.28448235672,1.0612));
#819 = ADVANCED_FACE('',(#820),#846,.F.);
#820 = FACE_BOUND('',#821,.F.);
#821 = EDGE_LOOP('',(#822,#830,#839,#845));
#822 = ORIENTED_EDGE('',*,*,#823,.F.);
#823 = EDGE_CURVE('',#824,#451,#826,.T.);
#824 = VERTEX_POINT('',#825);
#825 = CARTESIAN_POINT('',(-4.,-3.340699936993E-19,0.6));
#826 = LINE('',#827,#828);
#827 = CARTESIAN_POINT('',(-4.,4.898587196589E-16,1.));
#828 = VECTOR('',#829,1.);
#829 = DIRECTION('',(-0.,-0.,-1.));
#830 = ORIENTED_EDGE('',*,*,#831,.F.);
#831 = EDGE_CURVE('',#832,#824,#834,.T.);
#832 = VERTEX_POINT('',#833);
#833 = CARTESIAN_POINT('',(4.,4.901927896526E-16,0.6));
#834 = CIRCLE('',#835,4.);
#835 = AXIS2_PLACEMENT_3D('',#836,#837,#838);
#836 = CARTESIAN_POINT('',(0.,0.,0.6));
#837 = DIRECTION('',(0.,-0.,1.));
#838 = DIRECTION('',(1.,1.225481974132E-16,0.));
#839 = ORIENTED_EDGE('',*,*,#840,.T.);
#840 = EDGE_CURVE('',#832,#442,#841,.T.);
#841 = LINE('',#842,#843);
#842 = CARTESIAN_POINT('',(4.,4.901927896526E-16,1.));
#843 = VECTOR('',#844,1.);
#844 = DIRECTION('',(-0.,-0.,-1.));
#845 = ORIENTED_EDGE('',*,*,#458,.T.);
#846 = CYLINDRICAL_SURFACE('',#847,4.);
#847 = AXIS2_PLACEMENT_3D('',#848,#849,#850);
#848 = CARTESIAN_POINT('',(5.048709793414E-29,0.,1.));
#849 = DIRECTION('',(0.,0.,1.));
#850 = DIRECTION('',(1.,0.,0.));
#851 = ADVANCED_FACE('',(#852),#870,.T.);
#852 = FACE_BOUND('',#853,.T.);
#853 = EDGE_LOOP('',(#854,#862,#868,#869));
#854 = ORIENTED_EDGE('',*,*,#855,.F.);
#855 = EDGE_CURVE('',#856,#474,#858,.T.);
#856 = VERTEX_POINT('',#857);
#857 = CARTESIAN_POINT('',(4.,-9.5,0.6));
#858 = LINE('',#859,#860);
#859 = CARTESIAN_POINT('',(4.,-9.5,1.));
#860 = VECTOR('',#861,1.);
#861 = DIRECTION('',(-0.,-0.,-1.));
#862 = ORIENTED_EDGE('',*,*,#863,.T.);
#863 = EDGE_CURVE('',#856,#832,#864,.T.);
#864 = LINE('',#865,#866);
#865 = CARTESIAN_POINT('',(4.000000000001,-9.5,0.6));
#866 = VECTOR('',#867,1.);
#867 = DIRECTION('',(0.,1.,0.));
#868 = ORIENTED_EDGE('',*,*,#840,.T.);
#869 = ORIENTED_EDGE('',*,*,#483,.F.);
#870 = PLANE('',#871);
#871 = AXIS2_PLACEMENT_3D('',#872,#873,#874);
#872 = CARTESIAN_POINT('',(4.000000000001,4.901927896526E-16,1.));
#873 = DIRECTION('',(-1.,0.,0.));
#874 = DIRECTION('',(0.,-1.,0.));
#875 = ADVANCED_FACE('',(#876),#894,.F.);
#876 = FACE_BOUND('',#877,.F.);
#877 = EDGE_LOOP('',(#878,#886,#892,#893));
#878 = ORIENTED_EDGE('',*,*,#879,.F.);
#879 = EDGE_CURVE('',#880,#500,#882,.T.);
#880 = VERTEX_POINT('',#881);
#881 = CARTESIAN_POINT('',(-4.,-9.5,0.6));
#882 = LINE('',#883,#884);
#883 = CARTESIAN_POINT('',(-4.,-9.5,1.));
#884 = VECTOR('',#885,1.);
#885 = DIRECTION('',(-0.,-0.,-1.));
#886 = ORIENTED_EDGE('',*,*,#887,.F.);
#887 = EDGE_CURVE('',#824,#880,#888,.T.);
#888 = LINE('',#889,#890);
#889 = CARTESIAN_POINT('',(-4.,8.881784197001E-16,0.6));
#890 = VECTOR('',#891,1.);
#891 = DIRECTION('',(0.,-1.,0.));
#892 = ORIENTED_EDGE('',*,*,#823,.T.);
#893 = ORIENTED_EDGE('',*,*,#507,.T.);
#894 = PLANE('',#895);
#895 = AXIS2_PLACEMENT_3D('',#896,#897,#898);
#896 = CARTESIAN_POINT('',(-4.,4.898587196589E-16,1.));
#897 = DIRECTION('',(-1.,0.,0.));
#898 = DIRECTION('',(0.,-1.,0.));
#899 = ADVANCED_FACE('',(#900),#912,.F.);
#900 = FACE_BOUND('',#901,.F.);
#901 = EDGE_LOOP('',(#902,#903,#910,#911));
#902 = ORIENTED_EDGE('',*,*,#855,.F.);
#903 = ORIENTED_EDGE('',*,*,#904,.F.);
#904 = EDGE_CURVE('',#880,#856,#905,.T.);
#905 = CIRCLE('',#906,4.);
#906 = AXIS2_PLACEMENT_3D('',#907,#908,#909);
#907 = CARTESIAN_POINT('',(0.,-9.5,0.6));
#908 = DIRECTION('',(0.,0.,1.));
#909 = DIRECTION('',(-1.,0.,0.));
#910 = ORIENTED_EDGE('',*,*,#879,.T.);
#911 = ORIENTED_EDGE('',*,*,#524,.T.);
#912 = CYLINDRICAL_SURFACE('',#913,4.);
#913 = AXIS2_PLACEMENT_3D('',#914,#915,#916);
#914 = CARTESIAN_POINT('',(-5.09404010782E-17,-9.5,1.));
#915 = DIRECTION('',(0.,0.,1.));
#916 = DIRECTION('',(1.,0.,0.));
#917 = ADVANCED_FACE('',(#918),#943,.T.);
#918 = FACE_BOUND('',#919,.F.);
#919 = EDGE_LOOP('',(#920,#928,#929,#937));
#920 = ORIENTED_EDGE('',*,*,#921,.F.);
#921 = EDGE_CURVE('',#549,#922,#924,.T.);
#922 = VERTEX_POINT('',#923);
#923 = CARTESIAN_POINT('',(53.320079710936,12.710733072437,1.));
#924 = LINE('',#925,#926);
#925 = CARTESIAN_POINT('',(53.50831867109,12.778305950725,0.8));
#926 = VECTOR('',#927,1.);
#927 = DIRECTION('',(-0.665525226042,-0.23890620231,0.707106781187));
#928 = ORIENTED_EDGE('',*,*,#558,.T.);
#929 = ORIENTED_EDGE('',*,*,#930,.T.);
#930 = EDGE_CURVE('',#540,#931,#933,.T.);
#931 = VERTEX_POINT('',#932);
#932 = CARTESIAN_POINT('',(59.594375239808,-4.767682764944,1.));
#933 = LINE('',#934,#935);
#934 = CARTESIAN_POINT('',(59.782614199962,-4.700109886656,0.8));
#935 = VECTOR('',#936,1.);
#936 = DIRECTION('',(-0.665525226042,-0.23890620231,0.707106781187));
#937 = ORIENTED_EDGE('',*,*,#938,.F.);
#938 = EDGE_CURVE('',#922,#931,#939,.T.);
#939 = LINE('',#940,#941);
#940 = CARTESIAN_POINT('',(53.320079710936,12.710733072437,1.));
#941 = VECTOR('',#942,1.);
#942 = DIRECTION('',(0.337864391442,-0.94119480077,0.));
#943 = PLANE('',#944);
#944 = AXIS2_PLACEMENT_3D('',#945,#946,#947);
#945 = CARTESIAN_POINT('',(53.50831867109,12.778305950725,0.8));
#946 = DIRECTION('',(0.665525226042,0.23890620231,0.707106781187));
#947 = DIRECTION('',(-0.337864391442,0.94119480077,-1.665334536938E-16)
  );
#948 = ADVANCED_FACE('',(#949),#971,.T.);
#949 = FACE_BOUND('',#950,.T.);
#950 = EDGE_LOOP('',(#951,#959,#969,#970));
#951 = ORIENTED_EDGE('',*,*,#952,.T.);
#952 = EDGE_CURVE('',#573,#953,#955,.T.);
#953 = VERTEX_POINT('',#954);
#954 = CARTESIAN_POINT('',(27.544816685676,35.902572333188,1.));
#955 = LINE('',#956,#957);
#956 = CARTESIAN_POINT('',(27.63959774232,36.291180813926,0.6));
#957 = VECTOR('',#958,1.);
#958 = DIRECTION('',(-0.167550819702,-0.686969229891,0.707106781187));
#959 = ORIENTED_EDGE('',*,*,#960,.T.);
#960 = EDGE_CURVE('',#953,#922,#961,.T.);
#961 = B_SPLINE_CURVE_WITH_KNOTS('',6,(#962,#963,#964,#965,#966,#967,
    #968),.UNSPECIFIED.,.F.,.F.,(7,7),(281.99400239571,318.51009561345),
  .PIECEWISE_BEZIER_KNOTS.);
#962 = CARTESIAN_POINT('',(27.544816685676,35.902572333188,1.));
#963 = CARTESIAN_POINT('',(33.393387848493,34.47611413131,1.));
#964 = CARTESIAN_POINT('',(38.960667669908,31.895218363191,1.));
#965 = CARTESIAN_POINT('',(43.961740028424,28.229124861811,1.));
#966 = CARTESIAN_POINT('',(48.133798717759,23.641465085084,1.));
#967 = CARTESIAN_POINT('',(51.286131565861,18.37673833274,1.));
#968 = CARTESIAN_POINT('',(53.320079710936,12.710733072437,1.));
#969 = ORIENTED_EDGE('',*,*,#921,.F.);
#970 = ORIENTED_EDGE('',*,*,#584,.F.);
#971 = B_SPLINE_SURFACE_WITH_KNOTS('',1,6,(
    (#972,#973,#974,#975,#976,#977,#978)
    ,(#979,#980,#981,#982,#983,#984,#985
    )),.UNSPECIFIED.,.F.,.F.,.F.,(2,2),(7,7),(0.,36.516093217738),(
    281.99400239571,318.51009561345),.PIECEWISE_BEZIER_KNOTS.);
#972 = CARTESIAN_POINT('',(27.63959774232,36.291180813926,0.6));
#973 = CARTESIAN_POINT('',(33.552087718315,34.849132904276,0.6));
#974 = CARTESIAN_POINT('',(39.180214342232,32.240031674319,
    0.600000000001));
#975 = CARTESIAN_POINT('',(44.235934230404,28.533867194853,
    0.599999999995));
#976 = CARTESIAN_POINT('',(48.453603499193,23.896076036124,
    0.600000000011));
#977 = CARTESIAN_POINT('',(51.640380345713,18.573808198373,0.6));
#978 = CARTESIAN_POINT('',(53.696557631243,12.845878829013,0.6));
#979 = CARTESIAN_POINT('',(27.544816685676,35.902572333188,1.));
#980 = CARTESIAN_POINT('',(33.393387848493,34.47611413131,1.));
#981 = CARTESIAN_POINT('',(38.960667669908,31.895218363191,1.));
#982 = CARTESIAN_POINT('',(43.961740028424,28.229124861811,1.));
#983 = CARTESIAN_POINT('',(48.133798717759,23.641465085084,1.));
#984 = CARTESIAN_POINT('',(51.286131565861,18.37673833274,1.));
#985 = CARTESIAN_POINT('',(53.320079710936,12.710733072437,1.));
#986 = ADVANCED_FACE('',(#987),#1006,.T.);
#987 = FACE_BOUND('',#988,.F.);
#988 = EDGE_LOOP('',(#989,#990,#991,#999));
#989 = ORIENTED_EDGE('',*,*,#930,.F.);
#990 = ORIENTED_EDGE('',*,*,#623,.T.);
#991 = ORIENTED_EDGE('',*,*,#992,.T.);
#992 = EDGE_CURVE('',#616,#993,#995,.T.);
#993 = VERTEX_POINT('',#994);
#994 = CARTESIAN_POINT('',(50.111040353451,-18.93755916223,1.));
#995 = LINE('',#996,#997);
#996 = CARTESIAN_POINT('',(50.129656579934,-19.33712572253,0.6));
#997 = VECTOR('',#998,1.);
#998 = DIRECTION('',(-3.290914996558E-02,0.706340560812,0.707106781187)
  );
#999 = ORIENTED_EDGE('',*,*,#1000,.F.);
#1000 = EDGE_CURVE('',#931,#993,#1001,.T.);
#1001 = CIRCLE('',#1002,10.6);
#1002 = AXIS2_PLACEMENT_3D('',#1003,#1004,#1005);
#1003 = CARTESIAN_POINT('',(49.617710351651,-8.349045314229,1.));
#1004 = DIRECTION('',(0.,0.,-1.));
#1005 = DIRECTION('',(0.94119480077,0.337864391442,0.));
#1006 = CONICAL_SURFACE('',#1007,11.,0.785398163397);
#1007 = AXIS2_PLACEMENT_3D('',#1008,#1009,#1010);
#1008 = CARTESIAN_POINT('',(49.617710351651,-8.349045314229,0.6));
#1009 = DIRECTION('',(-0.,-0.,-1.));
#1010 = DIRECTION('',(0.94119480077,0.337864391442,0.));
#1011 = ADVANCED_FACE('',(#1012),#1030,.T.);
#1012 = FACE_BOUND('',#1013,.F.);
#1013 = EDGE_LOOP('',(#1014,#1021,#1022,#1023));
#1014 = ORIENTED_EDGE('',*,*,#1015,.F.);
#1015 = EDGE_CURVE('',#640,#1016,#1018,.T.);
#1016 = VERTEX_POINT('',#1017);
#1017 = CARTESIAN_POINT('',(-57.41371725984,39.340069233002,1.));
#1018 = B_SPLINE_CURVE_WITH_KNOTS('',1,(#1019,#1020),.UNSPECIFIED.,.F.,
  .F.,(2,2),(0.,16.98295500407),.PIECEWISE_BEZIER_KNOTS.);
#1019 = CARTESIAN_POINT('',(-57.47679301098,39.735064738823,0.6));
#1020 = CARTESIAN_POINT('',(-57.41371725984,39.340069233002,1.));
#1021 = ORIENTED_EDGE('',*,*,#639,.T.);
#1022 = ORIENTED_EDGE('',*,*,#952,.T.);
#1023 = ORIENTED_EDGE('',*,*,#1024,.F.);
#1024 = EDGE_CURVE('',#1016,#953,#1025,.T.);
#1025 = CIRCLE('',#1026,215.28);
#1026 = AXIS2_PLACEMENT_3D('',#1027,#1028,#1029);
#1027 = CARTESIAN_POINT('',(-23.466348,-173.246512,1.));
#1028 = DIRECTION('',(0.,0.,-1.));
#1029 = DIRECTION('',(-0.157689377833,0.987488764553,0.));
#1030 = CONICAL_SURFACE('',#1031,215.68,0.785398163397);
#1031 = AXIS2_PLACEMENT_3D('',#1032,#1033,#1034);
#1032 = CARTESIAN_POINT('',(-23.466348,-173.246512,0.6));
#1033 = DIRECTION('',(-0.,-0.,-1.));
#1034 = DIRECTION('',(-0.157689377833,0.987488764553,0.));
#1035 = ADVANCED_FACE('',(#1036),#1054,.F.);
#1036 = FACE_BOUND('',#1037,.F.);
#1037 = EDGE_LOOP('',(#1038,#1039,#1040,#1048));
#1038 = ORIENTED_EDGE('',*,*,#992,.F.);
#1039 = ORIENTED_EDGE('',*,*,#675,.T.);
#1040 = ORIENTED_EDGE('',*,*,#1041,.T.);
#1041 = EDGE_CURVE('',#668,#1042,#1044,.T.);
#1042 = VERTEX_POINT('',#1043);
#1043 = CARTESIAN_POINT('',(46.117216773517,-19.12363560526,1.));
#1044 = LINE('',#1045,#1046);
#1045 = CARTESIAN_POINT('',(46.126524886759,-19.32341888541,0.8));
#1046 = VECTOR('',#1047,1.);
#1047 = DIRECTION('',(-3.290914996558E-02,0.706340560812,0.707106781187)
  );
#1048 = ORIENTED_EDGE('',*,*,#1049,.F.);
#1049 = EDGE_CURVE('',#993,#1042,#1050,.T.);
#1050 = LINE('',#1051,#1052);
#1051 = CARTESIAN_POINT('',(50.111040353451,-18.93755916223,1.));
#1052 = VECTOR('',#1053,1.);
#1053 = DIRECTION('',(-0.998916400755,-4.654056620749E-02,-0.));
#1054 = PLANE('',#1055);
#1055 = AXIS2_PLACEMENT_3D('',#1056,#1057,#1058);
#1056 = CARTESIAN_POINT('',(50.120348466692,-19.13734244238,0.8));
#1057 = DIRECTION('',(-3.290914996558E-02,0.706340560812,-0.707106781187
    ));
#1058 = DIRECTION('',(-0.998916400755,-4.654056620749E-02,
    -3.816391647149E-17));
#1059 = ADVANCED_FACE('',(#1060),#1089,.T.);
#1060 = FACE_BOUND('',#1061,.T.);
#1061 = EDGE_LOOP('',(#1062,#1070,#1087,#1088));
#1062 = ORIENTED_EDGE('',*,*,#1063,.T.);
#1063 = EDGE_CURVE('',#692,#1064,#1066,.T.);
#1064 = VERTEX_POINT('',#1065);
#1065 = CARTESIAN_POINT('',(-65.11035490607,27.153240395102,1.));
#1066 = LINE('',#1067,#1068);
#1067 = CARTESIAN_POINT('',(-65.49412389246,27.040451366011,0.6));
#1068 = VECTOR('',#1069,1.);
#1069 = DIRECTION('',(0.678414131718,0.199384718285,0.707106781187));
#1070 = ORIENTED_EDGE('',*,*,#1071,.T.);
#1071 = EDGE_CURVE('',#1064,#1016,#1072,.T.);
#1072 = B_SPLINE_CURVE_WITH_KNOTS('',13,(#1073,#1074,#1075,#1076,#1077,
    #1078,#1079,#1080,#1081,#1082,#1083,#1084,#1085,#1086),
  .UNSPECIFIED.,.F.,.F.,(14,14),(179.26136526,196.24432026407),
  .PIECEWISE_BEZIER_KNOTS.);
#1073 = CARTESIAN_POINT('',(-65.11035490607,27.153240395102,1.));
#1074 = CARTESIAN_POINT('',(-65.46380761827,28.35587677028,1.));
#1075 = CARTESIAN_POINT('',(-65.64741913818,29.608874551871,
    1.000000000001));
#1076 = CARTESIAN_POINT('',(-65.65178551107,30.886547124933,
    0.999999999997));
#1077 = CARTESIAN_POINT('',(-65.47968761285,32.156844999594,
    1.000000000005));
#1078 = CARTESIAN_POINT('',(-65.11709222377,33.404908829182,
    0.999999999992));
#1079 = CARTESIAN_POINT('',(-64.59421544445,34.58054715353,1.00000000001
    ));
#1080 = CARTESIAN_POINT('',(-63.90163499423,35.677168056045,
    0.99999999999));
#1081 = CARTESIAN_POINT('',(-63.05422352524,36.669608024031,
    1.000000000008));
#1082 = CARTESIAN_POINT('',(-62.09610492853,37.5164337338,0.999999999995
    ));
#1083 = CARTESIAN_POINT('',(-61.01515846604,38.227094034852,
    1.000000000002));
#1084 = CARTESIAN_POINT('',(-59.86215123208,38.769392953763,
    0.999999999999));
#1085 = CARTESIAN_POINT('',(-58.65153471638,39.142405551554,1.));
#1086 = CARTESIAN_POINT('',(-57.41371725984,39.340069233002,1.));
#1087 = ORIENTED_EDGE('',*,*,#1015,.F.);
#1088 = ORIENTED_EDGE('',*,*,#701,.F.);
#1089 = B_SPLINE_SURFACE_WITH_KNOTS('',1,13,(
    (#1090,#1091,#1092,#1093,#1094,#1095,#1096,#1097,#1098,#1099,#1100
      ,#1101,#1102,#1103)
    ,(#1104,#1105,#1106,#1107,#1108,#1109,#1110,#1111,#1112,#1113,#1114
      ,#1115,#1116,#1117
    )),.UNSPECIFIED.,.F.,.F.,.F.,(2,2),(14,14),(0.,16.98295500407),(
    179.26136526,196.24432026407),.PIECEWISE_BEZIER_KNOTS.);
#1090 = CARTESIAN_POINT('',(-65.49412389246,27.040451366011,0.6));
#1091 = CARTESIAN_POINT('',(-65.8623038159,28.293197640801,0.6));
#1092 = CARTESIAN_POINT('',(-66.05348517552,29.598361429295,
    0.600000001171));
#1093 = CARTESIAN_POINT('',(-66.05869759539,30.929666564339,0.5999999919
    ));
#1094 = CARTESIAN_POINT('',(-65.87682007119,32.251065458152,
    0.60000002804));
#1095 = CARTESIAN_POINT('',(-65.50529189815,33.556344150151,
    0.599999938682));
#1096 = CARTESIAN_POINT('',(-64.95112831037,34.77105515433,
    0.600000090958));
#1097 = CARTESIAN_POINT('',(-64.23942560155,35.926375040008,
    0.599999907994));
#1098 = CARTESIAN_POINT('',(-63.35018577768,36.948288013239,
    0.600000061381));
#1099 = CARTESIAN_POINT('',(-62.35470429117,37.837808071467,0.5999999752
    ));
#1100 = CARTESIAN_POINT('',(-61.22837107521,38.575064863728,
    0.600000005566));
#1101 = CARTESIAN_POINT('',(-60.0271905765,39.140672539518,0.59999999963
    ));
#1102 = CARTESIAN_POINT('',(-58.76618624453,39.529165062725,0.6));
#1103 = CARTESIAN_POINT('',(-57.47679301098,39.735064738823,0.6));
#1104 = CARTESIAN_POINT('',(-65.11035490607,27.153240395102,1.));
#1105 = CARTESIAN_POINT('',(-65.46380761827,28.35587677028,1.));
#1106 = CARTESIAN_POINT('',(-65.64741913818,29.608874551871,
    1.000000000001));
#1107 = CARTESIAN_POINT('',(-65.65178551107,30.886547124933,
    0.999999999997));
#1108 = CARTESIAN_POINT('',(-65.47968761285,32.156844999594,
    1.000000000005));
#1109 = CARTESIAN_POINT('',(-65.11709222377,33.404908829182,
    0.999999999992));
#1110 = CARTESIAN_POINT('',(-64.59421544445,34.58054715353,1.00000000001
    ));
#1111 = CARTESIAN_POINT('',(-63.90163499423,35.677168056045,
    0.99999999999));
#1112 = CARTESIAN_POINT('',(-63.05422352524,36.669608024031,
    1.000000000008));
#1113 = CARTESIAN_POINT('',(-62.09610492853,37.5164337338,0.999999999995
    ));
#1114 = CARTESIAN_POINT('',(-61.01515846604,38.227094034852,
    1.000000000002));
#1115 = CARTESIAN_POINT('',(-59.86215123208,38.769392953763,
    0.999999999999));
#1116 = CARTESIAN_POINT('',(-58.65153471638,39.142405551554,1.));
#1117 = CARTESIAN_POINT('',(-57.41371725984,39.340069233002,1.));
#1118 = ADVANCED_FACE('',(#1119),#1138,.T.);
#1119 = FACE_BOUND('',#1120,.F.);
#1120 = EDGE_LOOP('',(#1121,#1122,#1123,#1131));
#1121 = ORIENTED_EDGE('',*,*,#1041,.F.);
#1122 = ORIENTED_EDGE('',*,*,#747,.T.);
#1123 = ORIENTED_EDGE('',*,*,#1124,.T.);
#1124 = EDGE_CURVE('',#738,#1125,#1127,.T.);
#1125 = VERTEX_POINT('',#1126);
#1126 = CARTESIAN_POINT('',(-29.76822812615,-16.88670616354,1.));
#1127 = LINE('',#1128,#1129);
#1128 = CARTESIAN_POINT('',(-29.81034819429,-17.28448235672,0.6));
#1129 = VECTOR('',#1130,1.);
#1130 = DIRECTION('',(7.445846450091E-02,0.70317560898,0.707106781187));
#1131 = ORIENTED_EDGE('',*,*,#1132,.F.);
#1132 = EDGE_CURVE('',#1042,#1125,#1133,.T.);
#1133 = CIRCLE('',#1134,499.77);
#1134 = AXIS2_PLACEMENT_3D('',#1135,#1136,#1137);
#1135 = CARTESIAN_POINT('',(22.857638,480.104814,1.));
#1136 = DIRECTION('',(0.,-0.,-1.));
#1137 = DIRECTION('',(4.654056620749E-02,-0.998916400755,0.));
#1138 = CONICAL_SURFACE('',#1139,500.17,0.785398163397);
#1139 = AXIS2_PLACEMENT_3D('',#1140,#1141,#1142);
#1140 = CARTESIAN_POINT('',(22.857638,480.104814,0.6));
#1141 = DIRECTION('',(-0.,-0.,-1.));
#1142 = DIRECTION('',(4.654056620749E-02,-0.998916400755,0.));
#1143 = ADVANCED_FACE('',(#1144),#1162,.T.);
#1144 = FACE_BOUND('',#1145,.F.);
#1145 = EDGE_LOOP('',(#1146,#1153,#1154,#1155));
#1146 = ORIENTED_EDGE('',*,*,#1147,.F.);
#1147 = EDGE_CURVE('',#765,#1148,#1150,.T.);
#1148 = VERTEX_POINT('',#1149);
#1149 = CARTESIAN_POINT('',(-48.20033425091,-6.456944362872,1.));
#1150 = B_SPLINE_CURVE_WITH_KNOTS('',1,(#1151,#1152),.UNSPECIFIED.,.F.,
  .F.,(2,2),(0.,22.109382639656),.PIECEWISE_BEZIER_KNOTS.);
#1151 = CARTESIAN_POINT('',(-48.51962884724,-6.697882032733,0.6));
#1152 = CARTESIAN_POINT('',(-48.20033425091,-6.456944362872,1.));
#1153 = ORIENTED_EDGE('',*,*,#776,.T.);
#1154 = ORIENTED_EDGE('',*,*,#1063,.T.);
#1155 = ORIENTED_EDGE('',*,*,#1156,.F.);
#1156 = EDGE_CURVE('',#1148,#1064,#1157,.T.);
#1157 = CIRCLE('',#1158,104.91);
#1158 = AXIS2_PLACEMENT_3D('',#1159,#1160,#1161);
#1159 = CARTESIAN_POINT('',(35.542656,56.734983,1.));
#1160 = DIRECTION('',(-0.,0.,-1.));
#1161 = DIRECTION('',(-0.79823649081,-0.602344174653,0.));
#1162 = CONICAL_SURFACE('',#1163,105.31,0.785398163397);
#1163 = AXIS2_PLACEMENT_3D('',#1164,#1165,#1166);
#1164 = CARTESIAN_POINT('',(35.542656,56.734983,0.6));
#1165 = DIRECTION('',(-0.,-0.,-1.));
#1166 = DIRECTION('',(-0.79823649081,-0.602344174653,0.));
#1167 = ADVANCED_FACE('',(#1168),#1183,.T.);
#1168 = FACE_BOUND('',#1169,.T.);
#1169 = EDGE_LOOP('',(#1170,#1171,#1181,#1182));
#1170 = ORIENTED_EDGE('',*,*,#1124,.T.);
#1171 = ORIENTED_EDGE('',*,*,#1172,.T.);
#1172 = EDGE_CURVE('',#1125,#1148,#1173,.T.);
#1173 = B_SPLINE_CURVE_WITH_KNOTS('',6,(#1174,#1175,#1176,#1177,#1178,
    #1179,#1180),.UNSPECIFIED.,.F.,.F.,(7,7),(119.1787690843,
    141.28815172396),.PIECEWISE_BEZIER_KNOTS.);
#1174 = CARTESIAN_POINT('',(-29.76822812615,-16.88670616354,1.));
#1175 = CARTESIAN_POINT('',(-33.37813429511,-16.50445731005,1.));
#1176 = CARTESIAN_POINT('',(-36.92568846923,-15.53100796754,1.));
#1177 = CARTESIAN_POINT('',(-40.2898971129,-13.9790070772,1.));
#1178 = CARTESIAN_POINT('',(-43.35248002665,-11.89440368232,1.));
#1179 = CARTESIAN_POINT('',(-46.01377020538,-9.354615302651,1.));
#1180 = CARTESIAN_POINT('',(-48.20033425091,-6.456944362872,1.));
#1181 = ORIENTED_EDGE('',*,*,#1147,.F.);
#1182 = ORIENTED_EDGE('',*,*,#794,.F.);
#1183 = B_SPLINE_SURFACE_WITH_KNOTS('',1,6,(
    (#1184,#1185,#1186,#1187,#1188,#1189,#1190)
    ,(#1191,#1192,#1193,#1194,#1195,#1196,#1197
  )),.UNSPECIFIED.,.F.,.F.,.F.,(2,2),(7,7),(0.,22.109382639656),(
    119.1787690843,141.28815172396),.PIECEWISE_BEZIER_KNOTS.);
#1184 = CARTESIAN_POINT('',(-29.81034819429,-17.28448235672,0.6));
#1185 = CARTESIAN_POINT('',(-33.47453897582,-16.89648536742,0.6));
#1186 = CARTESIAN_POINT('',(-37.07544581841,-15.9084149658,
    0.599999999986));
#1187 = CARTESIAN_POINT('',(-40.49021918958,-14.33301797202,
    0.600000000029));
#1188 = CARTESIAN_POINT('',(-43.59888632079,-12.21713323107,
    0.600000000026));
#1189 = CARTESIAN_POINT('',(-46.30018584492,-9.639124711374,0.6));
#1190 = CARTESIAN_POINT('',(-48.51962884724,-6.697882032733,0.6));
#1191 = CARTESIAN_POINT('',(-29.76822812615,-16.88670616354,1.));
#1192 = CARTESIAN_POINT('',(-33.37813429511,-16.50445731005,1.));
#1193 = CARTESIAN_POINT('',(-36.92568846923,-15.53100796754,1.));
#1194 = CARTESIAN_POINT('',(-40.2898971129,-13.9790070772,1.));
#1195 = CARTESIAN_POINT('',(-43.35248002665,-11.89440368232,1.));
#1196 = CARTESIAN_POINT('',(-46.01377020538,-9.354615302651,1.));
#1197 = CARTESIAN_POINT('',(-48.20033425091,-6.456944362872,1.));
#1198 = ADVANCED_FACE('',(#1199),#1225,.F.);
#1199 = FACE_BOUND('',#1200,.F.);
#1200 = EDGE_LOOP('',(#1201,#1209,#1210,#1218));
#1201 = ORIENTED_EDGE('',*,*,#1202,.F.);
#1202 = EDGE_CURVE('',#832,#1203,#1205,.T.);
#1203 = VERTEX_POINT('',#1204);
#1204 = CARTESIAN_POINT('',(4.4,5.392120686179E-16,1.));
#1205 = LINE('',#1206,#1207);
#1206 = CARTESIAN_POINT('',(4.,4.901927896526E-16,0.6));
#1207 = VECTOR('',#1208,1.);
#1208 = DIRECTION('',(0.707106781187,8.665466141303E-17,0.707106781187)
  );
#1209 = ORIENTED_EDGE('',*,*,#831,.T.);
#1210 = ORIENTED_EDGE('',*,*,#1211,.T.);
#1211 = EDGE_CURVE('',#824,#1212,#1214,.T.);
#1212 = VERTEX_POINT('',#1213);
#1213 = CARTESIAN_POINT('',(-4.4,-3.674769930691E-19,1.));
#1214 = LINE('',#1215,#1216);
#1215 = CARTESIAN_POINT('',(-4.,-3.340699936993E-19,0.6));
#1216 = VECTOR('',#1217,1.);
#1217 = DIRECTION('',(-0.707106781187,-5.905578948393E-20,0.707106781187
    ));
#1218 = ORIENTED_EDGE('',*,*,#1219,.F.);
#1219 = EDGE_CURVE('',#1203,#1212,#1220,.T.);
#1220 = CIRCLE('',#1221,4.4);
#1221 = AXIS2_PLACEMENT_3D('',#1222,#1223,#1224);
#1222 = CARTESIAN_POINT('',(0.,0.,1.));
#1223 = DIRECTION('',(0.,-0.,1.));
#1224 = DIRECTION('',(1.,1.225481974132E-16,0.));
#1225 = CONICAL_SURFACE('',#1226,4.,0.785398163397);
#1226 = AXIS2_PLACEMENT_3D('',#1227,#1228,#1229);
#1227 = CARTESIAN_POINT('',(0.,0.,0.6));
#1228 = DIRECTION('',(0.,0.,1.));
#1229 = DIRECTION('',(1.,1.225481974132E-16,0.));
#1230 = ADVANCED_FACE('',(#1231),#1249,.T.);
#1231 = FACE_BOUND('',#1232,.F.);
#1232 = EDGE_LOOP('',(#1233,#1241,#1242,#1243));
#1233 = ORIENTED_EDGE('',*,*,#1234,.F.);
#1234 = EDGE_CURVE('',#856,#1235,#1237,.T.);
#1235 = VERTEX_POINT('',#1236);
#1236 = CARTESIAN_POINT('',(4.4,-9.5,1.));
#1237 = LINE('',#1238,#1239);
#1238 = CARTESIAN_POINT('',(4.,-9.5,0.6));
#1239 = VECTOR('',#1240,1.);
#1240 = DIRECTION('',(0.707106781187,5.4144137785E-16,0.707106781187));
#1241 = ORIENTED_EDGE('',*,*,#863,.T.);
#1242 = ORIENTED_EDGE('',*,*,#1202,.T.);
#1243 = ORIENTED_EDGE('',*,*,#1244,.F.);
#1244 = EDGE_CURVE('',#1235,#1203,#1245,.T.);
#1245 = LINE('',#1246,#1247);
#1246 = CARTESIAN_POINT('',(4.400000000001,-9.5,1.));
#1247 = VECTOR('',#1248,1.);
#1248 = DIRECTION('',(0.,1.,0.));
#1249 = PLANE('',#1250);
#1250 = AXIS2_PLACEMENT_3D('',#1251,#1252,#1253);
#1251 = CARTESIAN_POINT('',(4.200000000001,-9.5,0.8));
#1252 = DIRECTION('',(-0.707106781187,-3.474993633276E-18,0.707106781187
    ));
#1253 = DIRECTION('',(2.457191562669E-18,-1.,-2.457191562669E-18));
#1254 = ADVANCED_FACE('',(#1255),#1273,.F.);
#1255 = FACE_BOUND('',#1256,.F.);
#1256 = EDGE_LOOP('',(#1257,#1258,#1259,#1267));
#1257 = ORIENTED_EDGE('',*,*,#1211,.F.);
#1258 = ORIENTED_EDGE('',*,*,#887,.T.);
#1259 = ORIENTED_EDGE('',*,*,#1260,.T.);
#1260 = EDGE_CURVE('',#880,#1261,#1263,.T.);
#1261 = VERTEX_POINT('',#1262);
#1262 = CARTESIAN_POINT('',(-4.4,-9.5,1.));
#1263 = LINE('',#1264,#1265);
#1264 = CARTESIAN_POINT('',(-4.2,-9.5,0.8));
#1265 = VECTOR('',#1266,1.);
#1266 = DIRECTION('',(-0.707106781187,0.,0.707106781187));
#1267 = ORIENTED_EDGE('',*,*,#1268,.F.);
#1268 = EDGE_CURVE('',#1212,#1261,#1269,.T.);
#1269 = LINE('',#1270,#1271);
#1270 = CARTESIAN_POINT('',(-4.4,8.881784197001E-16,1.));
#1271 = VECTOR('',#1272,1.);
#1272 = DIRECTION('',(0.,-1.,0.));
#1273 = PLANE('',#1274);
#1274 = AXIS2_PLACEMENT_3D('',#1275,#1276,#1277);
#1275 = CARTESIAN_POINT('',(-4.2,8.881784197001E-16,0.8));
#1276 = DIRECTION('',(-0.707106781187,3.474993633276E-18,-0.707106781187
    ));
#1277 = DIRECTION('',(-2.457191562669E-18,-1.,-2.457191562669E-18));
#1278 = ADVANCED_FACE('',(#1279),#1291,.F.);
#1279 = FACE_BOUND('',#1280,.F.);
#1280 = EDGE_LOOP('',(#1281,#1282,#1283,#1284));
#1281 = ORIENTED_EDGE('',*,*,#1260,.F.);
#1282 = ORIENTED_EDGE('',*,*,#904,.T.);
#1283 = ORIENTED_EDGE('',*,*,#1234,.T.);
#1284 = ORIENTED_EDGE('',*,*,#1285,.F.);
#1285 = EDGE_CURVE('',#1261,#1235,#1286,.T.);
#1286 = CIRCLE('',#1287,4.4);
#1287 = AXIS2_PLACEMENT_3D('',#1288,#1289,#1290);
#1288 = CARTESIAN_POINT('',(0.,-9.5,1.));
#1289 = DIRECTION('',(0.,0.,1.));
#1290 = DIRECTION('',(-1.,0.,0.));
#1291 = CONICAL_SURFACE('',#1292,4.,0.785398163397);
#1292 = AXIS2_PLACEMENT_3D('',#1293,#1294,#1295);
#1293 = CARTESIAN_POINT('',(0.,-9.5,0.6));
#1294 = DIRECTION('',(0.,0.,1.));
#1295 = DIRECTION('',(-1.,0.,0.));
#1296 = ADVANCED_FACE('',(#1297,#1308),#1314,.T.);
#1297 = FACE_BOUND('',#1298,.T.);
#1298 = EDGE_LOOP('',(#1299,#1300,#1301,#1302,#1303,#1304,#1305,#1306,
    #1307));
#1299 = ORIENTED_EDGE('',*,*,#938,.F.);
#1300 = ORIENTED_EDGE('',*,*,#960,.F.);
#1301 = ORIENTED_EDGE('',*,*,#1024,.F.);
#1302 = ORIENTED_EDGE('',*,*,#1071,.F.);
#1303 = ORIENTED_EDGE('',*,*,#1156,.F.);
#1304 = ORIENTED_EDGE('',*,*,#1172,.F.);
#1305 = ORIENTED_EDGE('',*,*,#1132,.F.);
#1306 = ORIENTED_EDGE('',*,*,#1049,.F.);
#1307 = ORIENTED_EDGE('',*,*,#1000,.F.);
#1308 = FACE_BOUND('',#1309,.T.);
#1309 = EDGE_LOOP('',(#1310,#1311,#1312,#1313));
#1310 = ORIENTED_EDGE('',*,*,#1219,.F.);
#1311 = ORIENTED_EDGE('',*,*,#1244,.F.);
#1312 = ORIENTED_EDGE('',*,*,#1285,.F.);
#1313 = ORIENTED_EDGE('',*,*,#1268,.F.);
#1314 = PLANE('',#1315);
#1315 = AXIS2_PLACEMENT_3D('',#1316,#1317,#1318);
#1316 = CARTESIAN_POINT('',(-1.439077244982,10.348514126428,1.));
#1317 = DIRECTION('',(0.,0.,1.));
#1318 = DIRECTION('',(1.,0.,0.));
#1319 = ( GEOMETRIC_REPRESENTATION_CONTEXT(3) 
GLOBAL_UNCERTAINTY_ASSIGNED_CONTEXT((#1323)) 
GLOBAL_UNIT_ASSIGNED_CONTEXT((#1320,#1321,#1322)) REPRESENTATION_CONTEXT
('Context #1','3D Context with UNIT and UNCERTAINTY') );
#1320 = ( LENGTH_UNIT() NAMED_UNIT(*) SI_UNIT(.MILLI.,.METRE.) );
#1321 = ( NAMED_UNIT(*) PLANE_ANGLE_UNIT() SI_UNIT($,.RADIAN.) );
#1322 = ( NAMED_UNIT(*) SI_UNIT($,.STERADIAN.) SOLID_ANGLE_UNIT() );
#1323 = UNCERTAINTY_MEASURE_WITH_UNIT(LENGTH_MEASURE(2.E-05),#1320,
  'distance_accuracy_value','confusion accuracy');
#1324 = PRODUCT_RELATED_PRODUCT_CATEGORY('part',$,(#7));
#1325 = MECHANICAL_DESIGN_GEOMETRIC_PRESENTATION_REPRESENTATION('',(
    #1326),#1319);
#1326 = STYLED_ITEM('color',(#1327),#15);
#1327 = PRESENTATION_STYLE_ASSIGNMENT((#1328,#1336));
#1328 = SURFACE_STYLE_USAGE(.BOTH.,#1329);
#1329 = SURFACE_SIDE_STYLE('',(#1330,#1334));
#1330 = SURFACE_STYLE_FILL_AREA(#1331);
#1331 = FILL_AREA_STYLE('',(#1332));
#1332 = FILL_AREA_STYLE_COLOUR('',#1333);
#1333 = COLOUR_RGB('',0.800000010877,0.800000010877,0.90196104065);
#1334 = SURFACE_STYLE_RENDERING_WITH_PROPERTIES(.NORMAL_SHADING.,#1333,(
    #1335));
#1335 = SURFACE_STYLE_TRANSPARENT(0.699999988079);
#1336 = CURVE_STYLE('',#1337,POSITIVE_LENGTH_MEASURE(0.1),#1338);
#1337 = DRAUGHTING_PRE_DEFINED_CURVE_FONT('continuous');
#1338 = COLOUR_RGB('',9.803921802644E-02,9.803921802644E-02,
  9.803921802644E-02);
ENDSEC;
END-ISO-10303-21;
