ISO-10303-21;
HEADER;
FILE_DESCRIPTION(('FreeCAD Model'),'2;1');
FILE_NAME('Open CASCADE Shape Model','2025-06-18T21:25:36',(''),(''),
  'Open CASCADE STEP processor 7.7','FreeCAD','Unknown');
FILE_SCHEMA(('AUTOMOTIVE_DESIGN { 1 0 10303 214 1 1 1 1 }'));
ENDSEC;
DATA;
#1 = APPLICATION_PROTOCOL_DEFINITION('international standard',
  'automotive_design',2000,#2);
#2 = APPLICATION_CONTEXT(
  'core data for automotive mechanical design processes');
#3 = SHAPE_DEFINITION_REPRESENTATION(#4,#10);
#4 = PRODUCT_DEFINITION_SHAPE('','',#5);
#5 = PRODUCT_DEFINITION('design','',#6,#9);
#6 = PRODUCT_DEFINITION_FORMATION('','',#7);
#7 = PRODUCT('Pocket003','Pocket003','',(#8));
#8 = PRODUCT_CONTEXT('',#2,'mechanical');
#9 = PRODUCT_DEFINITION_CONTEXT('part definition',#2,'design');
#10 = ADVANCED_BREP_SHAPE_REPRESENTATION('',(#11,#15),#470);
#11 = AXIS2_PLACEMENT_3D('',#12,#13,#14);
#12 = CARTESIAN_POINT('',(0.,0.,0.));
#13 = DIRECTION('',(0.,0.,1.));
#14 = DIRECTION('',(1.,0.,-0.));
#15 = MANIFOLD_SOLID_BREP('',#16);
#16 = CLOSED_SHELL('',(#17,#57,#90,#132,#163,#196,#238,#280,#311,#344,
    #366,#406,#437,#459));
#17 = ADVANCED_FACE('',(#18),#52,.T.);
#18 = FACE_BOUND('',#19,.T.);
#19 = EDGE_LOOP('',(#20,#30,#38,#46));
#20 = ORIENTED_EDGE('',*,*,#21,.T.);
#21 = EDGE_CURVE('',#22,#24,#26,.T.);
#22 = VERTEX_POINT('',#23);
#23 = CARTESIAN_POINT('',(52.755362830474,12.508014437571,1.));
#24 = VERTEX_POINT('',#25);
#25 = CARTESIAN_POINT('',(52.755362830474,12.508014437571,2.));
#26 = LINE('',#27,#28);
#27 = CARTESIAN_POINT('',(52.755362830474,12.508014437571,1.));
#28 = VECTOR('',#29,1.);
#29 = DIRECTION('',(0.,0.,1.));
#30 = ORIENTED_EDGE('',*,*,#31,.T.);
#31 = EDGE_CURVE('',#24,#32,#34,.T.);
#32 = VERTEX_POINT('',#33);
#33 = CARTESIAN_POINT('',(59.029658359346,-4.97040139981,2.));
#34 = LINE('',#35,#36);
#35 = CARTESIAN_POINT('',(59.13830719923,-5.273066391442,2.));
#36 = VECTOR('',#37,1.);
#37 = DIRECTION('',(0.337864391442,-0.94119480077,0.));
#38 = ORIENTED_EDGE('',*,*,#39,.F.);
#39 = EDGE_CURVE('',#40,#32,#42,.T.);
#40 = VERTEX_POINT('',#41);
#41 = CARTESIAN_POINT('',(59.029658359346,-4.97040139981,1.));
#42 = LINE('',#43,#44);
#43 = CARTESIAN_POINT('',(59.029658359346,-4.97040139981,1.));
#44 = VECTOR('',#45,1.);
#45 = DIRECTION('',(0.,0.,1.));
#46 = ORIENTED_EDGE('',*,*,#47,.F.);
#47 = EDGE_CURVE('',#22,#40,#48,.T.);
#48 = LINE('',#49,#50);
#49 = CARTESIAN_POINT('',(59.13830719923,-5.273066391442,1.));
#50 = VECTOR('',#51,1.);
#51 = DIRECTION('',(0.337864391442,-0.94119480077,0.));
#52 = PLANE('',#53);
#53 = AXIS2_PLACEMENT_3D('',#54,#55,#56);
#54 = CARTESIAN_POINT('',(52.755362830474,12.508014437571,1.));
#55 = DIRECTION('',(0.94119480077,0.337864391442,0.));
#56 = DIRECTION('',(0.337864391442,-0.94119480077,0.));
#57 = ADVANCED_FACE('',(#58),#85,.T.);
#58 = FACE_BOUND('',#59,.T.);
#59 = EDGE_LOOP('',(#60,#61,#70,#78));
#60 = ORIENTED_EDGE('',*,*,#39,.T.);
#61 = ORIENTED_EDGE('',*,*,#62,.T.);
#62 = EDGE_CURVE('',#32,#63,#65,.T.);
#63 = VERTEX_POINT('',#64);
#64 = CARTESIAN_POINT('',(50.083116013726,-18.33820932177,2.));
#65 = CIRCLE('',#66,10.);
#66 = AXIS2_PLACEMENT_3D('',#67,#68,#69);
#67 = CARTESIAN_POINT('',(49.617710351651,-8.349045314229,2.));
#68 = DIRECTION('',(-0.,-0.,-1.));
#69 = DIRECTION('',(0.,-1.,0.));
#70 = ORIENTED_EDGE('',*,*,#71,.F.);
#71 = EDGE_CURVE('',#72,#63,#74,.T.);
#72 = VERTEX_POINT('',#73);
#73 = CARTESIAN_POINT('',(50.083116013726,-18.33820932177,1.));
#74 = LINE('',#75,#76);
#75 = CARTESIAN_POINT('',(50.083116013726,-18.33820932177,1.));
#76 = VECTOR('',#77,1.);
#77 = DIRECTION('',(0.,0.,1.));
#78 = ORIENTED_EDGE('',*,*,#79,.F.);
#79 = EDGE_CURVE('',#40,#72,#80,.T.);
#80 = CIRCLE('',#81,10.);
#81 = AXIS2_PLACEMENT_3D('',#82,#83,#84);
#82 = CARTESIAN_POINT('',(49.617710351651,-8.349045314229,1.));
#83 = DIRECTION('',(-0.,-0.,-1.));
#84 = DIRECTION('',(0.,-1.,0.));
#85 = CYLINDRICAL_SURFACE('',#86,10.);
#86 = AXIS2_PLACEMENT_3D('',#87,#88,#89);
#87 = CARTESIAN_POINT('',(49.617710351651,-8.349045314229,1.));
#88 = DIRECTION('',(-0.,-0.,-1.));
#89 = DIRECTION('',(0.,-1.,0.));
#90 = ADVANCED_FACE('',(#91),#127,.T.);
#91 = FACE_BOUND('',#92,.F.);
#92 = EDGE_LOOP('',(#93,#103,#112,#120));
#93 = ORIENTED_EDGE('',*,*,#94,.T.);
#94 = EDGE_CURVE('',#95,#97,#99,.T.);
#95 = VERTEX_POINT('',#96);
#96 = CARTESIAN_POINT('',(27.402645100711,35.319659612081,1.));
#97 = VERTEX_POINT('',#98);
#98 = CARTESIAN_POINT('',(27.402645100711,35.319659612081,2.));
#99 = LINE('',#100,#101);
#100 = CARTESIAN_POINT('',(27.402645100711,35.319659612081,1.));
#101 = VECTOR('',#102,1.);
#102 = DIRECTION('',(0.,0.,1.));
#103 = ORIENTED_EDGE('',*,*,#104,.T.);
#104 = EDGE_CURVE('',#97,#105,#107,.T.);
#105 = VERTEX_POINT('',#106);
#106 = CARTESIAN_POINT('',(-57.31910363314,38.74757597427,2.));
#107 = CIRCLE('',#108,214.68);
#108 = AXIS2_PLACEMENT_3D('',#109,#110,#111);
#109 = CARTESIAN_POINT('',(-23.466348,-173.246512,2.));
#110 = DIRECTION('',(0.,0.,1.));
#111 = DIRECTION('',(1.,0.,0.));
#112 = ORIENTED_EDGE('',*,*,#113,.F.);
#113 = EDGE_CURVE('',#114,#105,#116,.T.);
#114 = VERTEX_POINT('',#115);
#115 = CARTESIAN_POINT('',(-57.31910363314,38.74757597427,1.));
#116 = LINE('',#117,#118);
#117 = CARTESIAN_POINT('',(-57.31910363314,38.74757597427,1.));
#118 = VECTOR('',#119,1.);
#119 = DIRECTION('',(0.,0.,1.));
#120 = ORIENTED_EDGE('',*,*,#121,.F.);
#121 = EDGE_CURVE('',#95,#114,#122,.T.);
#122 = CIRCLE('',#123,214.68);
#123 = AXIS2_PLACEMENT_3D('',#124,#125,#126);
#124 = CARTESIAN_POINT('',(-23.466348,-173.246512,1.));
#125 = DIRECTION('',(0.,0.,1.));
#126 = DIRECTION('',(1.,0.,0.));
#127 = CYLINDRICAL_SURFACE('',#128,214.68);
#128 = AXIS2_PLACEMENT_3D('',#129,#130,#131);
#129 = CARTESIAN_POINT('',(-23.466348,-173.246512,1.));
#130 = DIRECTION('',(-0.,-0.,-1.));
#131 = DIRECTION('',(1.,0.,0.));
#132 = ADVANCED_FACE('',(#133),#158,.F.);
#133 = FACE_BOUND('',#134,.F.);
#134 = EDGE_LOOP('',(#135,#145,#151,#152));
#135 = ORIENTED_EDGE('',*,*,#136,.T.);
#136 = EDGE_CURVE('',#137,#139,#141,.T.);
#137 = VERTEX_POINT('',#138);
#138 = CARTESIAN_POINT('',(46.089292433793,-18.52428576481,1.));
#139 = VERTEX_POINT('',#140);
#140 = CARTESIAN_POINT('',(46.089292433793,-18.52428576481,2.));
#141 = LINE('',#142,#143);
#142 = CARTESIAN_POINT('',(46.089292433793,-18.52428576481,1.));
#143 = VECTOR('',#144,1.);
#144 = DIRECTION('',(0.,0.,1.));
#145 = ORIENTED_EDGE('',*,*,#146,.T.);
#146 = EDGE_CURVE('',#139,#63,#147,.T.);
#147 = LINE('',#148,#149);
#148 = CARTESIAN_POINT('',(46.089292433793,-18.52428576481,2.));
#149 = VECTOR('',#150,1.);
#150 = DIRECTION('',(0.998916400755,4.654056620749E-02,0.));
#151 = ORIENTED_EDGE('',*,*,#71,.F.);
#152 = ORIENTED_EDGE('',*,*,#153,.F.);
#153 = EDGE_CURVE('',#137,#72,#154,.T.);
#154 = LINE('',#155,#156);
#155 = CARTESIAN_POINT('',(46.089292433793,-18.52428576481,1.));
#156 = VECTOR('',#157,1.);
#157 = DIRECTION('',(0.998916400755,4.654056620749E-02,0.));
#158 = PLANE('',#159);
#159 = AXIS2_PLACEMENT_3D('',#160,#161,#162);
#160 = CARTESIAN_POINT('',(46.089292433793,-18.52428576481,1.));
#161 = DIRECTION('',(-4.654056620749E-02,0.998916400755,0.));
#162 = DIRECTION('',(0.998916400755,4.654056620749E-02,0.));
#163 = ADVANCED_FACE('',(#164),#191,.T.);
#164 = FACE_BOUND('',#165,.F.);
#165 = EDGE_LOOP('',(#166,#176,#183,#184));
#166 = ORIENTED_EDGE('',*,*,#167,.T.);
#167 = EDGE_CURVE('',#168,#170,#172,.T.);
#168 = VERTEX_POINT('',#169);
#169 = CARTESIAN_POINT('',(-29.70504802396,-16.29004187377,1.));
#170 = VERTEX_POINT('',#171);
#171 = CARTESIAN_POINT('',(-29.70504802396,-16.29004187377,2.));
#172 = LINE('',#173,#174);
#173 = CARTESIAN_POINT('',(-29.70504802396,-16.29004187377,1.));
#174 = VECTOR('',#175,1.);
#175 = DIRECTION('',(0.,0.,1.));
#176 = ORIENTED_EDGE('',*,*,#177,.T.);
#177 = EDGE_CURVE('',#170,#139,#178,.T.);
#178 = CIRCLE('',#179,499.17);
#179 = AXIS2_PLACEMENT_3D('',#180,#181,#182);
#180 = CARTESIAN_POINT('',(22.857638,480.104814,2.));
#181 = DIRECTION('',(0.,0.,1.));
#182 = DIRECTION('',(1.,0.,0.));
#183 = ORIENTED_EDGE('',*,*,#136,.F.);
#184 = ORIENTED_EDGE('',*,*,#185,.F.);
#185 = EDGE_CURVE('',#168,#137,#186,.T.);
#186 = CIRCLE('',#187,499.17);
#187 = AXIS2_PLACEMENT_3D('',#188,#189,#190);
#188 = CARTESIAN_POINT('',(22.857638,480.104814,1.));
#189 = DIRECTION('',(0.,0.,1.));
#190 = DIRECTION('',(1.,0.,0.));
#191 = CYLINDRICAL_SURFACE('',#192,499.17);
#192 = AXIS2_PLACEMENT_3D('',#193,#194,#195);
#193 = CARTESIAN_POINT('',(22.857638,480.104814,1.));
#194 = DIRECTION('',(-0.,-0.,-1.));
#195 = DIRECTION('',(1.,0.,0.));
#196 = ADVANCED_FACE('',(#197),#233,.T.);
#197 = FACE_BOUND('',#198,.F.);
#198 = EDGE_LOOP('',(#199,#209,#218,#226));
#199 = ORIENTED_EDGE('',*,*,#200,.T.);
#200 = EDGE_CURVE('',#201,#203,#205,.T.);
#201 = VERTEX_POINT('',#202);
#202 = CARTESIAN_POINT('',(-64.53470142648,27.322423938739,1.));
#203 = VERTEX_POINT('',#204);
#204 = CARTESIAN_POINT('',(-64.53470142648,27.322423938739,2.));
#205 = LINE('',#206,#207);
#206 = CARTESIAN_POINT('',(-64.53470142648,27.322423938739,1.));
#207 = VECTOR('',#208,1.);
#208 = DIRECTION('',(0.,0.,1.));
#209 = ORIENTED_EDGE('',*,*,#210,.T.);
#210 = EDGE_CURVE('',#203,#211,#213,.T.);
#211 = VERTEX_POINT('',#212);
#212 = CARTESIAN_POINT('',(-47.72139235643,-6.09553785808,2.));
#213 = CIRCLE('',#214,104.31);
#214 = AXIS2_PLACEMENT_3D('',#215,#216,#217);
#215 = CARTESIAN_POINT('',(35.542656,56.734983,2.));
#216 = DIRECTION('',(0.,0.,1.));
#217 = DIRECTION('',(1.,0.,0.));
#218 = ORIENTED_EDGE('',*,*,#219,.F.);
#219 = EDGE_CURVE('',#220,#211,#222,.T.);
#220 = VERTEX_POINT('',#221);
#221 = CARTESIAN_POINT('',(-47.72139235643,-6.09553785808,1.));
#222 = LINE('',#223,#224);
#223 = CARTESIAN_POINT('',(-47.72139235643,-6.09553785808,1.));
#224 = VECTOR('',#225,1.);
#225 = DIRECTION('',(0.,0.,1.));
#226 = ORIENTED_EDGE('',*,*,#227,.F.);
#227 = EDGE_CURVE('',#201,#220,#228,.T.);
#228 = CIRCLE('',#229,104.31);
#229 = AXIS2_PLACEMENT_3D('',#230,#231,#232);
#230 = CARTESIAN_POINT('',(35.542656,56.734983,1.));
#231 = DIRECTION('',(0.,0.,1.));
#232 = DIRECTION('',(1.,0.,0.));
#233 = CYLINDRICAL_SURFACE('',#234,104.31);
#234 = AXIS2_PLACEMENT_3D('',#235,#236,#237);
#235 = CARTESIAN_POINT('',(35.542656,56.734983,1.));
#236 = DIRECTION('',(-0.,-0.,-1.));
#237 = DIRECTION('',(1.,0.,0.));
#238 = ADVANCED_FACE('',(#239),#275,.F.);
#239 = FACE_BOUND('',#240,.F.);
#240 = EDGE_LOOP('',(#241,#252,#260,#269));
#241 = ORIENTED_EDGE('',*,*,#242,.F.);
#242 = EDGE_CURVE('',#243,#245,#247,.T.);
#243 = VERTEX_POINT('',#244);
#244 = CARTESIAN_POINT('',(4.,4.896908757976E-16,2.));
#245 = VERTEX_POINT('',#246);
#246 = CARTESIAN_POINT('',(-4.,4.898587196589E-16,2.));
#247 = CIRCLE('',#248,4.);
#248 = AXIS2_PLACEMENT_3D('',#249,#250,#251);
#249 = CARTESIAN_POINT('',(1.533616468095E-29,0.,2.));
#250 = DIRECTION('',(0.,0.,1.));
#251 = DIRECTION('',(1.,0.,0.));
#252 = ORIENTED_EDGE('',*,*,#253,.T.);
#253 = EDGE_CURVE('',#243,#254,#256,.T.);
#254 = VERTEX_POINT('',#255);
#255 = CARTESIAN_POINT('',(4.,4.896908757976E-16,1.));
#256 = LINE('',#257,#258);
#257 = CARTESIAN_POINT('',(4.,4.896908757976E-16,2.));
#258 = VECTOR('',#259,1.);
#259 = DIRECTION('',(-0.,-0.,-1.));
#260 = ORIENTED_EDGE('',*,*,#261,.T.);
#261 = EDGE_CURVE('',#254,#262,#264,.T.);
#262 = VERTEX_POINT('',#263);
#263 = CARTESIAN_POINT('',(-4.,4.898587196589E-16,1.));
#264 = CIRCLE('',#265,4.);
#265 = AXIS2_PLACEMENT_3D('',#266,#267,#268);
#266 = CARTESIAN_POINT('',(1.533616468095E-29,0.,1.));
#267 = DIRECTION('',(0.,0.,1.));
#268 = DIRECTION('',(1.,0.,0.));
#269 = ORIENTED_EDGE('',*,*,#270,.F.);
#270 = EDGE_CURVE('',#245,#262,#271,.T.);
#271 = LINE('',#272,#273);
#272 = CARTESIAN_POINT('',(-4.,4.898587196589E-16,2.));
#273 = VECTOR('',#274,1.);
#274 = DIRECTION('',(-0.,-0.,-1.));
#275 = CYLINDRICAL_SURFACE('',#276,4.);
#276 = AXIS2_PLACEMENT_3D('',#277,#278,#279);
#277 = CARTESIAN_POINT('',(1.533616468095E-29,0.,2.));
#278 = DIRECTION('',(0.,0.,1.));
#279 = DIRECTION('',(1.,0.,0.));
#280 = ADVANCED_FACE('',(#281),#306,.F.);
#281 = FACE_BOUND('',#282,.F.);
#282 = EDGE_LOOP('',(#283,#291,#292,#300));
#283 = ORIENTED_EDGE('',*,*,#284,.F.);
#284 = EDGE_CURVE('',#245,#285,#287,.T.);
#285 = VERTEX_POINT('',#286);
#286 = CARTESIAN_POINT('',(-4.,-9.4,2.));
#287 = LINE('',#288,#289);
#288 = CARTESIAN_POINT('',(-4.,4.898587196589E-16,2.));
#289 = VECTOR('',#290,1.);
#290 = DIRECTION('',(0.,-1.,0.));
#291 = ORIENTED_EDGE('',*,*,#270,.T.);
#292 = ORIENTED_EDGE('',*,*,#293,.T.);
#293 = EDGE_CURVE('',#262,#294,#296,.T.);
#294 = VERTEX_POINT('',#295);
#295 = CARTESIAN_POINT('',(-4.,-9.4,1.));
#296 = LINE('',#297,#298);
#297 = CARTESIAN_POINT('',(-4.,5.303097324844,1.));
#298 = VECTOR('',#299,1.);
#299 = DIRECTION('',(0.,-1.,0.));
#300 = ORIENTED_EDGE('',*,*,#301,.F.);
#301 = EDGE_CURVE('',#285,#294,#302,.T.);
#302 = LINE('',#303,#304);
#303 = CARTESIAN_POINT('',(-4.,-9.4,2.));
#304 = VECTOR('',#305,1.);
#305 = DIRECTION('',(-0.,-0.,-1.));
#306 = PLANE('',#307);
#307 = AXIS2_PLACEMENT_3D('',#308,#309,#310);
#308 = CARTESIAN_POINT('',(-4.,4.898587196589E-16,2.));
#309 = DIRECTION('',(-1.,0.,0.));
#310 = DIRECTION('',(0.,-1.,0.));
#311 = ADVANCED_FACE('',(#312),#339,.F.);
#312 = FACE_BOUND('',#313,.F.);
#313 = EDGE_LOOP('',(#314,#323,#324,#333));
#314 = ORIENTED_EDGE('',*,*,#315,.F.);
#315 = EDGE_CURVE('',#285,#316,#318,.T.);
#316 = VERTEX_POINT('',#317);
#317 = CARTESIAN_POINT('',(4.,-9.4,2.));
#318 = CIRCLE('',#319,4.);
#319 = AXIS2_PLACEMENT_3D('',#320,#321,#322);
#320 = CARTESIAN_POINT('',(1.814472510474E-16,-9.4,2.));
#321 = DIRECTION('',(0.,0.,1.));
#322 = DIRECTION('',(1.,0.,0.));
#323 = ORIENTED_EDGE('',*,*,#301,.T.);
#324 = ORIENTED_EDGE('',*,*,#325,.T.);
#325 = EDGE_CURVE('',#294,#326,#328,.T.);
#326 = VERTEX_POINT('',#327);
#327 = CARTESIAN_POINT('',(4.,-9.4,1.));
#328 = CIRCLE('',#329,4.);
#329 = AXIS2_PLACEMENT_3D('',#330,#331,#332);
#330 = CARTESIAN_POINT('',(1.814472510474E-16,-9.4,1.));
#331 = DIRECTION('',(0.,0.,1.));
#332 = DIRECTION('',(1.,0.,0.));
#333 = ORIENTED_EDGE('',*,*,#334,.F.);
#334 = EDGE_CURVE('',#316,#326,#335,.T.);
#335 = LINE('',#336,#337);
#336 = CARTESIAN_POINT('',(4.,-9.4,2.));
#337 = VECTOR('',#338,1.);
#338 = DIRECTION('',(-0.,-0.,-1.));
#339 = CYLINDRICAL_SURFACE('',#340,4.);
#340 = AXIS2_PLACEMENT_3D('',#341,#342,#343);
#341 = CARTESIAN_POINT('',(1.814472510474E-16,-9.4,2.));
#342 = DIRECTION('',(0.,0.,1.));
#343 = DIRECTION('',(1.,0.,0.));
#344 = ADVANCED_FACE('',(#345),#361,.T.);
#345 = FACE_BOUND('',#346,.T.);
#346 = EDGE_LOOP('',(#347,#353,#354,#360));
#347 = ORIENTED_EDGE('',*,*,#348,.F.);
#348 = EDGE_CURVE('',#243,#316,#349,.T.);
#349 = LINE('',#350,#351);
#350 = CARTESIAN_POINT('',(4.,4.896908757976E-16,2.));
#351 = VECTOR('',#352,1.);
#352 = DIRECTION('',(0.,-1.,0.));
#353 = ORIENTED_EDGE('',*,*,#253,.T.);
#354 = ORIENTED_EDGE('',*,*,#355,.T.);
#355 = EDGE_CURVE('',#254,#326,#356,.T.);
#356 = LINE('',#357,#358);
#357 = CARTESIAN_POINT('',(4.,5.303097324844,1.));
#358 = VECTOR('',#359,1.);
#359 = DIRECTION('',(0.,-1.,0.));
#360 = ORIENTED_EDGE('',*,*,#334,.F.);
#361 = PLANE('',#362);
#362 = AXIS2_PLACEMENT_3D('',#363,#364,#365);
#363 = CARTESIAN_POINT('',(4.,4.896908757976E-16,2.));
#364 = DIRECTION('',(-1.,0.,0.));
#365 = DIRECTION('',(0.,-1.,0.));
#366 = ADVANCED_FACE('',(#367),#401,.F.);
#367 = FACE_BOUND('',#368,.F.);
#368 = EDGE_LOOP('',(#369,#379,#387,#395));
#369 = ORIENTED_EDGE('',*,*,#370,.T.);
#370 = EDGE_CURVE('',#371,#373,#375,.T.);
#371 = VERTEX_POINT('',#372);
#372 = CARTESIAN_POINT('',(40.,0.,2.));
#373 = VERTEX_POINT('',#374);
#374 = CARTESIAN_POINT('',(40.,0.,1.8));
#375 = LINE('',#376,#377);
#376 = CARTESIAN_POINT('',(40.,0.,2.));
#377 = VECTOR('',#378,1.);
#378 = DIRECTION('',(-0.,-0.,-1.));
#379 = ORIENTED_EDGE('',*,*,#380,.T.);
#380 = EDGE_CURVE('',#373,#381,#383,.T.);
#381 = VERTEX_POINT('',#382);
#382 = CARTESIAN_POINT('',(31.339745962154,5.000000000003,1.8));
#383 = LINE('',#384,#385);
#384 = CARTESIAN_POINT('',(40.,0.,1.8));
#385 = VECTOR('',#386,1.);
#386 = DIRECTION('',(-0.866025403784,0.5,0.));
#387 = ORIENTED_EDGE('',*,*,#388,.F.);
#388 = EDGE_CURVE('',#389,#381,#391,.T.);
#389 = VERTEX_POINT('',#390);
#390 = CARTESIAN_POINT('',(31.339745962154,5.000000000003,2.));
#391 = LINE('',#392,#393);
#392 = CARTESIAN_POINT('',(31.339745962154,5.000000000003,2.));
#393 = VECTOR('',#394,1.);
#394 = DIRECTION('',(-0.,-0.,-1.));
#395 = ORIENTED_EDGE('',*,*,#396,.F.);
#396 = EDGE_CURVE('',#371,#389,#397,.T.);
#397 = LINE('',#398,#399);
#398 = CARTESIAN_POINT('',(40.,0.,2.));
#399 = VECTOR('',#400,1.);
#400 = DIRECTION('',(-0.866025403784,0.5,0.));
#401 = PLANE('',#402);
#402 = AXIS2_PLACEMENT_3D('',#403,#404,#405);
#403 = CARTESIAN_POINT('',(40.,0.,2.));
#404 = DIRECTION('',(0.5,0.866025403784,-0.));
#405 = DIRECTION('',(-0.866025403784,0.5,0.));
#406 = ADVANCED_FACE('',(#407),#432,.F.);
#407 = FACE_BOUND('',#408,.F.);
#408 = EDGE_LOOP('',(#409,#410,#418,#426));
#409 = ORIENTED_EDGE('',*,*,#388,.T.);
#410 = ORIENTED_EDGE('',*,*,#411,.T.);
#411 = EDGE_CURVE('',#381,#412,#414,.T.);
#412 = VERTEX_POINT('',#413);
#413 = CARTESIAN_POINT('',(31.339745962154,-4.999999999997,1.8));
#414 = LINE('',#415,#416);
#415 = CARTESIAN_POINT('',(31.339745962154,5.000000000003,1.8));
#416 = VECTOR('',#417,1.);
#417 = DIRECTION('',(0.,-1.,0.));
#418 = ORIENTED_EDGE('',*,*,#419,.F.);
#419 = EDGE_CURVE('',#420,#412,#422,.T.);
#420 = VERTEX_POINT('',#421);
#421 = CARTESIAN_POINT('',(31.339745962154,-4.999999999997,2.));
#422 = LINE('',#423,#424);
#423 = CARTESIAN_POINT('',(31.339745962154,-4.999999999997,2.));
#424 = VECTOR('',#425,1.);
#425 = DIRECTION('',(-0.,-0.,-1.));
#426 = ORIENTED_EDGE('',*,*,#427,.F.);
#427 = EDGE_CURVE('',#389,#420,#428,.T.);
#428 = LINE('',#429,#430);
#429 = CARTESIAN_POINT('',(31.339745962154,5.000000000003,2.));
#430 = VECTOR('',#431,1.);
#431 = DIRECTION('',(0.,-1.,0.));
#432 = PLANE('',#433);
#433 = AXIS2_PLACEMENT_3D('',#434,#435,#436);
#434 = CARTESIAN_POINT('',(31.339745962154,5.000000000003,2.));
#435 = DIRECTION('',(-1.,0.,0.));
#436 = DIRECTION('',(0.,-1.,0.));
#437 = ADVANCED_FACE('',(#438),#454,.F.);
#438 = FACE_BOUND('',#439,.F.);
#439 = EDGE_LOOP('',(#440,#441,#447,#448));
#440 = ORIENTED_EDGE('',*,*,#419,.T.);
#441 = ORIENTED_EDGE('',*,*,#442,.T.);
#442 = EDGE_CURVE('',#412,#373,#443,.T.);
#443 = LINE('',#444,#445);
#444 = CARTESIAN_POINT('',(31.339745962154,-4.999999999997,1.8));
#445 = VECTOR('',#446,1.);
#446 = DIRECTION('',(0.866025403785,0.5,0.));
#447 = ORIENTED_EDGE('',*,*,#370,.F.);
#448 = ORIENTED_EDGE('',*,*,#449,.F.);
#449 = EDGE_CURVE('',#420,#371,#450,.T.);
#450 = LINE('',#451,#452);
#451 = CARTESIAN_POINT('',(31.339745962154,-4.999999999997,2.));
#452 = VECTOR('',#453,1.);
#453 = DIRECTION('',(0.866025403785,0.5,0.));
#454 = PLANE('',#455);
#455 = AXIS2_PLACEMENT_3D('',#456,#457,#458);
#456 = CARTESIAN_POINT('',(31.339745962154,-4.999999999997,2.));
#457 = DIRECTION('',(0.5,-0.866025403785,0.));
#458 = DIRECTION('',(0.866025403785,0.5,0.));
#459 = ADVANCED_FACE('',(#460),#465,.T.);
#460 = FACE_BOUND('',#461,.T.);
#461 = EDGE_LOOP('',(#462,#463,#464));
#462 = ORIENTED_EDGE('',*,*,#380,.T.);
#463 = ORIENTED_EDGE('',*,*,#411,.T.);
#464 = ORIENTED_EDGE('',*,*,#442,.T.);
#465 = PLANE('',#466);
#466 = AXIS2_PLACEMENT_3D('',#467,#468,#469);
#467 = CARTESIAN_POINT('',(34.226497308103,2.062823985701E-12,1.8));
#468 = DIRECTION('',(0.,0.,1.));
#469 = DIRECTION('',(1.,0.,0.));
#470 = ( GEOMETRIC_REPRESENTATION_CONTEXT(3) 
GLOBAL_UNCERTAINTY_ASSIGNED_CONTEXT((#474)) GLOBAL_UNIT_ASSIGNED_CONTEXT
((#471,#472,#473)) REPRESENTATION_CONTEXT('Context #1',
  '3D Context with UNIT and UNCERTAINTY') );
#471 = ( LENGTH_UNIT() NAMED_UNIT(*) SI_UNIT(.MILLI.,.METRE.) );
#472 = ( NAMED_UNIT(*) PLANE_ANGLE_UNIT() SI_UNIT($,.RADIAN.) );
#473 = ( NAMED_UNIT(*) SI_UNIT($,.STERADIAN.) SOLID_ANGLE_UNIT() );
#474 = UNCERTAINTY_MEASURE_WITH_UNIT(LENGTH_MEASURE(2.E-05),#471,
  'distance_accuracy_value','confusion accuracy');
#475 = PRODUCT_RELATED_PRODUCT_CATEGORY('part',$,(#7));
#476 = MECHANICAL_DESIGN_GEOMETRIC_PRESENTATION_REPRESENTATION('',(#477)
  ,#470);
#477 = STYLED_ITEM('color',(#478),#15);
#478 = PRESENTATION_STYLE_ASSIGNMENT((#479,#487));
#479 = SURFACE_STYLE_USAGE(.BOTH.,#480);
#480 = SURFACE_SIDE_STYLE('',(#481,#485));
#481 = SURFACE_STYLE_FILL_AREA(#482);
#482 = FILL_AREA_STYLE('',(#483));
#483 = FILL_AREA_STYLE_COLOUR('',#484);
#484 = COLOUR_RGB('',0.800000010877,0.800000010877,0.90196104065);
#485 = SURFACE_STYLE_RENDERING_WITH_PROPERTIES(.NORMAL_SHADING.,#484,(
    #486));
#486 = SURFACE_STYLE_TRANSPARENT(0.699999988079);
#487 = CURVE_STYLE('',#488,POSITIVE_LENGTH_MEASURE(0.1),#489);
#488 = DRAUGHTING_PRE_DEFINED_CURVE_FONT('continuous');
#489 = COLOUR_RGB('',9.803921802644E-02,9.803921802644E-02,
  9.803921802644E-02);
ENDSEC;
END-ISO-10303-21;
