ISO-10303-21;
HEADER;
FILE_DESCRIPTION(('FreeCAD Model'),'2;1');
FILE_NAME('Open CASCADE Shape Model','2025-06-18T09:40:21',(''),(''),
  'Open CASCADE STEP processor 7.7','FreeCAD','Unknown');
FILE_SCHEMA(('AUTOMOTIVE_DESIGN { 1 0 10303 214 1 1 1 1 }'));
ENDSEC;
DATA;
#1 = APPLICATION_PROTOCOL_DEFINITION('international standard',
  'automotive_design',2000,#2);
#2 = APPLICATION_CONTEXT(
  'core data for automotive mechanical design processes');
#3 = SHAPE_DEFINITION_REPRESENTATION(#4,#10);
#4 = PRODUCT_DEFINITION_SHAPE('','',#5);
#5 = PRODUCT_DEFINITION('design','',#6,#9);
#6 = PRODUCT_DEFINITION_FORMATION('','',#7);
#7 = PRODUCT('center','center','',(#8));
#8 = PRODUCT_CONTEXT('',#2,'mechanical');
#9 = PRODUCT_DEFINITION_CONTEXT('part definition',#2,'design');
#10 = ADVANCED_BREP_SHAPE_REPRESENTATION('',(#11,#15),#1608);
#11 = AXIS2_PLACEMENT_3D('',#12,#13,#14);
#12 = CARTESIAN_POINT('',(0.,0.,0.));
#13 = DIRECTION('',(0.,0.,1.));
#14 = DIRECTION('',(1.,0.,-0.));
#15 = MANIFOLD_SOLID_BREP('',#16);
#16 = CLOSED_SHELL('',(#17,#185,#216,#241,#266,#290,#315,#340,#365,#382,
    #414,#449,#483,#507,#532,#564,#595,#613,#638,#669,#694,#719,#743,
    #768,#793,#818,#835,#871,#911,#951,#978,#1005,#1044,#1083,#1101,
    #1126,#1157,#1182,#1207,#1231,#1256,#1281,#1306,#1323,#1355,#1390,
    #1424,#1448,#1473,#1505,#1536,#1554,#1579));
#17 = ADVANCED_FACE('',(#18,#89,#169),#180,.F.);
#18 = FACE_BOUND('',#19,.F.);
#19 = EDGE_LOOP('',(#20,#30,#39,#47,#56,#64,#73,#82));
#20 = ORIENTED_EDGE('',*,*,#21,.F.);
#21 = EDGE_CURVE('',#22,#24,#26,.T.);
#22 = VERTEX_POINT('',#23);
#23 = CARTESIAN_POINT('',(-22.,13.9,4.996003610813E-16));
#24 = VERTEX_POINT('',#25);
#25 = CARTESIAN_POINT('',(-76.05544171172,13.9,3.608224830032E-16));
#26 = LINE('',#27,#28);
#27 = CARTESIAN_POINT('',(-22.,13.9,0.));
#28 = VECTOR('',#29,1.);
#29 = DIRECTION('',(-1.,0.,0.));
#30 = ORIENTED_EDGE('',*,*,#31,.F.);
#31 = EDGE_CURVE('',#32,#22,#34,.T.);
#32 = VERTEX_POINT('',#33);
#33 = CARTESIAN_POINT('',(-19.6,11.5,-5.551115123126E-17));
#34 = CIRCLE('',#35,2.4);
#35 = AXIS2_PLACEMENT_3D('',#36,#37,#38);
#36 = CARTESIAN_POINT('',(-22.,11.5,0.));
#37 = DIRECTION('',(0.,0.,1.));
#38 = DIRECTION('',(1.,0.,0.));
#39 = ORIENTED_EDGE('',*,*,#40,.F.);
#40 = EDGE_CURVE('',#41,#32,#43,.T.);
#41 = VERTEX_POINT('',#42);
#42 = CARTESIAN_POINT('',(-19.6,-11.5,-7.771561172376E-16));
#43 = LINE('',#44,#45);
#44 = CARTESIAN_POINT('',(-19.6,-11.5,0.));
#45 = VECTOR('',#46,1.);
#46 = DIRECTION('',(0.,1.,0.));
#47 = ORIENTED_EDGE('',*,*,#48,.F.);
#48 = EDGE_CURVE('',#49,#41,#51,.T.);
#49 = VERTEX_POINT('',#50);
#50 = CARTESIAN_POINT('',(-22.,-13.9,6.383782391595E-16));
#51 = CIRCLE('',#52,2.4);
#52 = AXIS2_PLACEMENT_3D('',#53,#54,#55);
#53 = CARTESIAN_POINT('',(-22.,-11.5,0.));
#54 = DIRECTION('',(-0.,0.,1.));
#55 = DIRECTION('',(0.,-1.,0.));
#56 = ORIENTED_EDGE('',*,*,#57,.F.);
#57 = EDGE_CURVE('',#58,#49,#60,.T.);
#58 = VERTEX_POINT('',#59);
#59 = CARTESIAN_POINT('',(-76.05544171172,-13.9,2.831068712794E-15));
#60 = LINE('',#61,#62);
#61 = CARTESIAN_POINT('',(-76.05544171172,-13.9,0.));
#62 = VECTOR('',#63,1.);
#63 = DIRECTION('',(1.,0.,0.));
#64 = ORIENTED_EDGE('',*,*,#65,.F.);
#65 = EDGE_CURVE('',#66,#58,#68,.T.);
#66 = VERTEX_POINT('',#67);
#67 = CARTESIAN_POINT('',(-80.63040328943,-11.36875,-7.771561172376E-16)
  );
#68 = CIRCLE('',#69,5.4);
#69 = AXIS2_PLACEMENT_3D('',#70,#71,#72);
#70 = CARTESIAN_POINT('',(-76.05544171172,-8.5,0.));
#71 = DIRECTION('',(0.,0.,1.));
#72 = DIRECTION('',(-0.847215106983,-0.53125,0.));
#73 = ORIENTED_EDGE('',*,*,#74,.F.);
#74 = EDGE_CURVE('',#75,#66,#77,.T.);
#75 = VERTEX_POINT('',#76);
#76 = CARTESIAN_POINT('',(-80.63040328943,11.36875,2.831068712794E-15));
#77 = CIRCLE('',#78,21.4);
#78 = AXIS2_PLACEMENT_3D('',#79,#80,#81);
#79 = CARTESIAN_POINT('',(-62.5,-3.944304526105E-31,0.));
#80 = DIRECTION('',(0.,0.,1.));
#81 = DIRECTION('',(-0.847215106983,0.53125,0.));
#82 = ORIENTED_EDGE('',*,*,#83,.F.);
#83 = EDGE_CURVE('',#24,#75,#84,.T.);
#84 = CIRCLE('',#85,5.4);
#85 = AXIS2_PLACEMENT_3D('',#86,#87,#88);
#86 = CARTESIAN_POINT('',(-76.05544171172,8.5,0.));
#87 = DIRECTION('',(0.,-0.,1.));
#88 = DIRECTION('',(0.,1.,0.));
#89 = FACE_BOUND('',#90,.F.);
#90 = EDGE_LOOP('',(#91,#102,#113,#122,#132,#141,#151,#160));
#91 = ORIENTED_EDGE('',*,*,#92,.T.);
#92 = EDGE_CURVE('',#93,#95,#97,.T.);
#93 = VERTEX_POINT('',#94);
#94 = CARTESIAN_POINT('',(8.149086262957,-14.71967527989,
    1.110223024625E-16));
#95 = VERTEX_POINT('',#96);
#96 = CARTESIAN_POINT('',(8.149086262957,14.719675279899,
    1.110223024625E-16));
#97 = CIRCLE('',#98,22.6);
#98 = AXIS2_PLACEMENT_3D('',#99,#100,#101);
#99 = CARTESIAN_POINT('',(-9.,4.086628207384E-23,0.));
#100 = DIRECTION('',(-0.,0.,1.));
#101 = DIRECTION('',(0.75880912668,-0.651313065482,0.));
#102 = ORIENTED_EDGE('',*,*,#103,.T.);
#103 = EDGE_CURVE('',#95,#104,#106,.T.);
#104 = VERTEX_POINT('',#105);
#105 = CARTESIAN_POINT('',(3.81091367891,17.603740815847,0.));
#106 = B_SPLINE_CURVE_WITH_KNOTS('',5,(#107,#108,#109,#110,#111,#112),
  .UNSPECIFIED.,.F.,.F.,(6,6),(32.628424846211,38.12374131437),
  .PIECEWISE_BEZIER_KNOTS.);
#107 = CARTESIAN_POINT('',(8.149086262957,14.719675279899,0.));
#108 = CARTESIAN_POINT('',(7.462166462936,15.519967859884,0.));
#109 = CARTESIAN_POINT('',(6.664922009132,16.226433939029,0.));
#110 = CARTESIAN_POINT('',(5.774619846912,16.818317540012,0.));
#111 = CARTESIAN_POINT('',(4.814681437595,17.280045637481,0.));
#112 = CARTESIAN_POINT('',(3.81091367891,17.603740815847,0.));
#113 = ORIENTED_EDGE('',*,*,#114,.T.);
#114 = EDGE_CURVE('',#104,#115,#117,.T.);
#115 = VERTEX_POINT('',#116);
#116 = CARTESIAN_POINT('',(-75.75712619762,18.548643135444,
    -7.771561172376E-16));
#117 = CIRCLE('',#118,134.6);
#118 = AXIS2_PLACEMENT_3D('',#119,#120,#121);
#119 = CARTESIAN_POINT('',(-37.5,-110.5,0.));
#120 = DIRECTION('',(0.,-0.,1.));
#121 = DIRECTION('',(0.306916149175,0.95173655881,0.));
#122 = ORIENTED_EDGE('',*,*,#123,.T.);
#123 = EDGE_CURVE('',#115,#124,#126,.T.);
#124 = VERTEX_POINT('',#125);
#125 = CARTESIAN_POINT('',(-79.05136251459,16.820242982726,0.));
#126 = B_SPLINE_CURVE_WITH_KNOTS('',4,(#127,#128,#129,#130,#131),
  .UNSPECIFIED.,.F.,.F.,(5,5),(119.14432997865,123.04412989378),
  .PIECEWISE_BEZIER_KNOTS.);
#127 = CARTESIAN_POINT('',(-75.75712619762,18.548643135444,0.));
#128 = CARTESIAN_POINT('',(-76.65412318881,18.282723818068,0.));
#129 = CARTESIAN_POINT('',(-77.51734462697,17.900002953608,0.));
#130 = CARTESIAN_POINT('',(-78.322809452,17.407207551099,0.));
#131 = CARTESIAN_POINT('',(-79.05136251459,16.820242982726,0.));
#132 = ORIENTED_EDGE('',*,*,#133,.T.);
#133 = EDGE_CURVE('',#124,#134,#136,.T.);
#134 = VERTEX_POINT('',#135);
#135 = CARTESIAN_POINT('',(-79.05136251459,-16.82024298272,
    2.831068712794E-15));
#136 = CIRCLE('',#137,21.6);
#137 = AXIS2_PLACEMENT_3D('',#138,#139,#140);
#138 = CARTESIAN_POINT('',(-65.5,7.639723436613E-26,0.));
#139 = DIRECTION('',(0.,0.,1.));
#140 = DIRECTION('',(-0.627377894194,0.778714952904,0.));
#141 = ORIENTED_EDGE('',*,*,#142,.T.);
#142 = EDGE_CURVE('',#134,#143,#145,.T.);
#143 = VERTEX_POINT('',#144);
#144 = CARTESIAN_POINT('',(-75.75712619762,-18.54864313544,0.));
#145 = B_SPLINE_CURVE_WITH_KNOTS('',4,(#146,#147,#148,#149,#150),
  .UNSPECIFIED.,.F.,.F.,(5,5),(162.31918650619,166.21898642132),
  .PIECEWISE_BEZIER_KNOTS.);
#146 = CARTESIAN_POINT('',(-79.05136251459,-16.82024298272,0.));
#147 = CARTESIAN_POINT('',(-78.32280957018,-17.40720745588,0.));
#148 = CARTESIAN_POINT('',(-77.51734212041,-17.90000426873,0.));
#149 = CARTESIAN_POINT('',(-76.65412333431,-18.28272377493,0.));
#150 = CARTESIAN_POINT('',(-75.75712619762,-18.54864313544,0.));
#151 = ORIENTED_EDGE('',*,*,#152,.T.);
#152 = EDGE_CURVE('',#143,#153,#155,.T.);
#153 = VERTEX_POINT('',#154);
#154 = CARTESIAN_POINT('',(3.81091367891,-17.60374081584,
    -7.771561172376E-16));
#155 = CIRCLE('',#156,134.6);
#156 = AXIS2_PLACEMENT_3D('',#157,#158,#159);
#157 = CARTESIAN_POINT('',(-37.5,110.5,0.));
#158 = DIRECTION('',(0.,0.,1.));
#159 = DIRECTION('',(-0.284228277843,-0.958756635479,0.));
#160 = ORIENTED_EDGE('',*,*,#161,.T.);
#161 = EDGE_CURVE('',#153,#93,#162,.T.);
#162 = B_SPLINE_CURVE_WITH_KNOTS('',5,(#163,#164,#165,#166,#167,#168),
  .UNSPECIFIED.,.F.,.F.,(6,6),(247.2395750856,252.73489155376),
  .PIECEWISE_BEZIER_KNOTS.);
#163 = CARTESIAN_POINT('',(3.81091367891,-17.60374081584,0.));
#164 = CARTESIAN_POINT('',(4.814680870601,-17.28004582032,0.));
#165 = CARTESIAN_POINT('',(5.774626345929,-16.81831242917,0.));
#166 = CARTESIAN_POINT('',(6.664929236795,-16.22642992421,0.));
#167 = CARTESIAN_POINT('',(7.462166074919,-15.51996831194,0.));
#168 = CARTESIAN_POINT('',(8.149086262957,-14.71967527989,0.));
#169 = FACE_BOUND('',#170,.F.);
#170 = EDGE_LOOP('',(#171));
#171 = ORIENTED_EDGE('',*,*,#172,.F.);
#172 = EDGE_CURVE('',#173,#173,#175,.T.);
#173 = VERTEX_POINT('',#174);
#174 = CARTESIAN_POINT('',(4.9,0.,0.));
#175 = CIRCLE('',#176,4.9);
#176 = AXIS2_PLACEMENT_3D('',#177,#178,#179);
#177 = CARTESIAN_POINT('',(0.,0.,0.));
#178 = DIRECTION('',(0.,0.,1.));
#179 = DIRECTION('',(1.,0.,0.));
#180 = PLANE('',#181);
#181 = AXIS2_PLACEMENT_3D('',#182,#183,#184);
#182 = CARTESIAN_POINT('',(-39.99752494043,3.032853399893E-15,0.));
#183 = DIRECTION('',(0.,0.,1.));
#184 = DIRECTION('',(1.,0.,0.));
#185 = ADVANCED_FACE('',(#186),#211,.F.);
#186 = FACE_BOUND('',#187,.F.);
#187 = EDGE_LOOP('',(#188,#196,#197,#205));
#188 = ORIENTED_EDGE('',*,*,#189,.F.);
#189 = EDGE_CURVE('',#22,#190,#192,.T.);
#190 = VERTEX_POINT('',#191);
#191 = CARTESIAN_POINT('',(-22.,13.5,0.4));
#192 = LINE('',#193,#194);
#193 = CARTESIAN_POINT('',(-22.,13.7,0.2));
#194 = VECTOR('',#195,1.);
#195 = DIRECTION('',(0.,-0.707106781187,0.707106781187));
#196 = ORIENTED_EDGE('',*,*,#21,.T.);
#197 = ORIENTED_EDGE('',*,*,#198,.T.);
#198 = EDGE_CURVE('',#24,#199,#201,.T.);
#199 = VERTEX_POINT('',#200);
#200 = CARTESIAN_POINT('',(-76.05544171172,13.5,0.4));
#201 = LINE('',#202,#203);
#202 = CARTESIAN_POINT('',(-76.05544171172,13.7,0.2));
#203 = VECTOR('',#204,1.);
#204 = DIRECTION('',(0.,-0.707106781187,0.707106781187));
#205 = ORIENTED_EDGE('',*,*,#206,.F.);
#206 = EDGE_CURVE('',#190,#199,#207,.T.);
#207 = LINE('',#208,#209);
#208 = CARTESIAN_POINT('',(-22.,13.5,0.4));
#209 = VECTOR('',#210,1.);
#210 = DIRECTION('',(-1.,0.,0.));
#211 = PLANE('',#212);
#212 = AXIS2_PLACEMENT_3D('',#213,#214,#215);
#213 = CARTESIAN_POINT('',(-22.,13.7,0.2));
#214 = DIRECTION('',(-3.474993633276E-18,0.707106781187,0.707106781187)
  );
#215 = DIRECTION('',(-1.,-2.457191562669E-18,-2.457191562669E-18));
#216 = ADVANCED_FACE('',(#217),#236,.F.);
#217 = FACE_BOUND('',#218,.F.);
#218 = EDGE_LOOP('',(#219,#227,#228,#229));
#219 = ORIENTED_EDGE('',*,*,#220,.F.);
#220 = EDGE_CURVE('',#32,#221,#223,.T.);
#221 = VERTEX_POINT('',#222);
#222 = CARTESIAN_POINT('',(-20.,11.5,0.4));
#223 = LINE('',#224,#225);
#224 = CARTESIAN_POINT('',(-19.8,11.5,0.2));
#225 = VECTOR('',#226,1.);
#226 = DIRECTION('',(-0.707106781187,0.,0.707106781187));
#227 = ORIENTED_EDGE('',*,*,#31,.T.);
#228 = ORIENTED_EDGE('',*,*,#189,.T.);
#229 = ORIENTED_EDGE('',*,*,#230,.F.);
#230 = EDGE_CURVE('',#221,#190,#231,.T.);
#231 = CIRCLE('',#232,2.);
#232 = AXIS2_PLACEMENT_3D('',#233,#234,#235);
#233 = CARTESIAN_POINT('',(-22.,11.5,0.4));
#234 = DIRECTION('',(0.,0.,1.));
#235 = DIRECTION('',(1.,0.,0.));
#236 = CONICAL_SURFACE('',#237,2.,0.785398163397);
#237 = AXIS2_PLACEMENT_3D('',#238,#239,#240);
#238 = CARTESIAN_POINT('',(-22.,11.5,0.4));
#239 = DIRECTION('',(-0.,-0.,-1.));
#240 = DIRECTION('',(1.,0.,0.));
#241 = ADVANCED_FACE('',(#242),#261,.F.);
#242 = FACE_BOUND('',#243,.F.);
#243 = EDGE_LOOP('',(#244,#245,#246,#254));
#244 = ORIENTED_EDGE('',*,*,#198,.F.);
#245 = ORIENTED_EDGE('',*,*,#83,.T.);
#246 = ORIENTED_EDGE('',*,*,#247,.T.);
#247 = EDGE_CURVE('',#75,#248,#250,.T.);
#248 = VERTEX_POINT('',#249);
#249 = CARTESIAN_POINT('',(-80.29151724664,11.15625,0.4));
#250 = LINE('',#251,#252);
#251 = CARTESIAN_POINT('',(-80.29151724664,11.15625,0.4));
#252 = VECTOR('',#253,1.);
#253 = DIRECTION('',(0.599071547271,-0.375650477505,0.707106781187));
#254 = ORIENTED_EDGE('',*,*,#255,.F.);
#255 = EDGE_CURVE('',#199,#248,#256,.T.);
#256 = CIRCLE('',#257,5.);
#257 = AXIS2_PLACEMENT_3D('',#258,#259,#260);
#258 = CARTESIAN_POINT('',(-76.05544171172,8.5,0.4));
#259 = DIRECTION('',(0.,-0.,1.));
#260 = DIRECTION('',(0.,1.,0.));
#261 = CONICAL_SURFACE('',#262,5.,0.785398163397);
#262 = AXIS2_PLACEMENT_3D('',#263,#264,#265);
#263 = CARTESIAN_POINT('',(-76.05544171172,8.5,0.4));
#264 = DIRECTION('',(-0.,-0.,-1.));
#265 = DIRECTION('',(0.,1.,0.));
#266 = ADVANCED_FACE('',(#267),#285,.T.);
#267 = FACE_BOUND('',#268,.F.);
#268 = EDGE_LOOP('',(#269,#277,#278,#279));
#269 = ORIENTED_EDGE('',*,*,#270,.F.);
#270 = EDGE_CURVE('',#41,#271,#273,.T.);
#271 = VERTEX_POINT('',#272);
#272 = CARTESIAN_POINT('',(-20.,-11.5,0.4));
#273 = LINE('',#274,#275);
#274 = CARTESIAN_POINT('',(-20.,-11.5,0.4));
#275 = VECTOR('',#276,1.);
#276 = DIRECTION('',(-0.707106781187,4.329780281177E-17,0.707106781187)
  );
#277 = ORIENTED_EDGE('',*,*,#40,.T.);
#278 = ORIENTED_EDGE('',*,*,#220,.T.);
#279 = ORIENTED_EDGE('',*,*,#280,.F.);
#280 = EDGE_CURVE('',#271,#221,#281,.T.);
#281 = LINE('',#282,#283);
#282 = CARTESIAN_POINT('',(-20.,-11.5,0.4));
#283 = VECTOR('',#284,1.);
#284 = DIRECTION('',(0.,1.,0.));
#285 = PLANE('',#286);
#286 = AXIS2_PLACEMENT_3D('',#287,#288,#289);
#287 = CARTESIAN_POINT('',(-19.8,-11.5,0.2));
#288 = DIRECTION('',(-0.707106781187,-6.949987266552E-18,-0.707106781187
    ));
#289 = DIRECTION('',(4.914383125339E-18,-1.,4.914383125339E-18));
#290 = ADVANCED_FACE('',(#291),#310,.F.);
#291 = FACE_BOUND('',#292,.F.);
#292 = EDGE_LOOP('',(#293,#294,#295,#303));
#293 = ORIENTED_EDGE('',*,*,#247,.F.);
#294 = ORIENTED_EDGE('',*,*,#74,.T.);
#295 = ORIENTED_EDGE('',*,*,#296,.T.);
#296 = EDGE_CURVE('',#66,#297,#299,.T.);
#297 = VERTEX_POINT('',#298);
#298 = CARTESIAN_POINT('',(-80.29151724664,-11.15625,0.4));
#299 = LINE('',#300,#301);
#300 = CARTESIAN_POINT('',(-80.29151724664,-11.15625,0.4));
#301 = VECTOR('',#302,1.);
#302 = DIRECTION('',(0.599071547271,0.375650477505,0.707106781187));
#303 = ORIENTED_EDGE('',*,*,#304,.F.);
#304 = EDGE_CURVE('',#248,#297,#305,.T.);
#305 = CIRCLE('',#306,21.);
#306 = AXIS2_PLACEMENT_3D('',#307,#308,#309);
#307 = CARTESIAN_POINT('',(-62.5,-3.944304526105E-31,0.4));
#308 = DIRECTION('',(0.,0.,1.));
#309 = DIRECTION('',(-0.847215106983,0.53125,0.));
#310 = CONICAL_SURFACE('',#311,21.,0.785398163397);
#311 = AXIS2_PLACEMENT_3D('',#312,#313,#314);
#312 = CARTESIAN_POINT('',(-62.5,-3.944304526105E-31,0.4));
#313 = DIRECTION('',(-0.,-0.,-1.));
#314 = DIRECTION('',(-0.847215106983,0.53125,0.));
#315 = ADVANCED_FACE('',(#316),#335,.F.);
#316 = FACE_BOUND('',#317,.F.);
#317 = EDGE_LOOP('',(#318,#326,#327,#328));
#318 = ORIENTED_EDGE('',*,*,#319,.F.);
#319 = EDGE_CURVE('',#49,#320,#322,.T.);
#320 = VERTEX_POINT('',#321);
#321 = CARTESIAN_POINT('',(-22.,-13.5,0.4));
#322 = LINE('',#323,#324);
#323 = CARTESIAN_POINT('',(-22.,-13.7,0.2));
#324 = VECTOR('',#325,1.);
#325 = DIRECTION('',(0.,0.707106781187,0.707106781187));
#326 = ORIENTED_EDGE('',*,*,#48,.T.);
#327 = ORIENTED_EDGE('',*,*,#270,.T.);
#328 = ORIENTED_EDGE('',*,*,#329,.F.);
#329 = EDGE_CURVE('',#320,#271,#330,.T.);
#330 = CIRCLE('',#331,2.);
#331 = AXIS2_PLACEMENT_3D('',#332,#333,#334);
#332 = CARTESIAN_POINT('',(-22.,-11.5,0.4));
#333 = DIRECTION('',(-0.,0.,1.));
#334 = DIRECTION('',(0.,-1.,0.));
#335 = CONICAL_SURFACE('',#336,2.,0.785398163397);
#336 = AXIS2_PLACEMENT_3D('',#337,#338,#339);
#337 = CARTESIAN_POINT('',(-22.,-11.5,0.4));
#338 = DIRECTION('',(-0.,-0.,-1.));
#339 = DIRECTION('',(0.,-1.,0.));
#340 = ADVANCED_FACE('',(#341),#360,.F.);
#341 = FACE_BOUND('',#342,.F.);
#342 = EDGE_LOOP('',(#343,#344,#345,#353));
#343 = ORIENTED_EDGE('',*,*,#296,.F.);
#344 = ORIENTED_EDGE('',*,*,#65,.T.);
#345 = ORIENTED_EDGE('',*,*,#346,.T.);
#346 = EDGE_CURVE('',#58,#347,#349,.T.);
#347 = VERTEX_POINT('',#348);
#348 = CARTESIAN_POINT('',(-76.05544171172,-13.5,0.4));
#349 = LINE('',#350,#351);
#350 = CARTESIAN_POINT('',(-76.05544171172,-13.5,0.4));
#351 = VECTOR('',#352,1.);
#352 = DIRECTION('',(1.665334536938E-15,0.707106781187,0.707106781187));
#353 = ORIENTED_EDGE('',*,*,#354,.F.);
#354 = EDGE_CURVE('',#297,#347,#355,.T.);
#355 = CIRCLE('',#356,5.);
#356 = AXIS2_PLACEMENT_3D('',#357,#358,#359);
#357 = CARTESIAN_POINT('',(-76.05544171172,-8.5,0.4));
#358 = DIRECTION('',(0.,0.,1.));
#359 = DIRECTION('',(-0.847215106983,-0.53125,0.));
#360 = CONICAL_SURFACE('',#361,5.,0.785398163397);
#361 = AXIS2_PLACEMENT_3D('',#362,#363,#364);
#362 = CARTESIAN_POINT('',(-76.05544171172,-8.5,0.4));
#363 = DIRECTION('',(-0.,-0.,-1.));
#364 = DIRECTION('',(-0.847215106983,-0.53125,0.));
#365 = ADVANCED_FACE('',(#366),#377,.T.);
#366 = FACE_BOUND('',#367,.F.);
#367 = EDGE_LOOP('',(#368,#369,#370,#371));
#368 = ORIENTED_EDGE('',*,*,#346,.F.);
#369 = ORIENTED_EDGE('',*,*,#57,.T.);
#370 = ORIENTED_EDGE('',*,*,#319,.T.);
#371 = ORIENTED_EDGE('',*,*,#372,.F.);
#372 = EDGE_CURVE('',#347,#320,#373,.T.);
#373 = LINE('',#374,#375);
#374 = CARTESIAN_POINT('',(-76.05544171172,-13.5,0.4));
#375 = VECTOR('',#376,1.);
#376 = DIRECTION('',(1.,0.,0.));
#377 = PLANE('',#378);
#378 = AXIS2_PLACEMENT_3D('',#379,#380,#381);
#379 = CARTESIAN_POINT('',(-76.05544171172,-13.7,0.2));
#380 = DIRECTION('',(3.474993633276E-18,0.707106781187,-0.707106781187)
  );
#381 = DIRECTION('',(-1.,2.457191562669E-18,-2.457191562669E-18));
#382 = ADVANCED_FACE('',(#383),#409,.T.);
#383 = FACE_BOUND('',#384,.T.);
#384 = EDGE_LOOP('',(#385,#393,#394,#402));
#385 = ORIENTED_EDGE('',*,*,#386,.F.);
#386 = EDGE_CURVE('',#93,#387,#389,.T.);
#387 = VERTEX_POINT('',#388);
#388 = CARTESIAN_POINT('',(8.452609913629,-14.98020050609,0.4));
#389 = LINE('',#390,#391);
#390 = CARTESIAN_POINT('',(8.452609913629,-14.98020050609,0.4));
#391 = VECTOR('',#392,1.);
#392 = DIRECTION('',(0.536559079101,-0.460547885278,0.707106781187));
#393 = ORIENTED_EDGE('',*,*,#92,.T.);
#394 = ORIENTED_EDGE('',*,*,#395,.T.);
#395 = EDGE_CURVE('',#95,#396,#398,.T.);
#396 = VERTEX_POINT('',#397);
#397 = CARTESIAN_POINT('',(8.452609913629,14.980200506092,0.4));
#398 = LINE('',#399,#400);
#399 = CARTESIAN_POINT('',(8.452609913629,14.980200506092,0.4));
#400 = VECTOR('',#401,1.);
#401 = DIRECTION('',(0.536559079101,0.460547885278,0.707106781187));
#402 = ORIENTED_EDGE('',*,*,#403,.F.);
#403 = EDGE_CURVE('',#387,#396,#404,.T.);
#404 = CIRCLE('',#405,23.);
#405 = AXIS2_PLACEMENT_3D('',#406,#407,#408);
#406 = CARTESIAN_POINT('',(-9.,4.086628207384E-23,0.4));
#407 = DIRECTION('',(-0.,0.,1.));
#408 = DIRECTION('',(0.75880912668,-0.651313065482,0.));
#409 = CONICAL_SURFACE('',#410,23.,0.785398163397);
#410 = AXIS2_PLACEMENT_3D('',#411,#412,#413);
#411 = CARTESIAN_POINT('',(-9.,4.086628207384E-23,0.4));
#412 = DIRECTION('',(0.,0.,1.));
#413 = DIRECTION('',(0.75880912668,-0.651313065482,0.));
#414 = ADVANCED_FACE('',(#415),#436,.F.);
#415 = FACE_BOUND('',#416,.F.);
#416 = EDGE_LOOP('',(#417,#425,#434,#435));
#417 = ORIENTED_EDGE('',*,*,#418,.T.);
#418 = EDGE_CURVE('',#153,#419,#421,.T.);
#419 = VERTEX_POINT('',#420);
#420 = CARTESIAN_POINT('',(3.93368013858,-17.98443543937,0.4));
#421 = LINE('',#422,#423);
#422 = CARTESIAN_POINT('',(3.93368013858,-17.98443543937,0.4));
#423 = VECTOR('',#424,1.);
#424 = DIRECTION('',(0.217022490337,-0.672979374638,0.707106781187));
#425 = ORIENTED_EDGE('',*,*,#426,.T.);
#426 = EDGE_CURVE('',#419,#387,#427,.T.);
#427 = B_SPLINE_CURVE_WITH_KNOTS('',5,(#428,#429,#430,#431,#432,#433),
  .UNSPECIFIED.,.F.,.F.,(6,6),(247.2395750856,252.73489155376),
  .PIECEWISE_BEZIER_KNOTS.);
#428 = CARTESIAN_POINT('',(3.93368013858,-17.98443543937,0.4));
#429 = CARTESIAN_POINT('',(4.979271037921,-17.64725312829,0.4));
#430 = CARTESIAN_POINT('',(5.979214442159,-17.16628156175,0.400000000001
    ));
#431 = CARTESIAN_POINT('',(6.906611437022,-16.54973527636,0.399999999999
    ));
#432 = CARTESIAN_POINT('',(7.737068404179,-15.81383866977,0.4));
#433 = CARTESIAN_POINT('',(8.452609913629,-14.98020050609,0.4));
#434 = ORIENTED_EDGE('',*,*,#386,.F.);
#435 = ORIENTED_EDGE('',*,*,#161,.F.);
#436 = B_SPLINE_SURFACE_WITH_KNOTS('',1,5,(
    (#437,#438,#439,#440,#441,#442)
    ,(#443,#444,#445,#446,#447,#448
    )),.UNSPECIFIED.,.F.,.F.,.F.,(2,2),(6,6),(0.,5.495316468159),(
    247.2395750856,252.73489155376),.PIECEWISE_BEZIER_KNOTS.);
#437 = CARTESIAN_POINT('',(3.81091367891,-17.60374081584,0.));
#438 = CARTESIAN_POINT('',(4.814680870601,-17.28004582032,0.));
#439 = CARTESIAN_POINT('',(5.774626345929,-16.81831242917,0.));
#440 = CARTESIAN_POINT('',(6.664929236795,-16.22642992421,0.));
#441 = CARTESIAN_POINT('',(7.462166074919,-15.51996831194,0.));
#442 = CARTESIAN_POINT('',(8.149086262957,-14.71967527989,0.));
#443 = CARTESIAN_POINT('',(3.93368013858,-17.98443543937,0.4));
#444 = CARTESIAN_POINT('',(4.979271037921,-17.64725312829,0.4));
#445 = CARTESIAN_POINT('',(5.979214442159,-17.16628156175,0.400000000001
    ));
#446 = CARTESIAN_POINT('',(6.906611437022,-16.54973527636,0.399999999999
    ));
#447 = CARTESIAN_POINT('',(7.737068404179,-15.81383866977,0.4));
#448 = CARTESIAN_POINT('',(8.452609913629,-14.98020050609,0.4));
#449 = ADVANCED_FACE('',(#450),#470,.F.);
#450 = FACE_BOUND('',#451,.F.);
#451 = EDGE_LOOP('',(#452,#453,#464,#469));
#452 = ORIENTED_EDGE('',*,*,#395,.T.);
#453 = ORIENTED_EDGE('',*,*,#454,.T.);
#454 = EDGE_CURVE('',#396,#455,#457,.T.);
#455 = VERTEX_POINT('',#456);
#456 = CARTESIAN_POINT('',(3.93368013858,17.984435439371,0.4));
#457 = B_SPLINE_CURVE_WITH_KNOTS('',5,(#458,#459,#460,#461,#462,#463),
  .UNSPECIFIED.,.F.,.F.,(6,6),(32.628424846211,38.12374131437),
  .PIECEWISE_BEZIER_KNOTS.);
#458 = CARTESIAN_POINT('',(8.452609913629,14.980200506092,0.4));
#459 = CARTESIAN_POINT('',(7.737068404179,15.813838669771,0.4));
#460 = CARTESIAN_POINT('',(6.906606013899,16.549741297723,0.400000000001
    ));
#461 = CARTESIAN_POINT('',(5.979206791274,17.166284232144,0.399999999999
    ));
#462 = CARTESIAN_POINT('',(4.979271037921,17.647253128292,0.4));
#463 = CARTESIAN_POINT('',(3.93368013858,17.984435439371,0.4));
#464 = ORIENTED_EDGE('',*,*,#465,.F.);
#465 = EDGE_CURVE('',#104,#455,#466,.T.);
#466 = B_SPLINE_CURVE_WITH_KNOTS('',1,(#467,#468),.UNSPECIFIED.,.F.,.F.,
  (2,2),(0.,5.495316468159),.PIECEWISE_BEZIER_KNOTS.);
#467 = CARTESIAN_POINT('',(3.81091367891,17.603740815847,0.));
#468 = CARTESIAN_POINT('',(3.93368013858,17.984435439371,0.4));
#469 = ORIENTED_EDGE('',*,*,#103,.F.);
#470 = B_SPLINE_SURFACE_WITH_KNOTS('',1,5,(
    (#471,#472,#473,#474,#475,#476)
    ,(#477,#478,#479,#480,#481,#482
    )),.UNSPECIFIED.,.F.,.F.,.F.,(2,2),(6,6),(0.,5.495316468159),(
    32.628424846211,38.12374131437),.PIECEWISE_BEZIER_KNOTS.);
#471 = CARTESIAN_POINT('',(8.149086262957,14.719675279899,0.));
#472 = CARTESIAN_POINT('',(7.462166462936,15.519967859884,0.));
#473 = CARTESIAN_POINT('',(6.664922009132,16.226433939029,0.));
#474 = CARTESIAN_POINT('',(5.774619846912,16.818317540012,0.));
#475 = CARTESIAN_POINT('',(4.814681437595,17.280045637481,0.));
#476 = CARTESIAN_POINT('',(3.81091367891,17.603740815847,0.));
#477 = CARTESIAN_POINT('',(8.452609913629,14.980200506092,0.4));
#478 = CARTESIAN_POINT('',(7.737068404179,15.813838669771,0.4));
#479 = CARTESIAN_POINT('',(6.906606013899,16.549741297723,0.400000000001
    ));
#480 = CARTESIAN_POINT('',(5.979206791274,17.166284232144,0.399999999999
    ));
#481 = CARTESIAN_POINT('',(4.979271037921,17.647253128292,0.4));
#482 = CARTESIAN_POINT('',(3.93368013858,17.984435439371,0.4));
#483 = ADVANCED_FACE('',(#484),#502,.T.);
#484 = FACE_BOUND('',#485,.T.);
#485 = EDGE_LOOP('',(#486,#493,#494,#495));
#486 = ORIENTED_EDGE('',*,*,#487,.F.);
#487 = EDGE_CURVE('',#143,#488,#490,.T.);
#488 = VERTEX_POINT('',#489);
#489 = CARTESIAN_POINT('',(-75.87081750875,-18.93214578963,0.4));
#490 = B_SPLINE_CURVE_WITH_KNOTS('',1,(#491,#492),.UNSPECIFIED.,.F.,.F.,
  (2,2),(0.,3.899799915129),.PIECEWISE_BEZIER_KNOTS.);
#491 = CARTESIAN_POINT('',(-75.75712619762,-18.54864313544,0.));
#492 = CARTESIAN_POINT('',(-75.87081750875,-18.93214578963,0.4));
#493 = ORIENTED_EDGE('',*,*,#152,.T.);
#494 = ORIENTED_EDGE('',*,*,#418,.T.);
#495 = ORIENTED_EDGE('',*,*,#496,.F.);
#496 = EDGE_CURVE('',#488,#419,#497,.T.);
#497 = CIRCLE('',#498,135.);
#498 = AXIS2_PLACEMENT_3D('',#499,#500,#501);
#499 = CARTESIAN_POINT('',(-37.5,110.5,0.4));
#500 = DIRECTION('',(0.,0.,1.));
#501 = DIRECTION('',(-0.284228277843,-0.958756635479,0.));
#502 = CONICAL_SURFACE('',#503,135.,0.785398163397);
#503 = AXIS2_PLACEMENT_3D('',#504,#505,#506);
#504 = CARTESIAN_POINT('',(-37.5,110.5,0.4));
#505 = DIRECTION('',(0.,0.,1.));
#506 = DIRECTION('',(-0.284228277843,-0.958756635479,0.));
#507 = ADVANCED_FACE('',(#508),#527,.T.);
#508 = FACE_BOUND('',#509,.T.);
#509 = EDGE_LOOP('',(#510,#511,#512,#520));
#510 = ORIENTED_EDGE('',*,*,#465,.F.);
#511 = ORIENTED_EDGE('',*,*,#114,.T.);
#512 = ORIENTED_EDGE('',*,*,#513,.T.);
#513 = EDGE_CURVE('',#115,#514,#516,.T.);
#514 = VERTEX_POINT('',#515);
#515 = CARTESIAN_POINT('',(-75.87081750875,18.932145789636,0.4));
#516 = LINE('',#517,#518);
#517 = CARTESIAN_POINT('',(-75.87081750875,18.932145789636,0.4));
#518 = VECTOR('',#519,1.);
#519 = DIRECTION('',(-0.200979742668,0.677943318455,0.707106781187));
#520 = ORIENTED_EDGE('',*,*,#521,.F.);
#521 = EDGE_CURVE('',#455,#514,#522,.T.);
#522 = CIRCLE('',#523,135.);
#523 = AXIS2_PLACEMENT_3D('',#524,#525,#526);
#524 = CARTESIAN_POINT('',(-37.5,-110.5,0.4));
#525 = DIRECTION('',(0.,-0.,1.));
#526 = DIRECTION('',(0.306916149175,0.95173655881,0.));
#527 = CONICAL_SURFACE('',#528,135.,0.785398163397);
#528 = AXIS2_PLACEMENT_3D('',#529,#530,#531);
#529 = CARTESIAN_POINT('',(-37.5,-110.5,0.4));
#530 = DIRECTION('',(0.,0.,1.));
#531 = DIRECTION('',(0.306916149175,0.95173655881,0.));
#532 = ADVANCED_FACE('',(#533),#553,.F.);
#533 = FACE_BOUND('',#534,.F.);
#534 = EDGE_LOOP('',(#535,#543,#551,#552));
#535 = ORIENTED_EDGE('',*,*,#536,.T.);
#536 = EDGE_CURVE('',#134,#537,#539,.T.);
#537 = VERTEX_POINT('',#538);
#538 = CARTESIAN_POINT('',(-79.30231367227,-17.13172896388,0.4));
#539 = LINE('',#540,#541);
#540 = CARTESIAN_POINT('',(-79.30231367227,-17.13172896388,0.4));
#541 = VECTOR('',#542,1.);
#542 = DIRECTION('',(-0.443623163351,-0.55063462381,0.707106781187));
#543 = ORIENTED_EDGE('',*,*,#544,.T.);
#544 = EDGE_CURVE('',#537,#488,#545,.T.);
#545 = B_SPLINE_CURVE_WITH_KNOTS('',4,(#546,#547,#548,#549,#550),
  .UNSPECIFIED.,.F.,.F.,(5,5),(162.31918650619,166.21898642132),
  .PIECEWISE_BEZIER_KNOTS.);
#546 = CARTESIAN_POINT('',(-79.30231367227,-17.13172896388,0.4));
#547 = CARTESIAN_POINT('',(-78.54340433818,-17.74315030378,0.4));
#548 = CARTESIAN_POINT('',(-77.70437585088,-18.25648010787,0.4));
#549 = CARTESIAN_POINT('',(-76.8051893955,-18.6551464945,0.4));
#550 = CARTESIAN_POINT('',(-75.87081750875,-18.93214578963,0.4));
#551 = ORIENTED_EDGE('',*,*,#487,.F.);
#552 = ORIENTED_EDGE('',*,*,#142,.F.);
#553 = B_SPLINE_SURFACE_WITH_KNOTS('',1,4,(
    (#554,#555,#556,#557,#558)
    ,(#559,#560,#561,#562,#563
    )),.UNSPECIFIED.,.F.,.F.,.F.,(2,2),(5,5),(0.,3.899799915129),(
    162.31918650619,166.21898642132),.PIECEWISE_BEZIER_KNOTS.);
#554 = CARTESIAN_POINT('',(-79.05136251459,-16.82024298272,0.));
#555 = CARTESIAN_POINT('',(-78.32280957018,-17.40720745588,0.));
#556 = CARTESIAN_POINT('',(-77.51734212041,-17.90000426873,0.));
#557 = CARTESIAN_POINT('',(-76.65412333431,-18.28272377493,0.));
#558 = CARTESIAN_POINT('',(-75.75712619762,-18.54864313544,0.));
#559 = CARTESIAN_POINT('',(-79.30231367227,-17.13172896388,0.4));
#560 = CARTESIAN_POINT('',(-78.54340433818,-17.74315030378,0.4));
#561 = CARTESIAN_POINT('',(-77.70437585088,-18.25648010787,0.4));
#562 = CARTESIAN_POINT('',(-76.8051893955,-18.6551464945,0.4));
#563 = CARTESIAN_POINT('',(-75.87081750875,-18.93214578963,0.4));
#564 = ADVANCED_FACE('',(#565),#584,.F.);
#565 = FACE_BOUND('',#566,.F.);
#566 = EDGE_LOOP('',(#567,#568,#578,#583));
#567 = ORIENTED_EDGE('',*,*,#513,.T.);
#568 = ORIENTED_EDGE('',*,*,#569,.T.);
#569 = EDGE_CURVE('',#514,#570,#572,.T.);
#570 = VERTEX_POINT('',#571);
#571 = CARTESIAN_POINT('',(-79.30231367227,17.131728963888,0.4));
#572 = B_SPLINE_CURVE_WITH_KNOTS('',4,(#573,#574,#575,#576,#577),
  .UNSPECIFIED.,.F.,.F.,(5,5),(119.14432997865,123.04412989378),
  .PIECEWISE_BEZIER_KNOTS.);
#573 = CARTESIAN_POINT('',(-75.87081750875,18.932145789636,0.4));
#574 = CARTESIAN_POINT('',(-76.8051893955,18.6551464945,0.4));
#575 = CARTESIAN_POINT('',(-77.70437816102,18.256478895809,0.4));
#576 = CARTESIAN_POINT('',(-78.54340433818,17.743150303787,0.4));
#577 = CARTESIAN_POINT('',(-79.30231367227,17.131728963888,0.4));
#578 = ORIENTED_EDGE('',*,*,#579,.F.);
#579 = EDGE_CURVE('',#124,#570,#580,.T.);
#580 = B_SPLINE_CURVE_WITH_KNOTS('',1,(#581,#582),.UNSPECIFIED.,.F.,.F.,
  (2,2),(0.,3.899799915129),.PIECEWISE_BEZIER_KNOTS.);
#581 = CARTESIAN_POINT('',(-79.05136251459,16.820242982726,0.));
#582 = CARTESIAN_POINT('',(-79.30231367227,17.131728963888,0.4));
#583 = ORIENTED_EDGE('',*,*,#123,.F.);
#584 = B_SPLINE_SURFACE_WITH_KNOTS('',1,4,(
    (#585,#586,#587,#588,#589)
    ,(#590,#591,#592,#593,#594
    )),.UNSPECIFIED.,.F.,.F.,.F.,(2,2),(5,5),(0.,3.899799915129),(
    119.14432997865,123.04412989378),.PIECEWISE_BEZIER_KNOTS.);
#585 = CARTESIAN_POINT('',(-75.75712619762,18.548643135444,0.));
#586 = CARTESIAN_POINT('',(-76.65412318881,18.282723818068,0.));
#587 = CARTESIAN_POINT('',(-77.51734462697,17.900002953608,0.));
#588 = CARTESIAN_POINT('',(-78.322809452,17.407207551099,0.));
#589 = CARTESIAN_POINT('',(-79.05136251459,16.820242982726,0.));
#590 = CARTESIAN_POINT('',(-75.87081750875,18.932145789636,0.4));
#591 = CARTESIAN_POINT('',(-76.8051893955,18.6551464945,0.4));
#592 = CARTESIAN_POINT('',(-77.70437816102,18.256478895809,0.4));
#593 = CARTESIAN_POINT('',(-78.54340433818,17.743150303787,0.4));
#594 = CARTESIAN_POINT('',(-79.30231367227,17.131728963888,0.4));
#595 = ADVANCED_FACE('',(#596),#608,.T.);
#596 = FACE_BOUND('',#597,.T.);
#597 = EDGE_LOOP('',(#598,#599,#600,#601));
#598 = ORIENTED_EDGE('',*,*,#579,.F.);
#599 = ORIENTED_EDGE('',*,*,#133,.T.);
#600 = ORIENTED_EDGE('',*,*,#536,.T.);
#601 = ORIENTED_EDGE('',*,*,#602,.F.);
#602 = EDGE_CURVE('',#570,#537,#603,.T.);
#603 = CIRCLE('',#604,22.);
#604 = AXIS2_PLACEMENT_3D('',#605,#606,#607);
#605 = CARTESIAN_POINT('',(-65.5,7.639723436613E-26,0.4));
#606 = DIRECTION('',(0.,0.,1.));
#607 = DIRECTION('',(-0.627377894194,0.778714952904,0.));
#608 = CONICAL_SURFACE('',#609,22.,0.785398163397);
#609 = AXIS2_PLACEMENT_3D('',#610,#611,#612);
#610 = CARTESIAN_POINT('',(-65.5,7.639723436613E-26,0.4));
#611 = DIRECTION('',(0.,0.,1.));
#612 = DIRECTION('',(-0.627377894194,0.778714952904,0.));
#613 = ADVANCED_FACE('',(#614),#633,.F.);
#614 = FACE_BOUND('',#615,.F.);
#615 = EDGE_LOOP('',(#616,#624,#625,#626));
#616 = ORIENTED_EDGE('',*,*,#617,.F.);
#617 = EDGE_CURVE('',#173,#618,#620,.T.);
#618 = VERTEX_POINT('',#619);
#619 = CARTESIAN_POINT('',(4.5,0.,0.4));
#620 = LINE('',#621,#622);
#621 = CARTESIAN_POINT('',(4.5,0.,0.4));
#622 = VECTOR('',#623,1.);
#623 = DIRECTION('',(-0.707106781187,0.,0.707106781187));
#624 = ORIENTED_EDGE('',*,*,#172,.T.);
#625 = ORIENTED_EDGE('',*,*,#617,.T.);
#626 = ORIENTED_EDGE('',*,*,#627,.F.);
#627 = EDGE_CURVE('',#618,#618,#628,.T.);
#628 = CIRCLE('',#629,4.5);
#629 = AXIS2_PLACEMENT_3D('',#630,#631,#632);
#630 = CARTESIAN_POINT('',(0.,0.,0.4));
#631 = DIRECTION('',(0.,0.,1.));
#632 = DIRECTION('',(1.,0.,0.));
#633 = CONICAL_SURFACE('',#634,4.5,0.785398163397);
#634 = AXIS2_PLACEMENT_3D('',#635,#636,#637);
#635 = CARTESIAN_POINT('',(0.,0.,0.4));
#636 = DIRECTION('',(-0.,-0.,-1.));
#637 = DIRECTION('',(1.,0.,0.));
#638 = ADVANCED_FACE('',(#639),#664,.T.);
#639 = FACE_BOUND('',#640,.T.);
#640 = EDGE_LOOP('',(#641,#649,#657,#663));
#641 = ORIENTED_EDGE('',*,*,#642,.T.);
#642 = EDGE_CURVE('',#190,#643,#645,.T.);
#643 = VERTEX_POINT('',#644);
#644 = CARTESIAN_POINT('',(-22.,13.5,0.6));
#645 = LINE('',#646,#647);
#646 = CARTESIAN_POINT('',(-22.,13.5,0.));
#647 = VECTOR('',#648,1.);
#648 = DIRECTION('',(0.,0.,1.));
#649 = ORIENTED_EDGE('',*,*,#650,.T.);
#650 = EDGE_CURVE('',#643,#651,#653,.T.);
#651 = VERTEX_POINT('',#652);
#652 = CARTESIAN_POINT('',(-76.05544171172,13.5,0.6));
#653 = LINE('',#654,#655);
#654 = CARTESIAN_POINT('',(-22.,13.5,0.6));
#655 = VECTOR('',#656,1.);
#656 = DIRECTION('',(-1.,0.,0.));
#657 = ORIENTED_EDGE('',*,*,#658,.F.);
#658 = EDGE_CURVE('',#199,#651,#659,.T.);
#659 = LINE('',#660,#661);
#660 = CARTESIAN_POINT('',(-76.05544171172,13.5,0.));
#661 = VECTOR('',#662,1.);
#662 = DIRECTION('',(0.,0.,1.));
#663 = ORIENTED_EDGE('',*,*,#206,.F.);
#664 = PLANE('',#665);
#665 = AXIS2_PLACEMENT_3D('',#666,#667,#668);
#666 = CARTESIAN_POINT('',(-20.,13.5,0.));
#667 = DIRECTION('',(0.,-1.,0.));
#668 = DIRECTION('',(-1.,0.,0.));
#669 = ADVANCED_FACE('',(#670),#689,.F.);
#670 = FACE_BOUND('',#671,.T.);
#671 = EDGE_LOOP('',(#672,#673,#674,#682));
#672 = ORIENTED_EDGE('',*,*,#642,.F.);
#673 = ORIENTED_EDGE('',*,*,#230,.F.);
#674 = ORIENTED_EDGE('',*,*,#675,.T.);
#675 = EDGE_CURVE('',#221,#676,#678,.T.);
#676 = VERTEX_POINT('',#677);
#677 = CARTESIAN_POINT('',(-20.,11.5,0.6));
#678 = LINE('',#679,#680);
#679 = CARTESIAN_POINT('',(-20.,11.5,0.));
#680 = VECTOR('',#681,1.);
#681 = DIRECTION('',(0.,0.,1.));
#682 = ORIENTED_EDGE('',*,*,#683,.T.);
#683 = EDGE_CURVE('',#676,#643,#684,.T.);
#684 = CIRCLE('',#685,2.);
#685 = AXIS2_PLACEMENT_3D('',#686,#687,#688);
#686 = CARTESIAN_POINT('',(-22.,11.5,0.6));
#687 = DIRECTION('',(0.,0.,1.));
#688 = DIRECTION('',(1.,0.,0.));
#689 = CYLINDRICAL_SURFACE('',#690,2.);
#690 = AXIS2_PLACEMENT_3D('',#691,#692,#693);
#691 = CARTESIAN_POINT('',(-22.,11.5,0.));
#692 = DIRECTION('',(0.,0.,1.));
#693 = DIRECTION('',(0.,1.,0.));
#694 = ADVANCED_FACE('',(#695),#714,.F.);
#695 = FACE_BOUND('',#696,.T.);
#696 = EDGE_LOOP('',(#697,#705,#706,#707));
#697 = ORIENTED_EDGE('',*,*,#698,.F.);
#698 = EDGE_CURVE('',#248,#699,#701,.T.);
#699 = VERTEX_POINT('',#700);
#700 = CARTESIAN_POINT('',(-80.29151724664,11.15625,0.6));
#701 = LINE('',#702,#703);
#702 = CARTESIAN_POINT('',(-80.29151724664,11.15625,0.));
#703 = VECTOR('',#704,1.);
#704 = DIRECTION('',(0.,0.,1.));
#705 = ORIENTED_EDGE('',*,*,#255,.F.);
#706 = ORIENTED_EDGE('',*,*,#658,.T.);
#707 = ORIENTED_EDGE('',*,*,#708,.T.);
#708 = EDGE_CURVE('',#651,#699,#709,.T.);
#709 = CIRCLE('',#710,5.);
#710 = AXIS2_PLACEMENT_3D('',#711,#712,#713);
#711 = CARTESIAN_POINT('',(-76.05544171172,8.5,0.6));
#712 = DIRECTION('',(0.,-0.,1.));
#713 = DIRECTION('',(0.,1.,0.));
#714 = CYLINDRICAL_SURFACE('',#715,5.);
#715 = AXIS2_PLACEMENT_3D('',#716,#717,#718);
#716 = CARTESIAN_POINT('',(-76.05544171172,8.5,0.));
#717 = DIRECTION('',(0.,0.,1.));
#718 = DIRECTION('',(-0.847215106983,0.53125,0.));
#719 = ADVANCED_FACE('',(#720),#738,.F.);
#720 = FACE_BOUND('',#721,.F.);
#721 = EDGE_LOOP('',(#722,#723,#731,#737));
#722 = ORIENTED_EDGE('',*,*,#675,.T.);
#723 = ORIENTED_EDGE('',*,*,#724,.F.);
#724 = EDGE_CURVE('',#725,#676,#727,.T.);
#725 = VERTEX_POINT('',#726);
#726 = CARTESIAN_POINT('',(-20.,-11.5,0.6));
#727 = LINE('',#728,#729);
#728 = CARTESIAN_POINT('',(-20.,-11.5,0.6));
#729 = VECTOR('',#730,1.);
#730 = DIRECTION('',(0.,1.,0.));
#731 = ORIENTED_EDGE('',*,*,#732,.F.);
#732 = EDGE_CURVE('',#271,#725,#733,.T.);
#733 = LINE('',#734,#735);
#734 = CARTESIAN_POINT('',(-20.,-11.5,0.));
#735 = VECTOR('',#736,1.);
#736 = DIRECTION('',(0.,0.,1.));
#737 = ORIENTED_EDGE('',*,*,#280,.T.);
#738 = PLANE('',#739);
#739 = AXIS2_PLACEMENT_3D('',#740,#741,#742);
#740 = CARTESIAN_POINT('',(-20.,13.5,0.));
#741 = DIRECTION('',(1.,0.,0.));
#742 = DIRECTION('',(0.,-1.,0.));
#743 = ADVANCED_FACE('',(#744),#763,.F.);
#744 = FACE_BOUND('',#745,.T.);
#745 = EDGE_LOOP('',(#746,#747,#756,#762));
#746 = ORIENTED_EDGE('',*,*,#698,.T.);
#747 = ORIENTED_EDGE('',*,*,#748,.T.);
#748 = EDGE_CURVE('',#699,#749,#751,.T.);
#749 = VERTEX_POINT('',#750);
#750 = CARTESIAN_POINT('',(-80.29151724664,-11.15625,0.6));
#751 = CIRCLE('',#752,21.);
#752 = AXIS2_PLACEMENT_3D('',#753,#754,#755);
#753 = CARTESIAN_POINT('',(-62.5,-3.944304526105E-31,0.6));
#754 = DIRECTION('',(0.,0.,1.));
#755 = DIRECTION('',(-0.847215106983,0.53125,0.));
#756 = ORIENTED_EDGE('',*,*,#757,.F.);
#757 = EDGE_CURVE('',#297,#749,#758,.T.);
#758 = LINE('',#759,#760);
#759 = CARTESIAN_POINT('',(-80.29151724664,-11.15625,0.));
#760 = VECTOR('',#761,1.);
#761 = DIRECTION('',(0.,0.,1.));
#762 = ORIENTED_EDGE('',*,*,#304,.F.);
#763 = CYLINDRICAL_SURFACE('',#764,21.);
#764 = AXIS2_PLACEMENT_3D('',#765,#766,#767);
#765 = CARTESIAN_POINT('',(-62.5,-2.941361281665E-31,0.));
#766 = DIRECTION('',(-0.,-0.,-1.));
#767 = DIRECTION('',(1.,0.,0.));
#768 = ADVANCED_FACE('',(#769),#788,.F.);
#769 = FACE_BOUND('',#770,.F.);
#770 = EDGE_LOOP('',(#771,#779,#780,#781));
#771 = ORIENTED_EDGE('',*,*,#772,.F.);
#772 = EDGE_CURVE('',#320,#773,#775,.T.);
#773 = VERTEX_POINT('',#774);
#774 = CARTESIAN_POINT('',(-22.,-13.5,0.6));
#775 = LINE('',#776,#777);
#776 = CARTESIAN_POINT('',(-22.,-13.5,0.));
#777 = VECTOR('',#778,1.);
#778 = DIRECTION('',(0.,0.,1.));
#779 = ORIENTED_EDGE('',*,*,#329,.T.);
#780 = ORIENTED_EDGE('',*,*,#732,.T.);
#781 = ORIENTED_EDGE('',*,*,#782,.F.);
#782 = EDGE_CURVE('',#773,#725,#783,.T.);
#783 = CIRCLE('',#784,2.);
#784 = AXIS2_PLACEMENT_3D('',#785,#786,#787);
#785 = CARTESIAN_POINT('',(-22.,-11.5,0.6));
#786 = DIRECTION('',(-0.,0.,1.));
#787 = DIRECTION('',(0.,-1.,0.));
#788 = CYLINDRICAL_SURFACE('',#789,2.);
#789 = AXIS2_PLACEMENT_3D('',#790,#791,#792);
#790 = CARTESIAN_POINT('',(-22.,-11.5,0.));
#791 = DIRECTION('',(0.,0.,1.));
#792 = DIRECTION('',(0.,-1.,0.));
#793 = ADVANCED_FACE('',(#794),#813,.F.);
#794 = FACE_BOUND('',#795,.F.);
#795 = EDGE_LOOP('',(#796,#797,#798,#806));
#796 = ORIENTED_EDGE('',*,*,#757,.F.);
#797 = ORIENTED_EDGE('',*,*,#354,.T.);
#798 = ORIENTED_EDGE('',*,*,#799,.T.);
#799 = EDGE_CURVE('',#347,#800,#802,.T.);
#800 = VERTEX_POINT('',#801);
#801 = CARTESIAN_POINT('',(-76.05544171172,-13.5,0.6));
#802 = LINE('',#803,#804);
#803 = CARTESIAN_POINT('',(-76.05544171172,-13.5,0.));
#804 = VECTOR('',#805,1.);
#805 = DIRECTION('',(0.,0.,1.));
#806 = ORIENTED_EDGE('',*,*,#807,.F.);
#807 = EDGE_CURVE('',#749,#800,#808,.T.);
#808 = CIRCLE('',#809,5.);
#809 = AXIS2_PLACEMENT_3D('',#810,#811,#812);
#810 = CARTESIAN_POINT('',(-76.05544171172,-8.5,0.6));
#811 = DIRECTION('',(0.,0.,1.));
#812 = DIRECTION('',(-0.847215106983,-0.53125,0.));
#813 = CYLINDRICAL_SURFACE('',#814,5.);
#814 = AXIS2_PLACEMENT_3D('',#815,#816,#817);
#815 = CARTESIAN_POINT('',(-76.05544171172,-8.5,0.));
#816 = DIRECTION('',(0.,0.,1.));
#817 = DIRECTION('',(-0.847215106983,-0.53125,0.));
#818 = ADVANCED_FACE('',(#819),#830,.F.);
#819 = FACE_BOUND('',#820,.F.);
#820 = EDGE_LOOP('',(#821,#822,#828,#829));
#821 = ORIENTED_EDGE('',*,*,#772,.T.);
#822 = ORIENTED_EDGE('',*,*,#823,.F.);
#823 = EDGE_CURVE('',#800,#773,#824,.T.);
#824 = LINE('',#825,#826);
#825 = CARTESIAN_POINT('',(-76.05544171172,-13.5,0.6));
#826 = VECTOR('',#827,1.);
#827 = DIRECTION('',(1.,0.,0.));
#828 = ORIENTED_EDGE('',*,*,#799,.F.);
#829 = ORIENTED_EDGE('',*,*,#372,.T.);
#830 = PLANE('',#831);
#831 = AXIS2_PLACEMENT_3D('',#832,#833,#834);
#832 = CARTESIAN_POINT('',(-20.,-13.5,0.));
#833 = DIRECTION('',(0.,-1.,0.));
#834 = DIRECTION('',(-1.,0.,0.));
#835 = ADVANCED_FACE('',(#836),#866,.T.);
#836 = FACE_BOUND('',#837,.T.);
#837 = EDGE_LOOP('',(#838,#848,#849,#859));
#838 = ORIENTED_EDGE('',*,*,#839,.T.);
#839 = EDGE_CURVE('',#840,#387,#842,.T.);
#840 = VERTEX_POINT('',#841);
#841 = CARTESIAN_POINT('',(8.452609913629,-14.98020050609,0.6));
#842 = B_SPLINE_CURVE_WITH_KNOTS('',2,(#843,#844,#845,#846,#847),
  .UNSPECIFIED.,.F.,.F.,(3,1,1,3),(-6.12E-02,1.082142188358E-15,1.,
    1.0612),.UNSPECIFIED.);
#843 = CARTESIAN_POINT('',(8.452609913629,-14.98020050609,1.0612));
#844 = CARTESIAN_POINT('',(8.452609913629,-14.98020050609,1.0306));
#845 = CARTESIAN_POINT('',(8.452609913629,-14.98020050609,0.5));
#846 = CARTESIAN_POINT('',(8.452609913629,-14.98020050609,-3.06E-02));
#847 = CARTESIAN_POINT('',(8.452609913629,-14.98020050609,-6.12E-02));
#848 = ORIENTED_EDGE('',*,*,#403,.T.);
#849 = ORIENTED_EDGE('',*,*,#850,.F.);
#850 = EDGE_CURVE('',#851,#396,#853,.T.);
#851 = VERTEX_POINT('',#852);
#852 = CARTESIAN_POINT('',(8.452609913629,14.980200506092,0.6));
#853 = B_SPLINE_CURVE_WITH_KNOTS('',2,(#854,#855,#856,#857,#858),
  .UNSPECIFIED.,.F.,.F.,(3,1,1,3),(-6.12E-02,-1.591954643672E-15,1.,
    1.0612),.UNSPECIFIED.);
#854 = CARTESIAN_POINT('',(8.452609913629,14.980200506092,1.0612));
#855 = CARTESIAN_POINT('',(8.452609913629,14.980200506092,1.0306));
#856 = CARTESIAN_POINT('',(8.452609913629,14.980200506092,0.5));
#857 = CARTESIAN_POINT('',(8.452609913629,14.980200506092,-3.06E-02));
#858 = CARTESIAN_POINT('',(8.452609913629,14.980200506092,-6.12E-02));
#859 = ORIENTED_EDGE('',*,*,#860,.F.);
#860 = EDGE_CURVE('',#840,#851,#861,.T.);
#861 = CIRCLE('',#862,23.);
#862 = AXIS2_PLACEMENT_3D('',#863,#864,#865);
#863 = CARTESIAN_POINT('',(-9.,4.086628207384E-23,0.6));
#864 = DIRECTION('',(-0.,0.,1.));
#865 = DIRECTION('',(0.75880912668,-0.651313065482,0.));
#866 = CYLINDRICAL_SURFACE('',#867,23.);
#867 = AXIS2_PLACEMENT_3D('',#868,#869,#870);
#868 = CARTESIAN_POINT('',(-9.,4.086628205314E-23,1.));
#869 = DIRECTION('',(0.,0.,1.));
#870 = DIRECTION('',(1.,0.,0.));
#871 = ADVANCED_FACE('',(#872),#895,.T.);
#872 = FACE_BOUND('',#873,.T.);
#873 = EDGE_LOOP('',(#874,#875,#886,#894));
#874 = ORIENTED_EDGE('',*,*,#839,.F.);
#875 = ORIENTED_EDGE('',*,*,#876,.F.);
#876 = EDGE_CURVE('',#877,#840,#879,.T.);
#877 = VERTEX_POINT('',#878);
#878 = CARTESIAN_POINT('',(3.93368013858,-17.98443543937,0.6));
#879 = B_SPLINE_CURVE_WITH_KNOTS('',5,(#880,#881,#882,#883,#884,#885),
  .UNSPECIFIED.,.F.,.F.,(6,6),(247.2395750856,252.73489155376),
  .PIECEWISE_BEZIER_KNOTS.);
#880 = CARTESIAN_POINT('',(3.93368013858,-17.98443543937,0.6));
#881 = CARTESIAN_POINT('',(4.979271037921,-17.64725312829,0.6));
#882 = CARTESIAN_POINT('',(5.979214442159,-17.16628156175,0.599999999999
    ));
#883 = CARTESIAN_POINT('',(6.906611437022,-16.54973527636,0.600000000001
    ));
#884 = CARTESIAN_POINT('',(7.737068404179,-15.81383866977,0.6));
#885 = CARTESIAN_POINT('',(8.452609913629,-14.98020050609,0.6));
#886 = ORIENTED_EDGE('',*,*,#887,.T.);
#887 = EDGE_CURVE('',#877,#419,#888,.T.);
#888 = B_SPLINE_CURVE_WITH_KNOTS('',2,(#889,#890,#891,#892,#893),
  .UNSPECIFIED.,.F.,.F.,(3,1,1,3),(-6.12E-02,1.082142188358E-15,1.,
    1.0612),.UNSPECIFIED.);
#889 = CARTESIAN_POINT('',(3.93368013858,-17.98443543937,1.0612));
#890 = CARTESIAN_POINT('',(3.93368013858,-17.98443543937,1.0306));
#891 = CARTESIAN_POINT('',(3.93368013858,-17.98443543937,0.5));
#892 = CARTESIAN_POINT('',(3.93368013858,-17.98443543937,-3.06E-02));
#893 = CARTESIAN_POINT('',(3.93368013858,-17.98443543937,-6.12E-02));
#894 = ORIENTED_EDGE('',*,*,#426,.T.);
#895 = ( BOUNDED_SURFACE() B_SPLINE_SURFACE(2,2,(
    (#896,#897,#898,#899,#900)
    ,(#901,#902,#903,#904,#905)
    ,(#906,#907,#908,#909,#910
)),.UNSPECIFIED.,.F.,.F.,.F.) B_SPLINE_SURFACE_WITH_KNOTS((3,3),(3,1,1,3
    ),(0.,1.),(-6.12E-02,1.082142188358E-15,1.,1.0612),.UNSPECIFIED.) 
GEOMETRIC_REPRESENTATION_ITEM() RATIONAL_B_SPLINE_SURFACE((
    (1.,1.,1.,1.,1.)
    ,(0.962488761173,0.962488761173,0.962488761173,0.962488761173
      ,0.962488761173)
,(1.,1.,1.,1.,1.))) REPRESENTATION_ITEM('') SURFACE() );
#896 = CARTESIAN_POINT('',(8.452609913629,-14.98020050609,1.0612));
#897 = CARTESIAN_POINT('',(8.452609913629,-14.98020050609,1.0306));
#898 = CARTESIAN_POINT('',(8.452609913629,-14.98020050609,0.5));
#899 = CARTESIAN_POINT('',(8.452609913629,-14.98020050609,-3.06E-02));
#900 = CARTESIAN_POINT('',(8.452609913629,-14.98020050609,-6.12E-02));
#901 = CARTESIAN_POINT('',(6.616585650946,-17.11925166468,1.0612));
#902 = CARTESIAN_POINT('',(6.616585650946,-17.11925166468,1.0306));
#903 = CARTESIAN_POINT('',(6.616585650946,-17.11925166468,0.5));
#904 = CARTESIAN_POINT('',(6.616585650946,-17.11925166468,-3.06E-02));
#905 = CARTESIAN_POINT('',(6.616585650946,-17.11925166468,-6.12E-02));
#906 = CARTESIAN_POINT('',(3.93368013858,-17.98443543937,1.0612));
#907 = CARTESIAN_POINT('',(3.93368013858,-17.98443543937,1.0306));
#908 = CARTESIAN_POINT('',(3.93368013858,-17.98443543937,0.5));
#909 = CARTESIAN_POINT('',(3.93368013858,-17.98443543937,-3.06E-02));
#910 = CARTESIAN_POINT('',(3.93368013858,-17.98443543937,-6.12E-02));
#911 = ADVANCED_FACE('',(#912),#935,.F.);
#912 = FACE_BOUND('',#913,.F.);
#913 = EDGE_LOOP('',(#914,#915,#926,#934));
#914 = ORIENTED_EDGE('',*,*,#850,.F.);
#915 = ORIENTED_EDGE('',*,*,#916,.T.);
#916 = EDGE_CURVE('',#851,#917,#919,.T.);
#917 = VERTEX_POINT('',#918);
#918 = CARTESIAN_POINT('',(3.93368013858,17.984435439371,0.6));
#919 = B_SPLINE_CURVE_WITH_KNOTS('',5,(#920,#921,#922,#923,#924,#925),
  .UNSPECIFIED.,.F.,.F.,(6,6),(32.628424846211,38.12374131437),
  .PIECEWISE_BEZIER_KNOTS.);
#920 = CARTESIAN_POINT('',(8.452609913629,14.980200506092,0.6));
#921 = CARTESIAN_POINT('',(7.737068404179,15.813838669771,0.6));
#922 = CARTESIAN_POINT('',(6.906606013899,16.549741297722,0.599999999999
    ));
#923 = CARTESIAN_POINT('',(5.979206791274,17.166284232144,0.600000000001
    ));
#924 = CARTESIAN_POINT('',(4.979271037921,17.647253128292,0.6));
#925 = CARTESIAN_POINT('',(3.93368013858,17.984435439371,0.6));
#926 = ORIENTED_EDGE('',*,*,#927,.T.);
#927 = EDGE_CURVE('',#917,#455,#928,.T.);
#928 = B_SPLINE_CURVE_WITH_KNOTS('',2,(#929,#930,#931,#932,#933),
  .UNSPECIFIED.,.F.,.F.,(3,1,1,3),(-6.12E-02,-1.591954643672E-15,1.,
    1.0612),.UNSPECIFIED.);
#929 = CARTESIAN_POINT('',(3.93368013858,17.984435439371,1.0612));
#930 = CARTESIAN_POINT('',(3.93368013858,17.984435439371,1.0306));
#931 = CARTESIAN_POINT('',(3.93368013858,17.984435439371,0.5));
#932 = CARTESIAN_POINT('',(3.93368013858,17.984435439371,-3.06E-02));
#933 = CARTESIAN_POINT('',(3.93368013858,17.984435439371,-6.12E-02));
#934 = ORIENTED_EDGE('',*,*,#454,.F.);
#935 = ( BOUNDED_SURFACE() B_SPLINE_SURFACE(2,2,(
    (#936,#937,#938,#939,#940)
    ,(#941,#942,#943,#944,#945)
    ,(#946,#947,#948,#949,#950
)),.UNSPECIFIED.,.F.,.F.,.F.) B_SPLINE_SURFACE_WITH_KNOTS((3,3),(3,1,1,3
    ),(0.,1.),(-6.12E-02,-1.591954643672E-15,1.,1.0612),.UNSPECIFIED.) 
GEOMETRIC_REPRESENTATION_ITEM() RATIONAL_B_SPLINE_SURFACE((
    (1.,1.,1.,1.,1.)
    ,(0.962488761173,0.962488761173,0.962488761173,0.962488761173
      ,0.962488761173)
,(1.,1.,1.,1.,1.))) REPRESENTATION_ITEM('') SURFACE() );
#936 = CARTESIAN_POINT('',(8.452609913629,14.980200506092,1.0612));
#937 = CARTESIAN_POINT('',(8.452609913629,14.980200506092,1.0306));
#938 = CARTESIAN_POINT('',(8.452609913629,14.980200506092,0.5));
#939 = CARTESIAN_POINT('',(8.452609913629,14.980200506092,-3.06E-02));
#940 = CARTESIAN_POINT('',(8.452609913629,14.980200506092,-6.12E-02));
#941 = CARTESIAN_POINT('',(6.616585650946,17.119251664688,1.0612));
#942 = CARTESIAN_POINT('',(6.616585650946,17.119251664688,1.0306));
#943 = CARTESIAN_POINT('',(6.616585650946,17.119251664688,0.5));
#944 = CARTESIAN_POINT('',(6.616585650946,17.119251664688,-3.06E-02));
#945 = CARTESIAN_POINT('',(6.616585650946,17.119251664688,-6.12E-02));
#946 = CARTESIAN_POINT('',(3.93368013858,17.984435439371,1.0612));
#947 = CARTESIAN_POINT('',(3.93368013858,17.984435439371,1.0306));
#948 = CARTESIAN_POINT('',(3.93368013858,17.984435439371,0.5));
#949 = CARTESIAN_POINT('',(3.93368013858,17.984435439371,-3.06E-02));
#950 = CARTESIAN_POINT('',(3.93368013858,17.984435439371,-6.12E-02));
#951 = ADVANCED_FACE('',(#952),#973,.T.);
#952 = FACE_BOUND('',#953,.F.);
#953 = EDGE_LOOP('',(#954,#964,#971,#972));
#954 = ORIENTED_EDGE('',*,*,#955,.F.);
#955 = EDGE_CURVE('',#956,#488,#958,.T.);
#956 = VERTEX_POINT('',#957);
#957 = CARTESIAN_POINT('',(-75.87081750875,-18.93214578963,0.6));
#958 = B_SPLINE_CURVE_WITH_KNOTS('',2,(#959,#960,#961,#962,#963),
  .UNSPECIFIED.,.F.,.F.,(3,1,1,3),(-6.12E-02,-1.05517311058E-15,1.,
    1.0612),.UNSPECIFIED.);
#959 = CARTESIAN_POINT('',(-75.87081750875,-18.93214578963,1.0612));
#960 = CARTESIAN_POINT('',(-75.87081750875,-18.93214578963,1.0306));
#961 = CARTESIAN_POINT('',(-75.87081750875,-18.93214578963,0.5));
#962 = CARTESIAN_POINT('',(-75.87081750875,-18.93214578963,
    -3.060000000001E-02));
#963 = CARTESIAN_POINT('',(-75.87081750875,-18.93214578963,
    -6.120000000001E-02));
#964 = ORIENTED_EDGE('',*,*,#965,.T.);
#965 = EDGE_CURVE('',#956,#877,#966,.T.);
#966 = CIRCLE('',#967,135.);
#967 = AXIS2_PLACEMENT_3D('',#968,#969,#970);
#968 = CARTESIAN_POINT('',(-37.5,110.5,0.6));
#969 = DIRECTION('',(0.,0.,1.));
#970 = DIRECTION('',(-0.284228277843,-0.958756635479,0.));
#971 = ORIENTED_EDGE('',*,*,#887,.T.);
#972 = ORIENTED_EDGE('',*,*,#496,.F.);
#973 = CYLINDRICAL_SURFACE('',#974,135.);
#974 = AXIS2_PLACEMENT_3D('',#975,#976,#977);
#975 = CARTESIAN_POINT('',(-37.5,110.5,0.));
#976 = DIRECTION('',(-0.,-0.,-1.));
#977 = DIRECTION('',(1.,0.,0.));
#978 = ADVANCED_FACE('',(#979),#1000,.T.);
#979 = FACE_BOUND('',#980,.F.);
#980 = EDGE_LOOP('',(#981,#982,#991,#999));
#981 = ORIENTED_EDGE('',*,*,#927,.F.);
#982 = ORIENTED_EDGE('',*,*,#983,.T.);
#983 = EDGE_CURVE('',#917,#984,#986,.T.);
#984 = VERTEX_POINT('',#985);
#985 = CARTESIAN_POINT('',(-75.87081750875,18.932145789636,0.6));
#986 = CIRCLE('',#987,135.);
#987 = AXIS2_PLACEMENT_3D('',#988,#989,#990);
#988 = CARTESIAN_POINT('',(-37.5,-110.5,0.6));
#989 = DIRECTION('',(0.,-0.,1.));
#990 = DIRECTION('',(0.306916149175,0.95173655881,0.));
#991 = ORIENTED_EDGE('',*,*,#992,.T.);
#992 = EDGE_CURVE('',#984,#514,#993,.T.);
#993 = B_SPLINE_CURVE_WITH_KNOTS('',2,(#994,#995,#996,#997,#998),
  .UNSPECIFIED.,.F.,.F.,(3,1,1,3),(-6.12E-02,-2.76837472217E-15,1.,
    1.0612),.UNSPECIFIED.);
#994 = CARTESIAN_POINT('',(-75.87081750875,18.932145789636,1.0612));
#995 = CARTESIAN_POINT('',(-75.87081750875,18.932145789636,1.0306));
#996 = CARTESIAN_POINT('',(-75.87081750875,18.932145789636,0.5));
#997 = CARTESIAN_POINT('',(-75.87081750875,18.932145789636,
    -3.060000000001E-02));
#998 = CARTESIAN_POINT('',(-75.87081750875,18.932145789636,
    -6.120000000001E-02));
#999 = ORIENTED_EDGE('',*,*,#521,.F.);
#1000 = CYLINDRICAL_SURFACE('',#1001,135.);
#1001 = AXIS2_PLACEMENT_3D('',#1002,#1003,#1004);
#1002 = CARTESIAN_POINT('',(-37.5,-110.5,0.));
#1003 = DIRECTION('',(-0.,-0.,-1.));
#1004 = DIRECTION('',(1.,0.,0.));
#1005 = ADVANCED_FACE('',(#1006),#1028,.T.);
#1006 = FACE_BOUND('',#1007,.T.);
#1007 = EDGE_LOOP('',(#1008,#1009,#1019,#1027));
#1008 = ORIENTED_EDGE('',*,*,#955,.F.);
#1009 = ORIENTED_EDGE('',*,*,#1010,.F.);
#1010 = EDGE_CURVE('',#1011,#956,#1013,.T.);
#1011 = VERTEX_POINT('',#1012);
#1012 = CARTESIAN_POINT('',(-79.30231367227,-17.13172896388,0.6));
#1013 = B_SPLINE_CURVE_WITH_KNOTS('',4,(#1014,#1015,#1016,#1017,#1018),
  .UNSPECIFIED.,.F.,.F.,(5,5),(162.31918650619,166.21898642132),
  .PIECEWISE_BEZIER_KNOTS.);
#1014 = CARTESIAN_POINT('',(-79.30231367227,-17.13172896388,0.6));
#1015 = CARTESIAN_POINT('',(-78.54340433818,-17.74315030378,0.6));
#1016 = CARTESIAN_POINT('',(-77.70437585088,-18.25648010787,0.6));
#1017 = CARTESIAN_POINT('',(-76.8051893955,-18.6551464945,0.6));
#1018 = CARTESIAN_POINT('',(-75.87081750875,-18.93214578963,0.6));
#1019 = ORIENTED_EDGE('',*,*,#1020,.T.);
#1020 = EDGE_CURVE('',#1011,#537,#1021,.T.);
#1021 = B_SPLINE_CURVE_WITH_KNOTS('',2,(#1022,#1023,#1024,#1025,#1026),
  .UNSPECIFIED.,.F.,.F.,(3,1,1,3),(-6.12E-02,-1.05517311058E-15,1.,
    1.0612),.UNSPECIFIED.);
#1022 = CARTESIAN_POINT('',(-79.30231367227,-17.13172896388,1.0612));
#1023 = CARTESIAN_POINT('',(-79.30231367227,-17.13172896388,1.0306));
#1024 = CARTESIAN_POINT('',(-79.30231367227,-17.13172896388,0.5));
#1025 = CARTESIAN_POINT('',(-79.30231367227,-17.13172896388,
    -3.059999999999E-02));
#1026 = CARTESIAN_POINT('',(-79.30231367227,-17.13172896388,
    -6.119999999999E-02));
#1027 = ORIENTED_EDGE('',*,*,#544,.T.);
#1028 = ( BOUNDED_SURFACE() B_SPLINE_SURFACE(2,2,(
    (#1029,#1030,#1031,#1032,#1033)
    ,(#1034,#1035,#1036,#1037,#1038)
    ,(#1039,#1040,#1041,#1042,#1043
)),.UNSPECIFIED.,.F.,.F.,.F.) B_SPLINE_SURFACE_WITH_KNOTS((3,3),(3,1,1,3
    ),(0.,1.),(-6.12E-02,-1.05517311058E-15,1.,1.0612),.UNSPECIFIED.) 
GEOMETRIC_REPRESENTATION_ITEM() RATIONAL_B_SPLINE_SURFACE((
    (1.,1.,1.,1.,1.)
    ,(0.981049607988,0.981049607988,0.981049607988,0.981049607988
      ,0.981049607988)
,(1.,1.,1.,1.,1.))) REPRESENTATION_ITEM('') SURFACE() );
#1029 = CARTESIAN_POINT('',(-75.87081750875,-18.93214578963,1.0612));
#1030 = CARTESIAN_POINT('',(-75.87081750875,-18.93214578963,1.0306));
#1031 = CARTESIAN_POINT('',(-75.87081750875,-18.93214578963,0.5));
#1032 = CARTESIAN_POINT('',(-75.87081750875,-18.93214578963,
    -3.060000000001E-02));
#1033 = CARTESIAN_POINT('',(-75.87081750875,-18.93214578963,
    -6.120000000001E-02));
#1034 = CARTESIAN_POINT('',(-77.76435622236,-18.37079661333,1.0612));
#1035 = CARTESIAN_POINT('',(-77.76435622236,-18.37079661333,1.0306));
#1036 = CARTESIAN_POINT('',(-77.76435622236,-18.37079661333,0.5));
#1037 = CARTESIAN_POINT('',(-77.76435622236,-18.37079661333,-3.06E-02));
#1038 = CARTESIAN_POINT('',(-77.76435622236,-18.37079661333,-6.12E-02));
#1039 = CARTESIAN_POINT('',(-79.30231367227,-17.13172896388,1.0612));
#1040 = CARTESIAN_POINT('',(-79.30231367227,-17.13172896388,1.0306));
#1041 = CARTESIAN_POINT('',(-79.30231367227,-17.13172896388,0.5));
#1042 = CARTESIAN_POINT('',(-79.30231367227,-17.13172896388,
    -3.059999999999E-02));
#1043 = CARTESIAN_POINT('',(-79.30231367227,-17.13172896388,
    -6.119999999999E-02));
#1044 = ADVANCED_FACE('',(#1045),#1067,.T.);
#1045 = FACE_BOUND('',#1046,.T.);
#1046 = EDGE_LOOP('',(#1047,#1057,#1065,#1066));
#1047 = ORIENTED_EDGE('',*,*,#1048,.F.);
#1048 = EDGE_CURVE('',#1049,#570,#1051,.T.);
#1049 = VERTEX_POINT('',#1050);
#1050 = CARTESIAN_POINT('',(-79.30231367227,17.131728963888,0.6));
#1051 = B_SPLINE_CURVE_WITH_KNOTS('',2,(#1052,#1053,#1054,#1055,#1056),
  .UNSPECIFIED.,.F.,.F.,(3,1,1,3),(-6.12E-02,-2.76837472217E-15,1.,
    1.0612),.UNSPECIFIED.);
#1052 = CARTESIAN_POINT('',(-79.30231367227,17.131728963888,1.0612));
#1053 = CARTESIAN_POINT('',(-79.30231367227,17.131728963888,1.0306));
#1054 = CARTESIAN_POINT('',(-79.30231367227,17.131728963888,0.5));
#1055 = CARTESIAN_POINT('',(-79.30231367227,17.131728963888,
    -3.059999999999E-02));
#1056 = CARTESIAN_POINT('',(-79.30231367227,17.131728963888,
    -6.119999999999E-02));
#1057 = ORIENTED_EDGE('',*,*,#1058,.F.);
#1058 = EDGE_CURVE('',#984,#1049,#1059,.T.);
#1059 = B_SPLINE_CURVE_WITH_KNOTS('',4,(#1060,#1061,#1062,#1063,#1064),
  .UNSPECIFIED.,.F.,.F.,(5,5),(119.14432997865,123.04412989378),
  .PIECEWISE_BEZIER_KNOTS.);
#1060 = CARTESIAN_POINT('',(-75.87081750875,18.932145789636,0.6));
#1061 = CARTESIAN_POINT('',(-76.8051893955,18.6551464945,0.6));
#1062 = CARTESIAN_POINT('',(-77.70437816102,18.256478895809,0.6));
#1063 = CARTESIAN_POINT('',(-78.54340433818,17.743150303787,0.6));
#1064 = CARTESIAN_POINT('',(-79.30231367227,17.131728963888,0.6));
#1065 = ORIENTED_EDGE('',*,*,#992,.T.);
#1066 = ORIENTED_EDGE('',*,*,#569,.T.);
#1067 = ( BOUNDED_SURFACE() B_SPLINE_SURFACE(2,2,(
    (#1068,#1069,#1070,#1071,#1072)
    ,(#1073,#1074,#1075,#1076,#1077)
    ,(#1078,#1079,#1080,#1081,#1082
)),.UNSPECIFIED.,.F.,.F.,.F.) B_SPLINE_SURFACE_WITH_KNOTS((3,3),(3,1,1,3
    ),(0.,1.),(-6.12E-02,-2.76837472217E-15,1.,1.0612),.UNSPECIFIED.) 
GEOMETRIC_REPRESENTATION_ITEM() RATIONAL_B_SPLINE_SURFACE((
    (1.,1.,1.,1.,1.)
    ,(0.981049607988,0.981049607988,0.981049607988,0.981049607988
      ,0.981049607988)
,(1.,1.,1.,1.,1.))) REPRESENTATION_ITEM('') SURFACE() );
#1068 = CARTESIAN_POINT('',(-79.30231367227,17.131728963888,1.0612));
#1069 = CARTESIAN_POINT('',(-79.30231367227,17.131728963888,1.0306));
#1070 = CARTESIAN_POINT('',(-79.30231367227,17.131728963888,0.5));
#1071 = CARTESIAN_POINT('',(-79.30231367227,17.131728963888,
    -3.059999999999E-02));
#1072 = CARTESIAN_POINT('',(-79.30231367227,17.131728963888,
    -6.119999999999E-02));
#1073 = CARTESIAN_POINT('',(-77.76435622236,18.370796613338,1.0612));
#1074 = CARTESIAN_POINT('',(-77.76435622236,18.370796613338,1.0306));
#1075 = CARTESIAN_POINT('',(-77.76435622236,18.370796613338,0.5));
#1076 = CARTESIAN_POINT('',(-77.76435622236,18.370796613338,-3.06E-02));
#1077 = CARTESIAN_POINT('',(-77.76435622236,18.370796613338,-6.12E-02));
#1078 = CARTESIAN_POINT('',(-75.87081750875,18.932145789636,1.0612));
#1079 = CARTESIAN_POINT('',(-75.87081750875,18.932145789636,1.0306));
#1080 = CARTESIAN_POINT('',(-75.87081750875,18.932145789636,0.5));
#1081 = CARTESIAN_POINT('',(-75.87081750875,18.932145789636,
    -3.060000000001E-02));
#1082 = CARTESIAN_POINT('',(-75.87081750875,18.932145789636,
    -6.120000000001E-02));
#1083 = ADVANCED_FACE('',(#1084),#1096,.T.);
#1084 = FACE_BOUND('',#1085,.T.);
#1085 = EDGE_LOOP('',(#1086,#1087,#1088,#1089));
#1086 = ORIENTED_EDGE('',*,*,#1048,.T.);
#1087 = ORIENTED_EDGE('',*,*,#602,.T.);
#1088 = ORIENTED_EDGE('',*,*,#1020,.F.);
#1089 = ORIENTED_EDGE('',*,*,#1090,.F.);
#1090 = EDGE_CURVE('',#1049,#1011,#1091,.T.);
#1091 = CIRCLE('',#1092,22.);
#1092 = AXIS2_PLACEMENT_3D('',#1093,#1094,#1095);
#1093 = CARTESIAN_POINT('',(-65.5,7.639723436613E-26,0.6));
#1094 = DIRECTION('',(0.,0.,1.));
#1095 = DIRECTION('',(-0.627377894194,0.778714952904,0.));
#1096 = CYLINDRICAL_SURFACE('',#1097,22.);
#1097 = AXIS2_PLACEMENT_3D('',#1098,#1099,#1100);
#1098 = CARTESIAN_POINT('',(-65.5,7.63971247115E-26,1.));
#1099 = DIRECTION('',(0.,0.,1.));
#1100 = DIRECTION('',(1.,0.,0.));
#1101 = ADVANCED_FACE('',(#1102),#1121,.F.);
#1102 = FACE_BOUND('',#1103,.T.);
#1103 = EDGE_LOOP('',(#1104,#1112,#1119,#1120));
#1104 = ORIENTED_EDGE('',*,*,#1105,.T.);
#1105 = EDGE_CURVE('',#618,#1106,#1108,.T.);
#1106 = VERTEX_POINT('',#1107);
#1107 = CARTESIAN_POINT('',(4.5,0.,0.6));
#1108 = LINE('',#1109,#1110);
#1109 = CARTESIAN_POINT('',(4.5,0.,0.));
#1110 = VECTOR('',#1111,1.);
#1111 = DIRECTION('',(0.,0.,1.));
#1112 = ORIENTED_EDGE('',*,*,#1113,.T.);
#1113 = EDGE_CURVE('',#1106,#1106,#1114,.T.);
#1114 = CIRCLE('',#1115,4.5);
#1115 = AXIS2_PLACEMENT_3D('',#1116,#1117,#1118);
#1116 = CARTESIAN_POINT('',(0.,0.,0.6));
#1117 = DIRECTION('',(0.,0.,1.));
#1118 = DIRECTION('',(1.,0.,0.));
#1119 = ORIENTED_EDGE('',*,*,#1105,.F.);
#1120 = ORIENTED_EDGE('',*,*,#627,.F.);
#1121 = CYLINDRICAL_SURFACE('',#1122,4.5);
#1122 = AXIS2_PLACEMENT_3D('',#1123,#1124,#1125);
#1123 = CARTESIAN_POINT('',(0.,0.,0.));
#1124 = DIRECTION('',(-0.,-0.,-1.));
#1125 = DIRECTION('',(1.,0.,0.));
#1126 = ADVANCED_FACE('',(#1127),#1152,.T.);
#1127 = FACE_BOUND('',#1128,.F.);
#1128 = EDGE_LOOP('',(#1129,#1137,#1138,#1146));
#1129 = ORIENTED_EDGE('',*,*,#1130,.F.);
#1130 = EDGE_CURVE('',#643,#1131,#1133,.T.);
#1131 = VERTEX_POINT('',#1132);
#1132 = CARTESIAN_POINT('',(-22.,13.9,1.));
#1133 = LINE('',#1134,#1135);
#1134 = CARTESIAN_POINT('',(-22.,13.7,0.8));
#1135 = VECTOR('',#1136,1.);
#1136 = DIRECTION('',(0.,0.707106781187,0.707106781187));
#1137 = ORIENTED_EDGE('',*,*,#650,.T.);
#1138 = ORIENTED_EDGE('',*,*,#1139,.T.);
#1139 = EDGE_CURVE('',#651,#1140,#1142,.T.);
#1140 = VERTEX_POINT('',#1141);
#1141 = CARTESIAN_POINT('',(-76.05544171172,13.9,1.));
#1142 = LINE('',#1143,#1144);
#1143 = CARTESIAN_POINT('',(-76.05544171172,13.7,0.8));
#1144 = VECTOR('',#1145,1.);
#1145 = DIRECTION('',(0.,0.707106781187,0.707106781187));
#1146 = ORIENTED_EDGE('',*,*,#1147,.F.);
#1147 = EDGE_CURVE('',#1131,#1140,#1148,.T.);
#1148 = LINE('',#1149,#1150);
#1149 = CARTESIAN_POINT('',(-22.,13.9,1.));
#1150 = VECTOR('',#1151,1.);
#1151 = DIRECTION('',(-1.,0.,0.));
#1152 = PLANE('',#1153);
#1153 = AXIS2_PLACEMENT_3D('',#1154,#1155,#1156);
#1154 = CARTESIAN_POINT('',(-22.,13.7,0.8));
#1155 = DIRECTION('',(3.474993633276E-18,-0.707106781187,0.707106781187)
  );
#1156 = DIRECTION('',(1.,2.457191562669E-18,-2.457191562669E-18));
#1157 = ADVANCED_FACE('',(#1158),#1177,.F.);
#1158 = FACE_BOUND('',#1159,.F.);
#1159 = EDGE_LOOP('',(#1160,#1168,#1169,#1170));
#1160 = ORIENTED_EDGE('',*,*,#1161,.F.);
#1161 = EDGE_CURVE('',#676,#1162,#1164,.T.);
#1162 = VERTEX_POINT('',#1163);
#1163 = CARTESIAN_POINT('',(-19.6,11.5,1.));
#1164 = LINE('',#1165,#1166);
#1165 = CARTESIAN_POINT('',(-19.8,11.5,0.8));
#1166 = VECTOR('',#1167,1.);
#1167 = DIRECTION('',(0.707106781187,0.,0.707106781187));
#1168 = ORIENTED_EDGE('',*,*,#683,.T.);
#1169 = ORIENTED_EDGE('',*,*,#1130,.T.);
#1170 = ORIENTED_EDGE('',*,*,#1171,.F.);
#1171 = EDGE_CURVE('',#1162,#1131,#1172,.T.);
#1172 = CIRCLE('',#1173,2.4);
#1173 = AXIS2_PLACEMENT_3D('',#1174,#1175,#1176);
#1174 = CARTESIAN_POINT('',(-22.,11.5,1.));
#1175 = DIRECTION('',(0.,0.,1.));
#1176 = DIRECTION('',(1.,0.,0.));
#1177 = CONICAL_SURFACE('',#1178,2.,0.785398163397);
#1178 = AXIS2_PLACEMENT_3D('',#1179,#1180,#1181);
#1179 = CARTESIAN_POINT('',(-22.,11.5,0.6));
#1180 = DIRECTION('',(0.,0.,1.));
#1181 = DIRECTION('',(1.,0.,0.));
#1182 = ADVANCED_FACE('',(#1183),#1202,.F.);
#1183 = FACE_BOUND('',#1184,.F.);
#1184 = EDGE_LOOP('',(#1185,#1186,#1187,#1195));
#1185 = ORIENTED_EDGE('',*,*,#1139,.F.);
#1186 = ORIENTED_EDGE('',*,*,#708,.T.);
#1187 = ORIENTED_EDGE('',*,*,#1188,.T.);
#1188 = EDGE_CURVE('',#699,#1189,#1191,.T.);
#1189 = VERTEX_POINT('',#1190);
#1190 = CARTESIAN_POINT('',(-80.63040328943,11.36875,1.));
#1191 = LINE('',#1192,#1193);
#1192 = CARTESIAN_POINT('',(-80.29151724664,11.15625,0.6));
#1193 = VECTOR('',#1194,1.);
#1194 = DIRECTION('',(-0.599071547271,0.375650477505,0.707106781187));
#1195 = ORIENTED_EDGE('',*,*,#1196,.F.);
#1196 = EDGE_CURVE('',#1140,#1189,#1197,.T.);
#1197 = CIRCLE('',#1198,5.4);
#1198 = AXIS2_PLACEMENT_3D('',#1199,#1200,#1201);
#1199 = CARTESIAN_POINT('',(-76.05544171172,8.5,1.));
#1200 = DIRECTION('',(0.,-0.,1.));
#1201 = DIRECTION('',(0.,1.,0.));
#1202 = CONICAL_SURFACE('',#1203,5.,0.785398163397);
#1203 = AXIS2_PLACEMENT_3D('',#1204,#1205,#1206);
#1204 = CARTESIAN_POINT('',(-76.05544171172,8.5,0.6));
#1205 = DIRECTION('',(0.,0.,1.));
#1206 = DIRECTION('',(0.,1.,0.));
#1207 = ADVANCED_FACE('',(#1208),#1226,.F.);
#1208 = FACE_BOUND('',#1209,.F.);
#1209 = EDGE_LOOP('',(#1210,#1218,#1219,#1220));
#1210 = ORIENTED_EDGE('',*,*,#1211,.F.);
#1211 = EDGE_CURVE('',#725,#1212,#1214,.T.);
#1212 = VERTEX_POINT('',#1213);
#1213 = CARTESIAN_POINT('',(-19.6,-11.5,1.));
#1214 = LINE('',#1215,#1216);
#1215 = CARTESIAN_POINT('',(-20.,-11.5,0.6));
#1216 = VECTOR('',#1217,1.);
#1217 = DIRECTION('',(0.707106781187,-4.329780281177E-17,0.707106781187)
  );
#1218 = ORIENTED_EDGE('',*,*,#724,.T.);
#1219 = ORIENTED_EDGE('',*,*,#1161,.T.);
#1220 = ORIENTED_EDGE('',*,*,#1221,.F.);
#1221 = EDGE_CURVE('',#1212,#1162,#1222,.T.);
#1222 = LINE('',#1223,#1224);
#1223 = CARTESIAN_POINT('',(-19.6,-11.5,1.));
#1224 = VECTOR('',#1225,1.);
#1225 = DIRECTION('',(0.,1.,0.));
#1226 = PLANE('',#1227);
#1227 = AXIS2_PLACEMENT_3D('',#1228,#1229,#1230);
#1228 = CARTESIAN_POINT('',(-19.8,-11.5,0.8));
#1229 = DIRECTION('',(0.707106781187,6.949987266552E-18,-0.707106781187)
  );
#1230 = DIRECTION('',(-4.914383125339E-18,1.,4.914383125339E-18));
#1231 = ADVANCED_FACE('',(#1232),#1251,.F.);
#1232 = FACE_BOUND('',#1233,.F.);
#1233 = EDGE_LOOP('',(#1234,#1235,#1236,#1244));
#1234 = ORIENTED_EDGE('',*,*,#1188,.F.);
#1235 = ORIENTED_EDGE('',*,*,#748,.T.);
#1236 = ORIENTED_EDGE('',*,*,#1237,.T.);
#1237 = EDGE_CURVE('',#749,#1238,#1240,.T.);
#1238 = VERTEX_POINT('',#1239);
#1239 = CARTESIAN_POINT('',(-80.63040328943,-11.36875,1.));
#1240 = LINE('',#1241,#1242);
#1241 = CARTESIAN_POINT('',(-80.29151724664,-11.15625,0.6));
#1242 = VECTOR('',#1243,1.);
#1243 = DIRECTION('',(-0.599071547271,-0.375650477505,0.707106781187));
#1244 = ORIENTED_EDGE('',*,*,#1245,.F.);
#1245 = EDGE_CURVE('',#1189,#1238,#1246,.T.);
#1246 = CIRCLE('',#1247,21.4);
#1247 = AXIS2_PLACEMENT_3D('',#1248,#1249,#1250);
#1248 = CARTESIAN_POINT('',(-62.5,-3.944304526105E-31,1.));
#1249 = DIRECTION('',(0.,0.,1.));
#1250 = DIRECTION('',(-0.847215106983,0.53125,0.));
#1251 = CONICAL_SURFACE('',#1252,21.,0.785398163397);
#1252 = AXIS2_PLACEMENT_3D('',#1253,#1254,#1255);
#1253 = CARTESIAN_POINT('',(-62.5,-3.944304526105E-31,0.6));
#1254 = DIRECTION('',(0.,0.,1.));
#1255 = DIRECTION('',(-0.847215106983,0.53125,0.));
#1256 = ADVANCED_FACE('',(#1257),#1276,.F.);
#1257 = FACE_BOUND('',#1258,.F.);
#1258 = EDGE_LOOP('',(#1259,#1267,#1268,#1269));
#1259 = ORIENTED_EDGE('',*,*,#1260,.F.);
#1260 = EDGE_CURVE('',#773,#1261,#1263,.T.);
#1261 = VERTEX_POINT('',#1262);
#1262 = CARTESIAN_POINT('',(-22.,-13.9,1.));
#1263 = LINE('',#1264,#1265);
#1264 = CARTESIAN_POINT('',(-22.,-13.7,0.8));
#1265 = VECTOR('',#1266,1.);
#1266 = DIRECTION('',(0.,-0.707106781187,0.707106781187));
#1267 = ORIENTED_EDGE('',*,*,#782,.T.);
#1268 = ORIENTED_EDGE('',*,*,#1211,.T.);
#1269 = ORIENTED_EDGE('',*,*,#1270,.F.);
#1270 = EDGE_CURVE('',#1261,#1212,#1271,.T.);
#1271 = CIRCLE('',#1272,2.4);
#1272 = AXIS2_PLACEMENT_3D('',#1273,#1274,#1275);
#1273 = CARTESIAN_POINT('',(-22.,-11.5,1.));
#1274 = DIRECTION('',(-0.,0.,1.));
#1275 = DIRECTION('',(0.,-1.,0.));
#1276 = CONICAL_SURFACE('',#1277,2.,0.785398163397);
#1277 = AXIS2_PLACEMENT_3D('',#1278,#1279,#1280);
#1278 = CARTESIAN_POINT('',(-22.,-11.5,0.6));
#1279 = DIRECTION('',(0.,0.,1.));
#1280 = DIRECTION('',(0.,-1.,0.));
#1281 = ADVANCED_FACE('',(#1282),#1301,.F.);
#1282 = FACE_BOUND('',#1283,.F.);
#1283 = EDGE_LOOP('',(#1284,#1285,#1286,#1294));
#1284 = ORIENTED_EDGE('',*,*,#1237,.F.);
#1285 = ORIENTED_EDGE('',*,*,#807,.T.);
#1286 = ORIENTED_EDGE('',*,*,#1287,.T.);
#1287 = EDGE_CURVE('',#800,#1288,#1290,.T.);
#1288 = VERTEX_POINT('',#1289);
#1289 = CARTESIAN_POINT('',(-76.05544171172,-13.9,1.));
#1290 = LINE('',#1291,#1292);
#1291 = CARTESIAN_POINT('',(-76.05544171172,-13.5,0.6));
#1292 = VECTOR('',#1293,1.);
#1293 = DIRECTION('',(-1.665334536938E-15,-0.707106781187,0.707106781187
    ));
#1294 = ORIENTED_EDGE('',*,*,#1295,.F.);
#1295 = EDGE_CURVE('',#1238,#1288,#1296,.T.);
#1296 = CIRCLE('',#1297,5.4);
#1297 = AXIS2_PLACEMENT_3D('',#1298,#1299,#1300);
#1298 = CARTESIAN_POINT('',(-76.05544171172,-8.5,1.));
#1299 = DIRECTION('',(0.,0.,1.));
#1300 = DIRECTION('',(-0.847215106983,-0.53125,0.));
#1301 = CONICAL_SURFACE('',#1302,5.,0.785398163397);
#1302 = AXIS2_PLACEMENT_3D('',#1303,#1304,#1305);
#1303 = CARTESIAN_POINT('',(-76.05544171172,-8.5,0.6));
#1304 = DIRECTION('',(0.,0.,1.));
#1305 = DIRECTION('',(-0.847215106983,-0.53125,0.));
#1306 = ADVANCED_FACE('',(#1307),#1318,.F.);
#1307 = FACE_BOUND('',#1308,.F.);
#1308 = EDGE_LOOP('',(#1309,#1310,#1311,#1312));
#1309 = ORIENTED_EDGE('',*,*,#1287,.F.);
#1310 = ORIENTED_EDGE('',*,*,#823,.T.);
#1311 = ORIENTED_EDGE('',*,*,#1260,.T.);
#1312 = ORIENTED_EDGE('',*,*,#1313,.F.);
#1313 = EDGE_CURVE('',#1288,#1261,#1314,.T.);
#1314 = LINE('',#1315,#1316);
#1315 = CARTESIAN_POINT('',(-76.05544171172,-13.9,1.));
#1316 = VECTOR('',#1317,1.);
#1317 = DIRECTION('',(1.,0.,0.));
#1318 = PLANE('',#1319);
#1319 = AXIS2_PLACEMENT_3D('',#1320,#1321,#1322);
#1320 = CARTESIAN_POINT('',(-76.05544171172,-13.7,0.8));
#1321 = DIRECTION('',(-3.474993633276E-18,-0.707106781187,
    -0.707106781187));
#1322 = DIRECTION('',(1.,-2.457191562669E-18,-2.457191562669E-18));
#1323 = ADVANCED_FACE('',(#1324),#1350,.T.);
#1324 = FACE_BOUND('',#1325,.T.);
#1325 = EDGE_LOOP('',(#1326,#1334,#1335,#1343));
#1326 = ORIENTED_EDGE('',*,*,#1327,.F.);
#1327 = EDGE_CURVE('',#840,#1328,#1330,.T.);
#1328 = VERTEX_POINT('',#1329);
#1329 = CARTESIAN_POINT('',(8.149086262957,-14.71967527989,1.));
#1330 = LINE('',#1331,#1332);
#1331 = CARTESIAN_POINT('',(8.452609913629,-14.98020050609,0.6));
#1332 = VECTOR('',#1333,1.);
#1333 = DIRECTION('',(-0.536559079101,0.460547885278,0.707106781187));
#1334 = ORIENTED_EDGE('',*,*,#860,.T.);
#1335 = ORIENTED_EDGE('',*,*,#1336,.T.);
#1336 = EDGE_CURVE('',#851,#1337,#1339,.T.);
#1337 = VERTEX_POINT('',#1338);
#1338 = CARTESIAN_POINT('',(8.149086262957,14.719675279899,1.));
#1339 = LINE('',#1340,#1341);
#1340 = CARTESIAN_POINT('',(8.452609913629,14.980200506092,0.6));
#1341 = VECTOR('',#1342,1.);
#1342 = DIRECTION('',(-0.536559079101,-0.460547885278,0.707106781187));
#1343 = ORIENTED_EDGE('',*,*,#1344,.F.);
#1344 = EDGE_CURVE('',#1328,#1337,#1345,.T.);
#1345 = CIRCLE('',#1346,22.6);
#1346 = AXIS2_PLACEMENT_3D('',#1347,#1348,#1349);
#1347 = CARTESIAN_POINT('',(-9.,4.086628207384E-23,1.));
#1348 = DIRECTION('',(-0.,0.,1.));
#1349 = DIRECTION('',(0.75880912668,-0.651313065482,0.));
#1350 = CONICAL_SURFACE('',#1351,23.,0.785398163397);
#1351 = AXIS2_PLACEMENT_3D('',#1352,#1353,#1354);
#1352 = CARTESIAN_POINT('',(-9.,4.086628207384E-23,0.6));
#1353 = DIRECTION('',(-0.,-0.,-1.));
#1354 = DIRECTION('',(0.75880912668,-0.651313065482,0.));
#1355 = ADVANCED_FACE('',(#1356),#1377,.F.);
#1356 = FACE_BOUND('',#1357,.F.);
#1357 = EDGE_LOOP('',(#1358,#1366,#1375,#1376));
#1358 = ORIENTED_EDGE('',*,*,#1359,.T.);
#1359 = EDGE_CURVE('',#877,#1360,#1362,.T.);
#1360 = VERTEX_POINT('',#1361);
#1361 = CARTESIAN_POINT('',(3.81091367891,-17.60374081584,1.));
#1362 = LINE('',#1363,#1364);
#1363 = CARTESIAN_POINT('',(3.93368013858,-17.98443543937,0.6));
#1364 = VECTOR('',#1365,1.);
#1365 = DIRECTION('',(-0.217022490337,0.672979374638,0.707106781187));
#1366 = ORIENTED_EDGE('',*,*,#1367,.T.);
#1367 = EDGE_CURVE('',#1360,#1328,#1368,.T.);
#1368 = B_SPLINE_CURVE_WITH_KNOTS('',5,(#1369,#1370,#1371,#1372,#1373,
    #1374),.UNSPECIFIED.,.F.,.F.,(6,6),(247.2395750856,252.73489155376),
  .PIECEWISE_BEZIER_KNOTS.);
#1369 = CARTESIAN_POINT('',(3.81091367891,-17.60374081584,1.));
#1370 = CARTESIAN_POINT('',(4.814680870601,-17.28004582032,1.));
#1371 = CARTESIAN_POINT('',(5.774626345929,-16.81831242917,1.));
#1372 = CARTESIAN_POINT('',(6.664929236795,-16.22642992421,1.));
#1373 = CARTESIAN_POINT('',(7.462166074918,-15.51996831194,1.));
#1374 = CARTESIAN_POINT('',(8.149086262957,-14.71967527989,1.));
#1375 = ORIENTED_EDGE('',*,*,#1327,.F.);
#1376 = ORIENTED_EDGE('',*,*,#876,.F.);
#1377 = B_SPLINE_SURFACE_WITH_KNOTS('',1,5,(
    (#1378,#1379,#1380,#1381,#1382,#1383)
    ,(#1384,#1385,#1386,#1387,#1388,#1389
    )),.UNSPECIFIED.,.F.,.F.,.F.,(2,2),(6,6),(0.,5.495316468159),(
    247.2395750856,252.73489155376),.PIECEWISE_BEZIER_KNOTS.);
#1378 = CARTESIAN_POINT('',(3.93368013858,-17.98443543937,0.6));
#1379 = CARTESIAN_POINT('',(4.979271037921,-17.64725312829,0.6));
#1380 = CARTESIAN_POINT('',(5.979214442159,-17.16628156175,
    0.599999999999));
#1381 = CARTESIAN_POINT('',(6.906611437022,-16.54973527636,
    0.600000000001));
#1382 = CARTESIAN_POINT('',(7.737068404179,-15.81383866977,0.6));
#1383 = CARTESIAN_POINT('',(8.452609913629,-14.98020050609,0.6));
#1384 = CARTESIAN_POINT('',(3.81091367891,-17.60374081584,1.));
#1385 = CARTESIAN_POINT('',(4.814680870601,-17.28004582032,1.));
#1386 = CARTESIAN_POINT('',(5.774626345929,-16.81831242917,1.));
#1387 = CARTESIAN_POINT('',(6.664929236795,-16.22642992421,1.));
#1388 = CARTESIAN_POINT('',(7.462166074918,-15.51996831194,1.));
#1389 = CARTESIAN_POINT('',(8.149086262957,-14.71967527989,1.));
#1390 = ADVANCED_FACE('',(#1391),#1411,.F.);
#1391 = FACE_BOUND('',#1392,.F.);
#1392 = EDGE_LOOP('',(#1393,#1394,#1405,#1410));
#1393 = ORIENTED_EDGE('',*,*,#1336,.T.);
#1394 = ORIENTED_EDGE('',*,*,#1395,.T.);
#1395 = EDGE_CURVE('',#1337,#1396,#1398,.T.);
#1396 = VERTEX_POINT('',#1397);
#1397 = CARTESIAN_POINT('',(3.81091367891,17.603740815847,1.));
#1398 = B_SPLINE_CURVE_WITH_KNOTS('',5,(#1399,#1400,#1401,#1402,#1403,
    #1404),.UNSPECIFIED.,.F.,.F.,(6,6),(32.628424846211,38.12374131437),
  .PIECEWISE_BEZIER_KNOTS.);
#1399 = CARTESIAN_POINT('',(8.149086262957,14.719675279899,1.));
#1400 = CARTESIAN_POINT('',(7.462166462936,15.519967859884,1.));
#1401 = CARTESIAN_POINT('',(6.664922009132,16.226433939028,1.));
#1402 = CARTESIAN_POINT('',(5.774619846912,16.818317540012,1.));
#1403 = CARTESIAN_POINT('',(4.814681437595,17.280045637481,1.));
#1404 = CARTESIAN_POINT('',(3.81091367891,17.603740815847,1.));
#1405 = ORIENTED_EDGE('',*,*,#1406,.F.);
#1406 = EDGE_CURVE('',#917,#1396,#1407,.T.);
#1407 = B_SPLINE_CURVE_WITH_KNOTS('',1,(#1408,#1409),.UNSPECIFIED.,.F.,
  .F.,(2,2),(0.,5.495316468159),.PIECEWISE_BEZIER_KNOTS.);
#1408 = CARTESIAN_POINT('',(3.93368013858,17.984435439371,0.6));
#1409 = CARTESIAN_POINT('',(3.81091367891,17.603740815847,1.));
#1410 = ORIENTED_EDGE('',*,*,#916,.F.);
#1411 = B_SPLINE_SURFACE_WITH_KNOTS('',1,5,(
    (#1412,#1413,#1414,#1415,#1416,#1417)
    ,(#1418,#1419,#1420,#1421,#1422,#1423
    )),.UNSPECIFIED.,.F.,.F.,.F.,(2,2),(6,6),(0.,5.495316468159),(
    32.628424846211,38.12374131437),.PIECEWISE_BEZIER_KNOTS.);
#1412 = CARTESIAN_POINT('',(8.452609913629,14.980200506092,0.6));
#1413 = CARTESIAN_POINT('',(7.737068404179,15.813838669771,0.6));
#1414 = CARTESIAN_POINT('',(6.906606013899,16.549741297722,
    0.599999999999));
#1415 = CARTESIAN_POINT('',(5.979206791274,17.166284232144,
    0.600000000001));
#1416 = CARTESIAN_POINT('',(4.979271037921,17.647253128292,0.6));
#1417 = CARTESIAN_POINT('',(3.93368013858,17.984435439371,0.6));
#1418 = CARTESIAN_POINT('',(8.149086262957,14.719675279899,1.));
#1419 = CARTESIAN_POINT('',(7.462166462936,15.519967859884,1.));
#1420 = CARTESIAN_POINT('',(6.664922009132,16.226433939028,1.));
#1421 = CARTESIAN_POINT('',(5.774619846912,16.818317540012,1.));
#1422 = CARTESIAN_POINT('',(4.814681437595,17.280045637481,1.));
#1423 = CARTESIAN_POINT('',(3.81091367891,17.603740815847,1.));
#1424 = ADVANCED_FACE('',(#1425),#1443,.T.);
#1425 = FACE_BOUND('',#1426,.T.);
#1426 = EDGE_LOOP('',(#1427,#1434,#1435,#1436));
#1427 = ORIENTED_EDGE('',*,*,#1428,.F.);
#1428 = EDGE_CURVE('',#956,#1429,#1431,.T.);
#1429 = VERTEX_POINT('',#1430);
#1430 = CARTESIAN_POINT('',(-75.75712619762,-18.54864313544,1.));
#1431 = B_SPLINE_CURVE_WITH_KNOTS('',1,(#1432,#1433),.UNSPECIFIED.,.F.,
  .F.,(2,2),(0.,3.899799915129),.PIECEWISE_BEZIER_KNOTS.);
#1432 = CARTESIAN_POINT('',(-75.87081750875,-18.93214578963,0.6));
#1433 = CARTESIAN_POINT('',(-75.75712619762,-18.54864313544,1.));
#1434 = ORIENTED_EDGE('',*,*,#965,.T.);
#1435 = ORIENTED_EDGE('',*,*,#1359,.T.);
#1436 = ORIENTED_EDGE('',*,*,#1437,.F.);
#1437 = EDGE_CURVE('',#1429,#1360,#1438,.T.);
#1438 = CIRCLE('',#1439,134.6);
#1439 = AXIS2_PLACEMENT_3D('',#1440,#1441,#1442);
#1440 = CARTESIAN_POINT('',(-37.5,110.5,1.));
#1441 = DIRECTION('',(0.,0.,1.));
#1442 = DIRECTION('',(-0.284228277843,-0.958756635479,0.));
#1443 = CONICAL_SURFACE('',#1444,135.,0.785398163397);
#1444 = AXIS2_PLACEMENT_3D('',#1445,#1446,#1447);
#1445 = CARTESIAN_POINT('',(-37.5,110.5,0.6));
#1446 = DIRECTION('',(-0.,-0.,-1.));
#1447 = DIRECTION('',(-0.284228277843,-0.958756635479,0.));
#1448 = ADVANCED_FACE('',(#1449),#1468,.T.);
#1449 = FACE_BOUND('',#1450,.T.);
#1450 = EDGE_LOOP('',(#1451,#1452,#1453,#1461));
#1451 = ORIENTED_EDGE('',*,*,#1406,.F.);
#1452 = ORIENTED_EDGE('',*,*,#983,.T.);
#1453 = ORIENTED_EDGE('',*,*,#1454,.T.);
#1454 = EDGE_CURVE('',#984,#1455,#1457,.T.);
#1455 = VERTEX_POINT('',#1456);
#1456 = CARTESIAN_POINT('',(-75.75712619762,18.548643135444,1.));
#1457 = LINE('',#1458,#1459);
#1458 = CARTESIAN_POINT('',(-75.87081750875,18.932145789636,0.6));
#1459 = VECTOR('',#1460,1.);
#1460 = DIRECTION('',(0.200979742668,-0.677943318455,0.707106781187));
#1461 = ORIENTED_EDGE('',*,*,#1462,.F.);
#1462 = EDGE_CURVE('',#1396,#1455,#1463,.T.);
#1463 = CIRCLE('',#1464,134.6);
#1464 = AXIS2_PLACEMENT_3D('',#1465,#1466,#1467);
#1465 = CARTESIAN_POINT('',(-37.5,-110.5,1.));
#1466 = DIRECTION('',(0.,-0.,1.));
#1467 = DIRECTION('',(0.306916149175,0.95173655881,0.));
#1468 = CONICAL_SURFACE('',#1469,135.,0.785398163397);
#1469 = AXIS2_PLACEMENT_3D('',#1470,#1471,#1472);
#1470 = CARTESIAN_POINT('',(-37.5,-110.5,0.6));
#1471 = DIRECTION('',(-0.,-0.,-1.));
#1472 = DIRECTION('',(0.306916149175,0.95173655881,0.));
#1473 = ADVANCED_FACE('',(#1474),#1494,.F.);
#1474 = FACE_BOUND('',#1475,.F.);
#1475 = EDGE_LOOP('',(#1476,#1484,#1492,#1493));
#1476 = ORIENTED_EDGE('',*,*,#1477,.T.);
#1477 = EDGE_CURVE('',#1011,#1478,#1480,.T.);
#1478 = VERTEX_POINT('',#1479);
#1479 = CARTESIAN_POINT('',(-79.05136251459,-16.82024298272,1.));
#1480 = LINE('',#1481,#1482);
#1481 = CARTESIAN_POINT('',(-79.30231367227,-17.13172896388,0.6));
#1482 = VECTOR('',#1483,1.);
#1483 = DIRECTION('',(0.443623163351,0.55063462381,0.707106781187));
#1484 = ORIENTED_EDGE('',*,*,#1485,.T.);
#1485 = EDGE_CURVE('',#1478,#1429,#1486,.T.);
#1486 = B_SPLINE_CURVE_WITH_KNOTS('',4,(#1487,#1488,#1489,#1490,#1491),
  .UNSPECIFIED.,.F.,.F.,(5,5),(162.31918650619,166.21898642132),
  .PIECEWISE_BEZIER_KNOTS.);
#1487 = CARTESIAN_POINT('',(-79.05136251459,-16.82024298272,1.));
#1488 = CARTESIAN_POINT('',(-78.32280957018,-17.40720745588,1.));
#1489 = CARTESIAN_POINT('',(-77.51734212041,-17.90000426873,1.));
#1490 = CARTESIAN_POINT('',(-76.65412333431,-18.28272377493,1.));
#1491 = CARTESIAN_POINT('',(-75.75712619762,-18.54864313544,1.));
#1492 = ORIENTED_EDGE('',*,*,#1428,.F.);
#1493 = ORIENTED_EDGE('',*,*,#1010,.F.);
#1494 = B_SPLINE_SURFACE_WITH_KNOTS('',1,4,(
    (#1495,#1496,#1497,#1498,#1499)
    ,(#1500,#1501,#1502,#1503,#1504
    )),.UNSPECIFIED.,.F.,.F.,.F.,(2,2),(5,5),(0.,3.899799915129),(
    162.31918650619,166.21898642132),.PIECEWISE_BEZIER_KNOTS.);
#1495 = CARTESIAN_POINT('',(-79.30231367227,-17.13172896388,0.6));
#1496 = CARTESIAN_POINT('',(-78.54340433818,-17.74315030378,0.6));
#1497 = CARTESIAN_POINT('',(-77.70437585088,-18.25648010787,0.6));
#1498 = CARTESIAN_POINT('',(-76.8051893955,-18.6551464945,0.6));
#1499 = CARTESIAN_POINT('',(-75.87081750875,-18.93214578963,0.6));
#1500 = CARTESIAN_POINT('',(-79.05136251459,-16.82024298272,1.));
#1501 = CARTESIAN_POINT('',(-78.32280957018,-17.40720745588,1.));
#1502 = CARTESIAN_POINT('',(-77.51734212041,-17.90000426873,1.));
#1503 = CARTESIAN_POINT('',(-76.65412333431,-18.28272377493,1.));
#1504 = CARTESIAN_POINT('',(-75.75712619762,-18.54864313544,1.));
#1505 = ADVANCED_FACE('',(#1506),#1525,.F.);
#1506 = FACE_BOUND('',#1507,.F.);
#1507 = EDGE_LOOP('',(#1508,#1509,#1519,#1524));
#1508 = ORIENTED_EDGE('',*,*,#1454,.T.);
#1509 = ORIENTED_EDGE('',*,*,#1510,.T.);
#1510 = EDGE_CURVE('',#1455,#1511,#1513,.T.);
#1511 = VERTEX_POINT('',#1512);
#1512 = CARTESIAN_POINT('',(-79.05136251459,16.820242982726,1.));
#1513 = B_SPLINE_CURVE_WITH_KNOTS('',4,(#1514,#1515,#1516,#1517,#1518),
  .UNSPECIFIED.,.F.,.F.,(5,5),(119.14432997865,123.04412989378),
  .PIECEWISE_BEZIER_KNOTS.);
#1514 = CARTESIAN_POINT('',(-75.75712619762,18.548643135444,1.));
#1515 = CARTESIAN_POINT('',(-76.65412318881,18.282723818068,1.));
#1516 = CARTESIAN_POINT('',(-77.51734462697,17.900002953608,1.));
#1517 = CARTESIAN_POINT('',(-78.322809452,17.407207551099,1.));
#1518 = CARTESIAN_POINT('',(-79.05136251459,16.820242982726,1.));
#1519 = ORIENTED_EDGE('',*,*,#1520,.F.);
#1520 = EDGE_CURVE('',#1049,#1511,#1521,.T.);
#1521 = B_SPLINE_CURVE_WITH_KNOTS('',1,(#1522,#1523),.UNSPECIFIED.,.F.,
  .F.,(2,2),(0.,3.899799915129),.PIECEWISE_BEZIER_KNOTS.);
#1522 = CARTESIAN_POINT('',(-79.30231367227,17.131728963888,0.6));
#1523 = CARTESIAN_POINT('',(-79.05136251459,16.820242982726,1.));
#1524 = ORIENTED_EDGE('',*,*,#1058,.F.);
#1525 = B_SPLINE_SURFACE_WITH_KNOTS('',1,4,(
    (#1526,#1527,#1528,#1529,#1530)
    ,(#1531,#1532,#1533,#1534,#1535
    )),.UNSPECIFIED.,.F.,.F.,.F.,(2,2),(5,5),(0.,3.899799915129),(
    119.14432997865,123.04412989378),.PIECEWISE_BEZIER_KNOTS.);
#1526 = CARTESIAN_POINT('',(-75.87081750875,18.932145789636,0.6));
#1527 = CARTESIAN_POINT('',(-76.8051893955,18.6551464945,0.6));
#1528 = CARTESIAN_POINT('',(-77.70437816102,18.256478895809,0.6));
#1529 = CARTESIAN_POINT('',(-78.54340433818,17.743150303787,0.6));
#1530 = CARTESIAN_POINT('',(-79.30231367227,17.131728963888,0.6));
#1531 = CARTESIAN_POINT('',(-75.75712619762,18.548643135444,1.));
#1532 = CARTESIAN_POINT('',(-76.65412318881,18.282723818068,1.));
#1533 = CARTESIAN_POINT('',(-77.51734462697,17.900002953608,1.));
#1534 = CARTESIAN_POINT('',(-78.322809452,17.407207551099,1.));
#1535 = CARTESIAN_POINT('',(-79.05136251459,16.820242982726,1.));
#1536 = ADVANCED_FACE('',(#1537),#1549,.T.);
#1537 = FACE_BOUND('',#1538,.T.);
#1538 = EDGE_LOOP('',(#1539,#1540,#1541,#1542));
#1539 = ORIENTED_EDGE('',*,*,#1520,.F.);
#1540 = ORIENTED_EDGE('',*,*,#1090,.T.);
#1541 = ORIENTED_EDGE('',*,*,#1477,.T.);
#1542 = ORIENTED_EDGE('',*,*,#1543,.F.);
#1543 = EDGE_CURVE('',#1511,#1478,#1544,.T.);
#1544 = CIRCLE('',#1545,21.6);
#1545 = AXIS2_PLACEMENT_3D('',#1546,#1547,#1548);
#1546 = CARTESIAN_POINT('',(-65.5,7.639723436613E-26,1.));
#1547 = DIRECTION('',(0.,0.,1.));
#1548 = DIRECTION('',(-0.627377894194,0.778714952904,0.));
#1549 = CONICAL_SURFACE('',#1550,22.,0.785398163397);
#1550 = AXIS2_PLACEMENT_3D('',#1551,#1552,#1553);
#1551 = CARTESIAN_POINT('',(-65.5,7.639723436613E-26,0.6));
#1552 = DIRECTION('',(-0.,-0.,-1.));
#1553 = DIRECTION('',(-0.627377894194,0.778714952904,0.));
#1554 = ADVANCED_FACE('',(#1555),#1574,.F.);
#1555 = FACE_BOUND('',#1556,.F.);
#1556 = EDGE_LOOP('',(#1557,#1565,#1566,#1567));
#1557 = ORIENTED_EDGE('',*,*,#1558,.F.);
#1558 = EDGE_CURVE('',#1106,#1559,#1561,.T.);
#1559 = VERTEX_POINT('',#1560);
#1560 = CARTESIAN_POINT('',(4.9,0.,1.));
#1561 = LINE('',#1562,#1563);
#1562 = CARTESIAN_POINT('',(4.5,0.,0.6));
#1563 = VECTOR('',#1564,1.);
#1564 = DIRECTION('',(0.707106781187,0.,0.707106781187));
#1565 = ORIENTED_EDGE('',*,*,#1113,.T.);
#1566 = ORIENTED_EDGE('',*,*,#1558,.T.);
#1567 = ORIENTED_EDGE('',*,*,#1568,.F.);
#1568 = EDGE_CURVE('',#1559,#1559,#1569,.T.);
#1569 = CIRCLE('',#1570,4.9);
#1570 = AXIS2_PLACEMENT_3D('',#1571,#1572,#1573);
#1571 = CARTESIAN_POINT('',(0.,0.,1.));
#1572 = DIRECTION('',(0.,0.,1.));
#1573 = DIRECTION('',(1.,0.,0.));
#1574 = CONICAL_SURFACE('',#1575,4.5,0.785398163397);
#1575 = AXIS2_PLACEMENT_3D('',#1576,#1577,#1578);
#1576 = CARTESIAN_POINT('',(0.,0.,0.6));
#1577 = DIRECTION('',(0.,0.,1.));
#1578 = DIRECTION('',(1.,0.,0.));
#1579 = ADVANCED_FACE('',(#1580,#1590,#1600),#1603,.T.);
#1580 = FACE_BOUND('',#1581,.T.);
#1581 = EDGE_LOOP('',(#1582,#1583,#1584,#1585,#1586,#1587,#1588,#1589));
#1582 = ORIENTED_EDGE('',*,*,#1147,.F.);
#1583 = ORIENTED_EDGE('',*,*,#1171,.F.);
#1584 = ORIENTED_EDGE('',*,*,#1221,.F.);
#1585 = ORIENTED_EDGE('',*,*,#1270,.F.);
#1586 = ORIENTED_EDGE('',*,*,#1313,.F.);
#1587 = ORIENTED_EDGE('',*,*,#1295,.F.);
#1588 = ORIENTED_EDGE('',*,*,#1245,.F.);
#1589 = ORIENTED_EDGE('',*,*,#1196,.F.);
#1590 = FACE_BOUND('',#1591,.T.);
#1591 = EDGE_LOOP('',(#1592,#1593,#1594,#1595,#1596,#1597,#1598,#1599));
#1592 = ORIENTED_EDGE('',*,*,#1344,.T.);
#1593 = ORIENTED_EDGE('',*,*,#1395,.T.);
#1594 = ORIENTED_EDGE('',*,*,#1462,.T.);
#1595 = ORIENTED_EDGE('',*,*,#1510,.T.);
#1596 = ORIENTED_EDGE('',*,*,#1543,.T.);
#1597 = ORIENTED_EDGE('',*,*,#1485,.T.);
#1598 = ORIENTED_EDGE('',*,*,#1437,.T.);
#1599 = ORIENTED_EDGE('',*,*,#1367,.T.);
#1600 = FACE_BOUND('',#1601,.T.);
#1601 = EDGE_LOOP('',(#1602));
#1602 = ORIENTED_EDGE('',*,*,#1568,.F.);
#1603 = PLANE('',#1604);
#1604 = AXIS2_PLACEMENT_3D('',#1605,#1606,#1607);
#1605 = CARTESIAN_POINT('',(-39.99752494043,3.032853399893E-15,1.));
#1606 = DIRECTION('',(0.,0.,1.));
#1607 = DIRECTION('',(1.,0.,0.));
#1608 = ( GEOMETRIC_REPRESENTATION_CONTEXT(3) 
GLOBAL_UNCERTAINTY_ASSIGNED_CONTEXT((#1612)) 
GLOBAL_UNIT_ASSIGNED_CONTEXT((#1609,#1610,#1611)) REPRESENTATION_CONTEXT
('Context #1','3D Context with UNIT and UNCERTAINTY') );
#1609 = ( LENGTH_UNIT() NAMED_UNIT(*) SI_UNIT(.MILLI.,.METRE.) );
#1610 = ( NAMED_UNIT(*) PLANE_ANGLE_UNIT() SI_UNIT($,.RADIAN.) );
#1611 = ( NAMED_UNIT(*) SI_UNIT($,.STERADIAN.) SOLID_ANGLE_UNIT() );
#1612 = UNCERTAINTY_MEASURE_WITH_UNIT(LENGTH_MEASURE(2.E-05),#1609,
  'distance_accuracy_value','confusion accuracy');
#1613 = PRODUCT_RELATED_PRODUCT_CATEGORY('part',$,(#7));
#1614 = MECHANICAL_DESIGN_GEOMETRIC_PRESENTATION_REPRESENTATION('',(
    #1615),#1608);
#1615 = STYLED_ITEM('color',(#1616),#15);
#1616 = PRESENTATION_STYLE_ASSIGNMENT((#1617,#1625));
#1617 = SURFACE_STYLE_USAGE(.BOTH.,#1618);
#1618 = SURFACE_SIDE_STYLE('',(#1619,#1623));
#1619 = SURFACE_STYLE_FILL_AREA(#1620);
#1620 = FILL_AREA_STYLE('',(#1621));
#1621 = FILL_AREA_STYLE_COLOUR('',#1622);
#1622 = COLOUR_RGB('',0.800000010877,0.800000010877,0.90196104065);
#1623 = SURFACE_STYLE_RENDERING_WITH_PROPERTIES(.NORMAL_SHADING.,#1622,(
    #1624));
#1624 = SURFACE_STYLE_TRANSPARENT(0.699999988079);
#1625 = CURVE_STYLE('',#1626,POSITIVE_LENGTH_MEASURE(0.1),#1627);
#1626 = DRAUGHTING_PRE_DEFINED_CURVE_FONT('continuous');
#1627 = COLOUR_RGB('',9.803921802644E-02,9.803921802644E-02,
  9.803921802644E-02);
ENDSEC;
END-ISO-10303-21;
